<svg version="1.2" xmlns="http://www.w3.org/2000/svg" viewBox="0 0 1000 1000" width="1000" height="1000">
	<defs>
		<linearGradient id="g1" x2="1" gradientUnits="userSpaceOnUse" gradientTransform="matrix(55.359,9.371,-21.202,125.255,786.629,269.724)">
			<stop offset=".191" stop-color="#47a2e9"/>
			<stop offset=".658" stop-color="#8abcf7"/>
		</linearGradient>
		<linearGradient id="g2" x2="1" gradientUnits="userSpaceOnUse" gradientTransform="matrix(.004,-123.267,77.175,.003,605.282,478.456)">
			<stop offset=".243" stop-color="#49687e"/>
			<stop offset="1" stop-color="#dff1fd"/>
		</linearGradient>
		<linearGradient id="g3" x2="1" gradientUnits="userSpaceOnUse" gradientTransform="matrix(.002,-90.351,31.468,.001,638.945,425.202)">
			<stop offset=".243" stop-color="#49687e"/>
			<stop offset="1" stop-color="#dff1fd"/>
		</linearGradient>
		<linearGradient id="g4" x2="1" gradientUnits="userSpaceOnUse" gradientTransform="matrix(103.56,0,0,234.313,713.723,379.743)">
			<stop offset=".191" stop-color="#47a2e9"/>
			<stop offset=".658" stop-color="#8abcf7"/>
		</linearGradient>
		<linearGradient id="g5" x2="1" gradientUnits="userSpaceOnUse" gradientTransform="matrix(0,-184.682,59.195,0,504.701,693.182)">
			<stop offset=".243" stop-color="#49687e"/>
			<stop offset="1" stop-color="#dff1fd"/>
		</linearGradient>
		<linearGradient id="g6" x2="1" gradientUnits="userSpaceOnUse" gradientTransform="matrix(.002,-193.863,79.315,.001,544.162,690.014)">
			<stop offset=".243" stop-color="#49687e"/>
			<stop offset="1" stop-color="#dff1fd"/>
		</linearGradient>
		<linearGradient id="g7" x2="1" gradientUnits="userSpaceOnUse" gradientTransform="matrix(.003,-242.349,293.58,.004,-42.239,680.169)">
			<stop offset=".243" stop-color="#49687e"/>
			<stop offset="1" stop-color="#dff1fd"/>
		</linearGradient>
		<linearGradient id="g8" x2="1" gradientUnits="userSpaceOnUse" gradientTransform="matrix(.002,-149.253,180.803,.002,-34.723,567.495)">
			<stop offset=".243" stop-color="#49687e"/>
			<stop offset="1" stop-color="#dff1fd"/>
		</linearGradient>
		<linearGradient id="g9" x2="1" gradientUnits="userSpaceOnUse" gradientTransform="matrix(.007,-179.142,83.17,.003,-67.475,520.157)">
			<stop offset=".243" stop-color="#49687e"/>
			<stop offset="1" stop-color="#dff1fd"/>
		</linearGradient>
		<linearGradient id="g10" x2="1" gradientUnits="userSpaceOnUse" gradientTransform="matrix(131.314,0,0,297.108,202.289,334.223)">
			<stop offset=".191" stop-color="#47a2e9"/>
			<stop offset=".658" stop-color="#8abcf7"/>
		</linearGradient>
		<linearGradient id="g11" x2="1" gradientUnits="userSpaceOnUse" gradientTransform="matrix(-0.007,-132.301,375.266,-0.019,97.037,698.822)">
			<stop offset=".243" stop-color="#49687e"/>
			<stop offset="1" stop-color="#dff1fd"/>
		</linearGradient>
	</defs>
	<style>
		.s0 { fill: #dff1fd } 
		.s1 { fill: #c6e6fd } 
		.s2 { fill: url(#g1) } 
		.s3 { fill: none;stroke: #4089c1;stroke-linecap: round;stroke-miterlimit:10;stroke-width: 3.7 } 
		.s4 { fill: url(#g2) } 
		.s5 { fill: none;stroke: #b2c0ca;stroke-linecap: round;stroke-miterlimit:10;stroke-width: 1.8 } 
		.s6 { fill: url(#g3) } 
		.s7 { fill: url(#g4) } 
		.s8 { fill: url(#g5) } 
		.s9 { fill: none;stroke: #b2c0ca;stroke-linecap: round;stroke-miterlimit:10;stroke-width: 3.7 } 
		.s10 { fill: url(#g6) } 
		.s11 { fill: url(#g7) } 
		.s12 { fill: url(#g8) } 
		.s13 { fill: url(#g9) } 
		.s14 { fill: url(#g10) } 
		.s15 { fill: url(#g11) } 
		.s16 { fill: #0d2933 } 
		.s17 { opacity: .59;mix-blend-mode: screen;fill: #7fc8fd } 
		.s18 { opacity: .59;mix-blend-mode: screen;fill: #f0f8ff } 
		.s19 { fill: none;stroke: #174859;stroke-miterlimit:10;stroke-width: 11.1 } 
		.s20 { fill: #ff5d7b } 
		.s21 { fill: #f4b031 } 
		.s22 { fill: #e8a423 } 
		.s23 { fill: #f4c43e } 
		.s24 { fill: #facfc9 } 
		.s25 { fill: #174859 } 
		.s26 { fill: #aab9d8 } 
		.s27 { fill: #b4d3f7 } 
		.s28 { fill: #99c5f7 } 
		.s29 { fill: none;stroke: #c1deff;stroke-linejoin: round;stroke-width: 2.9 } 
		.s30 { fill: #e0eff2 } 
		.s31 { fill: #c1deff } 
		.s32 { mix-blend-mode: multiply;fill: #e0eff2 } 
		.s33 { fill: #164454 } 
		.s34 { fill: #ffffff } 
		.s35 { fill: #dfecf0 } 
		.s36 { fill: #66a1ed } 
		.s37 { fill: #8cbdf7 } 
		.s38 { fill: #0f2f3b } 
		.s39 { fill: #143e4d } 
		.s40 { fill: #cf2949 } 
		.s41 { fill: #ffd96e } 
		.s42 { fill: none;stroke: #fff8e6;stroke-linejoin: round;stroke-width: 1.1 } 
		.s43 { fill: #ffe69e } 
		.s44 { fill: none;stroke: #174859;stroke-miterlimit:10;stroke-width: 1.6 } 
		.s45 { fill: #cc3853 } 
		.s46 { fill: #5384c2 } 
		.s47 { fill: #e03d5b } 
		.s48 { fill: #abb5f3 } 
		.s49 { fill: #e0a880 } 
		.s50 { fill: #f8c29c } 
	</style>
	<g id="OBJECTS">
		<g id="&lt;Group&gt;">
			<g id="&lt;Group&gt;">
				<path id="&lt;Path&gt;" class="s0" d="m482.23 397.56c0.95-2.66 1.47-5.52 1.47-8.51 0-13.74-10.92-24.93-24.55-25.39-3.09-12.6-14.46-21.94-28.01-21.94q-1.13 0-2.24 0.09c-2.48-2.04-5.41-3.54-8.62-4.35-1.59-7.95-7.19-14.44-14.6-17.29q0.47-3.3 0.48-6.73c0-26.2-21.24-47.43-47.44-47.43-25.37 0-46.09 19.92-47.37 44.98-17.25 2.03-30.64 16.69-30.64 34.49q0.01 1.16 0.09 2.3c-9.42 1.21-16.71 9.24-16.71 18.99 0 7.41 4.22 13.83 10.38 17.01q-0.39 1.89-0.39 3.89c0 3.52 0.96 6.81 2.62 9.64h-0.41c-7.28 0-13.24 5.96-13.24 13.24 0 7.29 5.96 13.25 13.24 13.25h203.43c7.28 0 13.24-5.96 13.24-13.25 0-6.42-4.64-11.8-10.73-12.99z"/>
				<path id="&lt;Path&gt;" class="s0" d="m573.98 360.1c-0.72-2.03-1.12-4.21-1.12-6.48 0-10.48 8.32-19.01 18.71-19.35 2.36-9.6 11.02-16.73 21.35-16.73q0.86 0.01 1.7 0.07c1.89-1.55 4.13-2.69 6.58-3.31 1.21-6.06 5.47-11.01 11.12-13.18q-0.36-2.51-0.37-5.12c0-19.97 16.19-36.16 36.16-36.16 19.33 0 35.13 15.19 36.1 34.29 13.15 1.54 23.35 12.72 23.35 26.28q-0.01 0.88-0.07 1.76c7.18 0.92 12.73 7.03 12.73 14.46 0 5.65-3.21 10.54-7.91 12.97q0.3 1.44 0.3 2.96c0 2.69-0.73 5.19-2 7.35h0.31c5.55 0 10.09 4.54 10.09 10.09 0 5.55-4.54 10.1-10.09 10.1h-155.02c-5.55 0-10.09-4.55-10.09-10.1 0-4.89 3.53-9 8.17-9.9z"/>
				<path id="&lt;Path&gt;" class="s0" d="m470.34 216.06c-0.51-1.45-0.79-3.01-0.79-4.64 0-7.49 5.94-13.59 13.37-13.83 1.69-6.87 7.88-11.96 15.26-11.96q0.62 0 1.22 0.05c1.35-1.11 2.95-1.93 4.7-2.37 0.87-4.33 3.92-7.87 7.95-9.42q-0.26-1.8-0.26-3.66c0-14.28 11.57-25.85 25.85-25.85 13.82 0 25.11 10.86 25.81 24.51 9.4 1.1 16.69 9.09 16.69 18.79q0 0.63-0.05 1.25c5.14 0.66 9.1 5.04 9.1 10.35 0 4.04-2.29 7.53-5.65 9.27q0.21 1.03 0.21 2.12c0 1.91-0.52 3.71-1.42 5.25h0.22c3.96 0 7.21 3.25 7.21 7.21 0 3.97-3.25 7.22-7.21 7.22h-110.83c-3.97 0-7.22-3.25-7.22-7.22 0-3.49 2.53-6.43 5.84-7.07z"/>
				<path id="&lt;Path&gt;" class="s0" d="m634.29 528.35c-0.72-2.03-1.12-4.21-1.12-6.49 0-10.47 8.32-19 18.71-19.35 2.36-9.6 11.02-16.72 21.34-16.72q0.86 0 1.71 0.07c1.89-1.55 4.13-2.7 6.57-3.31 1.21-6.06 5.48-11.01 11.13-13.18q-0.36-2.51-0.37-5.13c0-19.96 16.19-36.15 36.15-36.15 19.34 0 35.13 15.19 36.11 34.28 13.14 1.55 23.34 12.72 23.34 26.29q0 0.88-0.06 1.75c7.18 0.92 12.73 7.04 12.73 14.47 0 5.65-3.22 10.54-7.91 12.97q0.3 1.44 0.3 2.96c0 2.68-0.74 5.19-2 7.35h0.31c5.55 0 10.09 4.54 10.09 10.09 0 5.55-4.54 10.09-10.09 10.09h-155.02c-5.56 0-10.1-4.54-10.1-10.09 0-4.89 3.54-9 8.18-9.9z"/>
				<path id="&lt;Path&gt;" class="s0" d="m123.05 597.66c-0.72-2.03-1.12-4.21-1.12-6.48 0-10.48 8.32-19 18.71-19.35 2.36-9.6 11.02-16.73 21.34-16.73q0.86 0.01 1.71 0.08c1.89-1.56 4.13-2.7 6.57-3.32 1.21-6.05 5.48-11 11.13-13.18q-0.36-2.51-0.37-5.12c0-19.97 16.19-36.15 36.15-36.15 19.34 0 35.13 15.18 36.11 34.28 13.14 1.54 23.34 12.72 23.34 26.28q0 0.89-0.06 1.76c7.18 0.92 12.73 7.04 12.73 14.46 0 5.65-3.22 10.55-7.91 12.97q0.3 1.44 0.3 2.96c0 2.69-0.74 5.19-2 7.35h0.31c5.55 0 10.09 4.54 10.09 10.09 0 5.55-4.54 10.1-10.09 10.1h-155.03c-5.55 0-10.09-4.55-10.09-10.1 0-4.89 3.54-8.99 8.18-9.9z"/>
			</g>
			<path id="&lt;Path&gt;" class="s1" d="m940.15 733.25c0 39.11-197.06 70.82-440.15 70.82-243.09 0-440.15-31.71-440.15-70.82 0-39.12 197.06-70.82 440.15-70.82 243.09 0 440.15 31.7 440.15 70.82z"/>
			<g id="&lt;Group&gt;">
				<g id="&lt;Group&gt;">
					<path id="&lt;Path&gt;" class="s2" d="m789.28 388.1c0 0-13.3-48.3-10.84-69.59 2.46-21.28 14.14-14.5 16.35 1.38 2.22 15.88 15.31 7.54 5.66-15.58-9.66-23.12 13.38-38.95 17.79-24.94 4.42 14-14.93 63.13-7.69 65.75 7.25 2.62 7.86-22.68 15.66-21.75 7.8 0.94 8.76 25.66-5.86 43.33-14.61 17.67-14.67 30.64-20.67 33.43-6 2.79-10.4-12.03-10.4-12.03z"/>
					<path id="&lt;Path&gt;" class="s3" d="m795.85 383.46c0 0-2.17-20.26 1.24-28.73 3.42-8.47 7.9-25.24 7.9-25.24"/>
					<path id="&lt;Path&gt;" class="s3" d="m796.31 356.86c0 0-7.01-12.88-6.06-18.46"/>
					<path id="&lt;Path&gt;" class="s3" d="m795.01 364.56c0.27 0.92 25.87-12.69 27.73-20.66"/>
				</g>
				<g id="&lt;Group&gt;">
					<path id="&lt;Path&gt;" class="s4" d="m766.58 451.97c0 0 4.33-36.53 25.2-60.66 20.87-24.12 34.1-27.35 34.1-27.35 0 0 12.32 30.36-13.04 63.1-25.35 32.73-59.08 59.01-46.26 24.91z"/>
					<path id="&lt;Path&gt;" class="s5" d="m764.61 467.06c0 0 42.01-59.27 54.99-94.38"/>
					<path id="&lt;Path&gt;" class="s5" d="m768.6 461.32c0 0 15.37-6.32 17.78-8.76"/>
					<path id="&lt;Path&gt;" class="s5" d="m777.25 419.46c-2.89 6.46 2.47 25.27 2.47 25.27 0 0 16.37-0.29 18.58-2.83"/>
					<path id="&lt;Path&gt;" class="s5" d="m790.39 428c0 0 11.34-0.73 17.32-2.72"/>
					<path id="&lt;Path&gt;" class="s5" d="m799.05 412.71c0 0 17.54 0.98 21.74-3.29"/>
					<path id="&lt;Path&gt;" class="s5" d="m794.71 420.37c0 0-6.17-19.5-2.71-24.7"/>
					<path id="&lt;Path&gt;" class="s5" d="m807.31 398.97c0 0 14.2-0.22 17.62-4.09"/>
					<path id="&lt;Path&gt;" class="s5" d="m811.42 391.07c0 0-3.84-8.35-2.46-10.62"/>
				</g>
				<g id="&lt;Group&gt;">
					<path id="&lt;Path&gt;" class="s6" d="m768.07 411.99c0 0-6.64-25.92 1.2-47.75 7.84-21.84 15.97-27.49 15.97-27.49 0 0 16.32 17.37 7.69 46.22-8.63 28.85-24.62 55.52-24.86 29.02z"/>
					<path id="&lt;Path&gt;" class="s5" d="m770.69 422.75c0 0 12.97-51.22 12.57-78.44"/>
					<path id="&lt;Path&gt;" class="s5" d="m771.89 417.81c0 0 8.78-8.32 9.77-10.61"/>
					<path id="&lt;Path&gt;" class="s5" d="m766.79 387.14c-0.27 5.15 8.3 16.5 8.3 16.5 0 0 11.03-4.49 11.86-6.79"/>
					<path id="&lt;Path&gt;" class="s5" d="m777.94 389.49c0 0 7.5-3.47 11.04-6.38"/>
					<path id="&lt;Path&gt;" class="s5" d="m779.81 376.85c0 0 12.16-3.93 13.89-7.93"/>
					<path id="&lt;Path&gt;" class="s5" d="m778.88 383.18c0 0-9.3-11.61-8.32-16.04"/>
					<path id="&lt;Path&gt;" class="s5" d="m781.81 365.36c0 0 9.58-3.87 10.89-7.39"/>
					<path id="&lt;Path&gt;" class="s5" d="m782.53 358.93c0 0-4.79-4.66-4.45-6.56"/>
				</g>
				<g id="&lt;Group&gt;">
					<path id="&lt;Path&gt;" class="s7" d="m754.98 594.2c0 0-39.05-83.73-41.13-123.21-2.08-39.47 21.25-30.72 30.16-2.53 8.92 28.2 30.17 9 5.49-30.07-24.68-39.08 12.34-74.95 24.68-50.84 12.34 24.1-7.71 119.41 6.27 121.95 13.97 2.53 7.29-43.68 21.77-44.38 14.48-0.69 23.83 43.97 2.69 80.61-21.13 36.63-17.25 60.22-27.3 67.14-10.06 6.93-22.63-18.67-22.63-18.67z"/>
					<path id="&lt;Path&gt;" class="s3" d="m765.5 583.74c0 0-10.18-36.18-6.58-52.63 3.6-16.45 6.58-48.33 6.58-48.33"/>
					<path id="&lt;Path&gt;" class="s3" d="m758.15 535.22c0 0-16.71-21.25-16.71-31.7"/>
					<path id="&lt;Path&gt;" class="s3" d="m758.15 549.63c0.78 1.6 43.15-31.03 44.07-46.11"/>
				</g>
				<g id="&lt;Group&gt;">
					<path id="&lt;Path&gt;" class="s8" d="m777.93 671.46c0 0-21.93-52.24-12.27-100.42 9.66-48.18 24.95-62.54 24.95-62.54 0 0 39.55 31.34 30.41 94.46-9.14 63.12-34.39 123.94-43.09 68.5z"/>
					<path id="&lt;Path&gt;" class="s9" d="m786.74 693.19c0 0 11.32-111.33 2.06-168.24"/>
					<path id="&lt;Path&gt;" class="s9" d="m787.73 682.47c0 0 15.81-20.14 17.18-25.24"/>
					<path id="&lt;Path&gt;" class="s9" d="m767.55 619.8c1.03 10.86 22.49 32 22.49 32 0 0 21.73-12.82 22.76-17.9"/>
					<path id="&lt;Path&gt;" class="s9" d="m791.64 621.27c0 0 14.64-9.59 21.16-16.79"/>
					<path id="&lt;Path&gt;" class="s9" d="m791.64 594.2c0 0 24.26-12 26.64-20.91"/>
					<path id="&lt;Path&gt;" class="s9" d="m791.64 607.75c0 0-23.06-21.44-22.38-31.03"/>
					<path id="&lt;Path&gt;" class="s9" d="m792.28 569.52c0 0 18.87-11.08 20.52-18.86"/>
					<path id="&lt;Path&gt;" class="s9" d="m791.79 555.81c0 0-11.47-8.27-11.34-12.37"/>
				</g>
				<g id="&lt;Group&gt;">
					<path id="&lt;Path&gt;" class="s10" d="m812.61 656.76c0 0-6.5-56.28 16.21-99.86 22.71-43.57 41.4-53.1 41.4-53.1 0 0 29.25 41.12 2.88 99.19-26.38 58.06-67.58 109.44-60.49 53.77z"/>
					<path id="&lt;Path&gt;" class="s9" d="m815.02 680.09c0 0 41.9-103.77 48.88-161"/>
					<path id="&lt;Path&gt;" class="s9" d="m818.96 670.07c0 0 20.79-14.94 23.53-19.45"/>
					<path id="&lt;Path&gt;" class="s9" d="m817.05 604.25c-2.04 10.72 12.68 37.01 12.68 37.01 0 0 24.43-6.26 26.84-10.85"/>
					<path id="&lt;Path&gt;" class="s9" d="m839.78 612.38c0 0 16.73-5.13 24.99-10.22"/>
					<path id="&lt;Path&gt;" class="s9" d="m847.33 586.38c0 0 26.64-4.76 31.4-12.65"/>
					<path id="&lt;Path&gt;" class="s9" d="m843.55 599.4c0 0-16.18-27.02-12.85-36.04"/>
					<path id="&lt;Path&gt;" class="s9" d="m854.82 562.86c0 0 21.2-5.37 24.96-12.39"/>
					<path id="&lt;Path&gt;" class="s9" d="m858.17 549.56c0 0-8.71-11.14-7.45-15.04"/>
				</g>
			</g>
			<g id="&lt;Group&gt;">
				<g id="&lt;Group&gt;">
					<path id="&lt;Path&gt;" class="s11" d="m405.43 642.49c0 0-82.23-22.83-130.17-79.21-47.95-56.39-50.66-87.88-50.66-87.88 0 0 73.97-17.51 140.06 52.2 66.1 69.72 114.45 156.34 40.77 114.89z"/>
					<path id="&lt;Path&gt;" class="s9" d="m439.36 652.35c0 0-121.08-117.29-196.99-159.45"/>
					<path id="&lt;Path&gt;" class="s9" d="m427.6 641.17c0 0-9.06-37.49-13.81-43.87"/>
					<path id="&lt;Path&gt;" class="s9" d="m334.66 606.54c13.8 8.92 58.83 3.27 58.83 3.27 0 0 5.13-37.65 0.08-43.6"/>
					<path id="&lt;Path&gt;" class="s9" d="m358.89 579.42c0 0 2.33-26.25-0.1-40.67"/>
					<path id="&lt;Path&gt;" class="s9" d="m326.89 554.16c0 0 8.45-39.88 0.13-51.01"/>
					<path id="&lt;Path&gt;" class="s9" d="m342.92 566.81c0 0-46.88 7.27-57.59-2.5"/>
					<path id="&lt;Path&gt;" class="s9" d="m298.3 530.37c0 0 4.52-32.64-3.14-41.85"/>
					<path id="&lt;Path&gt;" class="s9" d="m281.64 518.16c0 0-20.49 5.84-25.21 1.87"/>
				</g>
				<g id="&lt;Group&gt;">
					<path id="&lt;Path&gt;" class="s12" d="m240.98 544.29c0 0-50.64-14.06-80.17-48.78-29.53-34.73-31.2-54.12-31.2-54.12 0 0 45.56-10.79 86.26 32.15 40.7 42.93 70.48 96.28 25.11 70.75z"/>
					<path id="&lt;Path&gt;" class="s9" d="m261.87 550.36c0 0-74.56-72.23-121.32-98.2"/>
					<path id="&lt;Path&gt;" class="s9" d="m254.63 543.48c0 0-5.58-23.09-8.5-27.02"/>
					<path id="&lt;Path&gt;" class="s9" d="m197.4 522.15c8.49 5.49 36.23 2.02 36.23 2.02 0 0 3.15-23.19 0.04-26.86"/>
					<path id="&lt;Path&gt;" class="s9" d="m212.32 505.45c0 0 1.43-16.17-0.07-25.05"/>
					<path id="&lt;Path&gt;" class="s9" d="m192.61 489.89c0 0 5.2-24.56 0.08-31.41"/>
					<path id="&lt;Path&gt;" class="s9" d="m202.48 497.68c0 0-28.87 4.48-35.47-1.54"/>
					<path id="&lt;Path&gt;" class="s9" d="m175 475.24c0 0 2.78-20.1-1.94-25.77"/>
					<path id="&lt;Path&gt;" class="s9" d="m164.74 467.72c0 0-12.62 3.6-15.53 1.15"/>
				</g>
				<g id="&lt;Group&gt;">
					<path id="&lt;Path&gt;" class="s13" d="m224.95 496.27c0 0-37.7-36.62-46.96-81.25-9.26-44.63-1.42-62.45-1.42-62.45 0 0 45.15 12.38 60.28 69.58 15.12 57.19 15.67 118.29-11.9 74.12z"/>
					<path id="&lt;Path&gt;" class="s9" d="m240.37 511.62c0 0-30.79-99.14-59.37-144.35"/>
					<path id="&lt;Path&gt;" class="s9" d="m237.32 502.11c0 0 6.17-22.93 5.49-27.79"/>
					<path id="&lt;Path&gt;" class="s9" d="m197.32 455.95c4.82 8.9 30.83 19.14 30.83 19.14 0 0 13.88-18.83 12.92-23.54"/>
					<path id="&lt;Path&gt;" class="s9" d="m218.42 448.45c0 0 9.01-13.5 11.96-22.01"/>
					<path id="&lt;Path&gt;" class="s9" d="m208.59 425.34c0 0 16.34-19.05 15.14-27.52"/>
					<path id="&lt;Path&gt;" class="s9" d="m213.51 436.92c0 0-27.48-9.92-30.38-18.37"/>
					<path id="&lt;Path&gt;" class="s9" d="m200.16 404.05c0 0 12.08-16.31 10.66-23.55"/>
					<path id="&lt;Path&gt;" class="s9" d="m194.77 392.52c0 0-12.8-2.89-14.18-6.43"/>
				</g>
				<g id="&lt;Group&gt;">
					<path id="&lt;Path&gt;" class="s14" d="m254.6 606.15c0 0-49.52-106.17-52.15-156.22-2.64-50.05 26.95-38.96 38.25-3.21 11.3 35.75 38.24 11.41 6.95-38.14-31.29-49.55 15.65-95.03 31.29-64.46 15.65 30.56-9.76 151.42 7.95 154.63 17.72 3.22 9.26-55.38 27.61-56.26 18.36-0.89 30.22 55.75 3.42 102.2-26.8 46.45-21.88 76.36-34.63 85.14-12.75 8.78-28.69-23.68-28.69-23.68z"/>
					<path id="&lt;Path&gt;" class="s3" d="m267.95 592.89c0 0-12.91-45.87-8.35-66.73 4.57-20.87 8.35-61.29 8.35-61.29"/>
					<path id="&lt;Path&gt;" class="s3" d="m258.63 531.37c0 0-21.19-26.95-21.19-40.2"/>
					<path id="&lt;Path&gt;" class="s3" d="m258.63 549.64c0.98 2.02 54.7-39.35 55.87-58.47"/>
				</g>
				<g id="&lt;Group&gt;">
					<path id="&lt;Path&gt;" class="s15" d="m404.87 671.7c0 0-82.95 20.09-152.28-5.82-69.32-25.92-87.02-52.1-87.02-52.1 0 0 56.09-51.31 147.76-22.59 91.67 28.73 176.07 80.85 91.54 80.51z"/>
					<path id="&lt;Path&gt;" class="s9" d="m439.3 663.8c0 0-162.86-43.51-249.69-43.39"/>
					<path id="&lt;Path&gt;" class="s9" d="m423.59 659.76c0 0-26.16-28.34-33.42-31.6"/>
					<path id="&lt;Path&gt;" class="s9" d="m325.55 674.75c16.4 1.08 52.98-25.78 52.98-25.78 0 0-13.85-35.38-21.16-38.12"/>
					<path id="&lt;Path&gt;" class="s9" d="m333.51 639.27c0 0-10.75-24.07-19.89-35.48"/>
					<path id="&lt;Path&gt;" class="s9" d="m293.26 632.78c0 0-12.03-38.95-24.71-44.62"/>
					<path id="&lt;Path&gt;" class="s9" d="m313.42 636.03c0 0-37.42 29.17-51.52 25.85"/>
					<path id="&lt;Path&gt;" class="s9" d="m256.71 625.92c0 0-11.95-30.71-23.12-35.03"/>
					<path id="&lt;Path&gt;" class="s9" d="m236.21 623.36c0 0-15.06 15.08-21.11 13.91"/>
				</g>
			</g>
			<g id="&lt;Group&gt;">
				<path id="&lt;Path&gt;" class="s16" d="m252.13 647.41c-2.23-2.55-4.48-4.55-6.96-6.54q-3.68-2.95-7.79-5.38-4.1-2.44-8.69-4.29-1.13-0.47-2.32-0.87l-1.19-0.41c-0.44-0.14-0.65-0.25-1.41-0.43-2.59-0.73-5.31-0.81-7.76-0.52-2.47 0.3-4.7 0.97-6.65 1.8-1.97 0.82-3.73 1.79-5.32 2.82-3.21 2.07-5.83 4.37-8.27 6.73-2.41 2.37-4.58 4.83-6.58 7.37q-1.5 1.91-2.9 3.88l-1.39 2c-0.35 0.51-0.65 0.97-1 1.52q-5.93 7.23-11.76 14.54c-4 4.99-8 9.98-11.94 15.02q-5.95 7.53-11.8 15.14c-1.52 1.98-3.01 3.99-4.52 5.98v23.69c2.61 0.06 5.22-0.97 7.06-3.1q6.25-7.29 12.36-14.69 6.12-7.39 12.14-14.86c4.04-4.95 8.02-9.96 12-14.97q5.99-7.5 11.88-15.07l0.37-0.49 0.36-0.57 0.93-1.49 1.08-1.62q1.1-1.62 2.28-3.18c1.57-2.06 3.21-4.04 4.89-5.83 1.68-1.77 3.42-3.39 5.09-4.54 1.64-1.19 3.23-1.88 4.06-2 0.44-0.08 0.69-0.12 0.93-0.06-0.05-0.05 0.43 0.1 0.68 0.17l0.91 0.24c0.6 0.15 1.2 0.36 1.82 0.54q3.66 1.1 7.43 2.51 3.76 1.39 7.62 2.92c2.54 0.99 5.21 2.12 7.71 2.99l0.51 0.18c1.87 0.65 4.02 0.3 5.61-1.1 2.37-2.07 2.6-5.66 0.53-8.03z"/>
				<path id="&lt;Path&gt;" class="s16" d="m415.67 634.11q-0.28-1.61-0.88-3.1c-0.79-1.98-1.98-3.63-3.23-4.94-1.24-1.34-2.56-2.36-3.87-3.21-1.31-0.87-2.6-1.5-3.89-2.07q-0.96-0.42-1.91-0.75l-0.95-0.33-1.24-0.33c-3.31-0.86-6.91-0.91-10.13-0.29-3.26 0.59-6.15 1.75-8.69 3.13-2.56 1.36-4.78 2.97-6.77 4.68-2.01 1.7-3.79 3.5-5.47 5.37q-1.24 1.41-2.4 2.89l-1.15 1.51c-0.41 0.56-0.7 0.98-1.21 1.78l-0.63 0.97-0.4 1.23c-3.69 11.38-7.36 22.77-10.92 34.2l-4.8 15.62v29.7q0.05 0.02 0.1 0.04c4.69 1.68 9.86-0.76 11.54-5.45q3.02-8.46 5.93-16.95l5.71-17.02c3.62-10.92 7.14-21.88 10.64-32.85l0.69-0.97q0.75-1.04 1.57-2.03c1.1-1.31 2.25-2.54 3.42-3.61 2.35-2.13 4.75-3.69 6.53-4.12 0.9-0.26 1.62-0.31 2.41-0.19l0.3 0.04 0.56 0.13c0.39 0.08 0.72 0.19 1.08 0.27 0.69 0.17 1.35 0.35 1.88 0.51 1.13 0.31 1.71 0.53 2.11 0.26 0.19-0.11 0.44-0.29 0.77-0.27 0.14 0.01 0.33 0.07 0.49 0.17l0.26 0.17q0.07 0.05 0.14 0.08 0.03 0 0.08 0c0.05-0.03 0.04 0.05 0.18-0.17-1.38 2.75-0.28 6.11 2.48 7.49 2.75 1.38 6.1 0.27 7.48-2.48l0.57-0.89 0.38-0.68q0.37-0.66 0.62-1.36c0.34-0.94 0.61-1.94 0.69-2.98q0.16-1.58-0.07-3.2z"/>
				<path id="&lt;Path&gt;" class="s17" d="m160.54 678.97c-9.16 0-16.66 7.5-16.66 16.66v18.91l35.57-35.57z"/>
				<path id="&lt;Path&gt;" class="s17" d="m209.46 678.97h-16.98l-48.6 48.6v6.6c0 7.18 4.61 13.32 11.02 15.65l66.13-66.13c-3-2.91-7.08-4.72-11.57-4.72z"/>
				<path id="&lt;Path&gt;" class="s18" d="m226.12 695.63c0-4.68-1.96-8.91-5.09-11.94l-66.13 66.13c1.76 0.64 3.66 1.01 5.64 1.01h21.67l43.91-43.91z"/>
				<path id="&lt;Path&gt;" class="s17" d="m182.21 750.83h27.25c9.16 0 16.66-7.5 16.66-16.66v-27.25z"/>
				<path id="&lt;Path&gt;" class="s18" d="m179.45 678.97l-35.57 35.57v13.03l48.6-48.6z"/>
				<path id="&lt;Path&gt;" class="s17" d="m284.61 678.97c-9.17 0-16.66 7.5-16.66 16.66v19.81l36.46-36.47z"/>
				<path id="&lt;Path&gt;" class="s18" d="m304.41 678.97l-36.46 36.47v9.89l46.35-46.36z"/>
				<path id="&lt;Path&gt;" class="s17" d="m333.52 678.97h-19.22l-46.35 46.36v8.84c0 6.82 4.14 12.7 10.04 15.28l66.4-66.41c-2.93-2.53-6.72-4.07-10.87-4.07z"/>
				<path id="&lt;Path&gt;" class="s18" d="m350.18 695.63c0-5.02-2.25-9.52-5.79-12.59l-66.4 66.41c2.03 0.88 4.27 1.38 6.62 1.38h17.16l48.41-48.41z"/>
				<path id="&lt;Path&gt;" class="s17" d="m301.77 750.83h31.75c9.17 0 16.66-7.5 16.66-16.66v-31.75z"/>
				<path id="&lt;Path&gt;" class="s19" d="m209.46 750.83h-48.92c-9.16 0-16.66-7.5-16.66-16.66v-38.54c0-9.16 7.5-16.66 16.66-16.66h48.92c9.16 0 16.66 7.5 16.66 16.66v38.54c0 9.16-7.5 16.66-16.66 16.66z"/>
				<path id="&lt;Path&gt;" class="s19" d="m333.52 750.83h-48.91c-9.17 0-16.66-7.5-16.66-16.66v-38.54c0-9.16 7.49-16.66 16.66-16.66h48.91c9.17 0 16.66 7.5 16.66 16.66v38.54c0 9.16-7.49 16.66-16.66 16.66z"/>
				<path id="&lt;Path&gt;" class="s19" d="m226.12 710.59c0 0 22.19-24 41.83 0"/>
			</g>
			<g id="&lt;Group&gt;">
				<g id="&lt;Group&gt;">
					<path id="&lt;Path&gt;" class="s20" d="m648.23 647.91c4.63 3.59 11.95 7.72 21.82 8.7 4.7 0.46 9.16-2.24 10.92-6.63l4.3-10.74c-23.57 1.95-36-14.42-36-14.42l-4.32 10.81c-1.75 4.37-0.45 9.41 3.28 12.28z"/>
					<path id="&lt;Path&gt;" class="s21" d="m719.37 478.23l-58.71 146.6 13.53 5.41 58.71-146.6z"/>
					<path id="&lt;Path&gt;" class="s22" d="m745.55 488.71l-12.65-5.07-58.71 146.6 12.65 5.07z"/>
					<path id="&lt;Path&gt;" class="s23" d="m709.55 474.3l-58.7 146.6 9.81 3.93 58.71-146.6z"/>
					<path id="&lt;Path&gt;" class="s24" d="m709.55 474.3l30.58-24.21 5.42 38.62c0 0-19.25 4.45-36-14.41z"/>
					<path id="&lt;Path&gt;" class="s25" d="m728.67 459.16c4.81 3.12 9.48 4.79 13.53 5.64l-2.07-14.71z"/>
					<path id="&lt;Path&gt;" class="s25" d="m647.28 629.81c0 0 12.43 16.37 35.99 14.41l6.98-17.42c-23.57 1.96-36-14.41-36-14.41z"/>
				</g>
				<g id="&lt;Group&gt;">
					<path id="&lt;Path&gt;" class="s20" d="m660.17 672.79c3.56 4.66 9.56 10.54 18.83 14.03 4.43 1.67 9.43 0.21 12.26-3.57l6.94-9.27c-23.27-4.21-31.05-23.23-31.05-23.23l-6.97 9.32c-2.82 3.77-2.86 8.97-0.01 12.72z"/>
					<path id="&lt;Path&gt;" class="s21" d="m772.75 527.25l-94.6 126.45 11.67 8.73 94.6-126.45z"/>
					<path id="&lt;Path&gt;" class="s22" d="m795.33 544.15l-10.91-8.17-94.6 126.45 10.91 8.16z"/>
					<path id="&lt;Path&gt;" class="s23" d="m764.29 520.92l-94.6 126.44 8.46 6.34 94.6-126.45z"/>
					<path id="&lt;Path&gt;" class="s24" d="m764.29 520.92l35.79-15.48-4.75 38.71c0 0-19.74-0.69-31.04-23.23z"/>
					<path id="&lt;Path&gt;" class="s25" d="m786.67 511.24c3.84 4.26 7.92 7.08 11.6 8.94l1.81-14.74z"/>
					<path id="&lt;Path&gt;" class="s25" d="m663.93 655.05c0 0 7.78 19.02 31.05 23.23l11.24-15.03c-23.27-4.2-31.04-23.23-31.04-23.23z"/>
				</g>
			</g>
			<g id="&lt;Group&gt;">
				<g id="&lt;Group&gt;">
					<path id="&lt;Path&gt;" class="s26" d="m884.67 678.65l-12.16 45.22c-1.12 4.17-5.45 6.66-9.62 5.54-4.17-1.12-6.67-5.45-5.55-9.62l12.16-45.22c1.12-4.17 5.45-6.67 9.62-5.54 4.17 1.12 6.67 5.45 5.55 9.62z"/>
					<path id="&lt;Path&gt;" class="s27" d="m743.86 589.74c-39.69-10.66-80.55 13.67-89.79 54.11-8.51 37.24 13.86 75.24 50.54 85.93 19.38 5.65 39.12 2.87 55.43-6.11 8.59-4.74 18.63-6.13 28.11-3.58l8.63 2.31c15.84 4.26 32.13-5.13 36.39-20.97l6.21-23.09c4.26-15.84-5.14-32.14-20.98-36.4l-8.63-2.31c-9.44-2.54-17.44-8.73-22.47-17.12-9.36-15.57-24.51-27.68-43.44-32.77z"/>
					<path id="&lt;Path&gt;" class="s28" d="m715.07 587.93c5.26 0.06 10.6 0.77 15.92 2.2 16.73 4.5 30.12 15.2 38.39 28.96 4.45 7.42 11.52 12.88 19.87 15.13l7.62 2.05c14 3.76 22.31 18.16 18.54 32.17l-5.48 20.4c-3.77 14.01-18.17 22.31-32.17 18.54l-7.62-2.04c-8.38-2.26-17.26-1.03-24.86 3.16-14.4 7.94-31.86 10.39-48.99 5.4-20.78-6.05-36.35-22.05-42.88-41.42 4.73 26.48 24.03 49.39 51.2 57.3 19.38 5.65 39.12 2.87 55.43-6.11 8.59-4.74 18.63-6.13 28.11-3.58l8.63 2.31c15.84 4.26 32.13-5.13 36.39-20.97l6.21-23.09c4.26-15.84-5.14-32.14-20.98-36.4l-8.63-2.31c-9.44-2.54-17.44-8.73-22.47-17.12-9.36-15.57-24.51-27.68-43.44-32.77-9.69-2.6-19.44-3.1-28.79-1.81z"/>
					<path id="&lt;Path&gt;" class="s29" d="m825.41 704.53l-85.07-22.87c0 0 10.46 0.29 8.3-8.38-2.16-8.67-23.64-1.38-12.17 2.03 11.46 3.42 24.49-12.87 12.2-21.23-12.28-8.35-19.9 10.83-1.98 7.05 17.91-3.78 3.71-16.92 3.71-16.92l85.08 22.87"/>
					<path id="&lt;Path&gt;" class="s30" d="m855.47 664.79l-15.17 56.43c-1.4 5.21-6.81 8.32-12.01 6.92-5.21-1.4-8.32-6.8-6.92-12.01l15.16-56.43c1.4-5.21 6.81-8.32 12.01-6.92 5.21 1.4 8.33 6.8 6.93 12.01z"/>
					<path id="&lt;Path&gt;" class="s30" d="m863.14 666.85l-15.16 56.43c-1.4 5.21-6.81 8.32-12.01 6.93-5.21-1.4-8.33-6.81-6.93-12.02l15.17-56.43c1.4-5.2 6.8-8.32 12.01-6.92 5.21 1.4 8.32 6.81 6.92 12.01z"/>
					<path id="&lt;Path&gt;" class="s30" d="m870.82 668.92l-15.17 56.43c-1.4 5.2-6.8 8.32-12.01 6.92-5.21-1.4-8.32-6.81-6.92-12.01l15.17-56.43c1.4-5.21 6.8-8.32 12.01-6.92 5.2 1.39 8.32 6.8 6.92 12.01z"/>
					<path id="&lt;Path&gt;" class="s30" d="m878.5 670.98l-15.17 56.43c-1.4 5.21-6.81 8.32-12.01 6.92-5.21-1.4-8.32-6.8-6.92-12.01l15.16-56.43c1.4-5.21 6.81-8.32 12.01-6.92 5.21 1.4 8.33 6.8 6.93 12.01z"/>
					<path id="&lt;Path&gt;" class="s26" d="m848.21 660.45l-16.36 60.88c-1.51 5.62-7.34 8.98-12.96 7.47-5.62-1.51-8.98-7.34-7.47-12.96l16.36-60.88c1.51-5.61 7.35-8.97 12.96-7.46 5.62 1.51 8.98 7.34 7.47 12.95z"/>
					<path id="&lt;Path&gt;" class="s31" d="m709.13 626.4c-1.79 6.68-8.72 10.67-15.4 8.88l-6.26-1.69c-6.67-1.79-10.66-8.72-8.87-15.39 1.79-6.68 8.72-10.67 15.39-8.87l6.27 1.68c6.67 1.79 10.66 8.72 8.87 15.39z"/>
					<path id="&lt;Path&gt;" class="s31" d="m733.63 629.84c-1.36 5.06-6.61 8.09-11.67 6.73-5.06-1.36-8.09-6.62-6.73-11.67 1.36-5.06 6.61-8.09 11.67-6.73 5.06 1.36 8.09 6.61 6.73 11.67z"/>
				</g>
				<path id="&lt;Path&gt;" class="s32" d="m880.36 669.5l-7.85 29.21c-1.12 4.17-5.45 6.67-9.62 5.54q-0.15-0.05-0.29-0.11c-2.05 4.04-6.74 6.25-11.28 5.03-1.37-0.36-2.58-1.01-3.62-1.85-1.32 0.21-2.69 0.16-4.06-0.21-1.36-0.37-2.58-1.01-3.61-1.86-1.32 0.21-2.7 0.17-4.06-0.2-1.37-0.37-2.59-1.02-3.62-1.86-1.32 0.21-2.7 0.16-4.06-0.21q-0.67-0.18-1.29-0.45c-2.37 1.39-5.27 1.88-8.11 1.11-3.34-0.89-5.86-3.32-7.06-6.31q-3.01 0.78-6.18 0.92c-2.92 0.11-5.9-0.2-8.87-1l-8.63-2.32q-1.78-0.48-3.57-0.77c-7.2-1.18-14.56-0.18-21.26 2.73q-1.67 0.73-3.28 1.62c-5.1 2.81-10.53 5.01-16.18 6.54q-3.39 0.91-6.88 1.5c-4.65 0.78-9.4 1.12-14.21 0.97q-3.61-0.12-7.25-0.6-5.46-0.71-10.91-2.3-2.27-0.67-4.45-1.47-0.56-0.21-1.11-0.42-2.07-0.78-4.07-1.68-0.11-0.05-0.22-0.1-2.09-0.97-4.11-2.06-0.48-0.26-0.96-0.53-1.87-1.04-3.66-2.18-0.14-0.08-0.27-0.16-1.93-1.26-3.77-2.62-0.38-0.29-0.76-0.57-1.71-1.3-3.34-2.69-0.11-0.1-0.22-0.19-1.76-1.53-3.41-3.16-0.27-0.26-0.53-0.52-1.57-1.57-3.04-3.23-0.06-0.07-0.12-0.14-1.57-1.79-3.02-3.68-0.15-0.2-0.3-0.39-1.41-1.85-2.7-3.79-0.01-0.03-0.03-0.05-1.35-2.04-2.57-4.17-0.05-0.09-0.1-0.19c-4.11-7.24-6.99-15.17-8.45-23.45-3.07 17.13 0.29 34.24 8.45 48.61q0.05 0.09 0.1 0.19 1.22 2.13 2.57 4.17 0.02 0.02 0.03 0.05 1.29 1.93 2.7 3.79 0.15 0.19 0.3 0.38 1.45 1.89 3.02 3.69 0.06 0.06 0.12 0.13 1.47 1.66 3.04 3.23 0.26 0.27 0.53 0.53 1.65 1.63 3.41 3.16 0.11 0.09 0.22 0.18 1.63 1.4 3.34 2.69 0.38 0.29 0.76 0.57 1.84 1.37 3.77 2.62 0.13 0.09 0.27 0.17 1.79 1.14 3.66 2.18 0.48 0.27 0.96 0.53 2.02 1.09 4.11 2.06 0.11 0.05 0.22 0.1 2 0.9 4.07 1.68 0.55 0.21 1.11 0.41 2.18 0.81 4.45 1.48 5.45 1.58 10.91 2.3 3.64 0.48 7.25 0.59c4.81 0.15 9.56-0.18 14.21-0.96q3.49-0.59 6.88-1.51c5.65-1.52 11.08-3.72 16.18-6.53q1.61-0.89 3.28-1.62c6.7-2.92 14.06-3.91 21.26-2.73q1.79 0.29 3.57 0.77l8.63 2.31c2.97 0.8 5.95 1.12 8.87 1.01q3.17-0.14 6.18-0.92c1.2 2.99 3.72 5.41 7.06 6.31 2.84 0.77 5.74 0.28 8.11-1.12q0.62 0.28 1.29 0.46c1.36 0.37 2.74 0.42 4.06 0.21 1.03 0.84 2.25 1.49 3.62 1.86 1.36 0.36 2.74 0.41 4.06 0.2 1.03 0.84 2.25 1.49 3.61 1.86 1.37 0.37 2.74 0.42 4.06 0.2 1.04 0.85 2.25 1.5 3.62 1.86 4.54 1.22 9.23-0.99 11.28-5.03q0.14 0.06 0.29 0.11c4.17 1.12 8.5-1.37 9.62-5.54l12.16-45.22c1-3.73-0.91-7.58-4.31-9.15z"/>
			</g>
			<g id="&lt;Group&gt;">
				<g id="&lt;Group&gt;">
					<path id="&lt;Path&gt;" class="s33" d="m425.01 650.12c0 0 5.18-6.91 24.18-8.63 19.01-1.73 162.4 0 162.4 0 0 0 8.64 1.72 13.83 8.63 5.18 6.91 53.55 69.11 53.55 69.11 0 0 6.91 8.64 0 13.82-6.91 5.19-285.06 0-285.06 0 0 0-15.55 1.73-8.64-10.36 6.91-12.1 39.74-72.57 39.74-72.57z"/>
					<g id="&lt;Group&gt;">
						<path id="&lt;Path&gt;" class="s34" d="m393.91 686.4v36.29h272.97v-36.29z"/>
					</g>
					<path id="&lt;Path&gt;" class="s33" d="m425.01 610.39c0 0 5.18-6.91 24.18-8.64 19.01-1.73 162.4 0 162.4 0 0 0 8.64 1.73 13.83 8.64 5.18 6.91 53.55 69.1 53.55 69.1 0 0 6.91 8.64 0 13.83-6.91 5.18-285.06 0-285.06 0 0 0-15.55 1.72-8.64-10.37 6.91-12.09 39.74-72.56 39.74-72.56z"/>
					<g id="&lt;Group&gt;">
						<path id="&lt;Path&gt;" class="s35" d="m666.88 700.23h-272.97v-1.73h272.97z"/>
						<path id="&lt;Path&gt;" class="s35" d="m666.88 705.41h-272.97v-1.73h272.97z"/>
						<path id="&lt;Path&gt;" class="s35" d="m666.88 710.59h-272.97v-1.73h272.97z"/>
						<path id="&lt;Path&gt;" class="s35" d="m666.88 715.78h-272.97v-1.73h272.97z"/>
						<path id="&lt;Path&gt;" class="s35" d="m666.88 720.96h-272.97v-1.73h272.97z"/>
					</g>
				</g>
				<g id="&lt;Group&gt;">
					<path id="&lt;Path&gt;" class="s36" d="m426.05 602.33c0 0 4.81-6.42 22.47-8.03 17.66-1.61 150.89 0 150.89 0 0 0 8.03 1.61 12.84 8.03 4.82 6.42 49.77 64.2 49.77 64.2 0 0 6.42 8.03 0 12.85-6.43 4.81-264.86 0-264.86 0 0 0-14.45 1.6-8.03-9.64 6.42-11.23 36.92-67.41 36.92-67.41z"/>
					<g id="&lt;Group&gt;">
						<path id="&lt;Path&gt;" class="s34" d="m397.16 636.04v33.71h253.62v-33.71z"/>
					</g>
					<path id="&lt;Path&gt;" class="s37" d="m426.05 565.41c0 0 4.81-6.42 22.47-8.03 17.66-1.6 150.89 0 150.89 0 0 0 8.03 1.61 12.84 8.03 4.82 6.42 49.77 64.2 49.77 64.2 0 0 6.42 8.03 0 12.85-6.43 4.81-264.86 0-264.86 0 0 0-14.45 1.6-8.03-9.63 6.42-11.24 36.92-67.42 36.92-67.42z"/>
					<g id="&lt;Group&gt;">
						<path id="&lt;Path&gt;" class="s35" d="m650.78 648.88h-253.62v-1.61h253.62z"/>
						<path id="&lt;Path&gt;" class="s35" d="m650.78 653.69h-253.62v-1.6h253.62z"/>
						<path id="&lt;Path&gt;" class="s35" d="m650.78 658.51h-253.62v-1.61h253.62z"/>
						<path id="&lt;Path&gt;" class="s35" d="m650.78 663.32h-253.62v-1.6h253.62z"/>
						<path id="&lt;Path&gt;" class="s35" d="m650.78 668.14h-253.62v-1.61h253.62z"/>
					</g>
				</g>
			</g>
			<g id="&lt;Group&gt;">
				<path id="&lt;Path&gt;" class="s20" d="m609.66 760.85c1.85-7.07 3.02-17.49-0.67-29.28-1.77-5.62-7.04-9.42-12.93-9.29l-14.43 0.31c13.74 26.08 1.03 48.32 1.03 48.32l14.51-0.31c5.87-0.12 11.01-4.08 12.49-9.75z"/>
				<path id="&lt;Path&gt;" class="s21" d="m380.3 762.03l196.81-4.18-0.39-18.16-196.81 4.19z"/>
				<path id="&lt;Path&gt;" class="s22" d="m379.55 726.89l0.36 16.99 196.81-4.19-0.36-16.99z"/>
				<path id="&lt;Path&gt;" class="s23" d="m380.58 775.21l196.81-4.19-0.28-13.18-196.81 4.19z"/>
				<path id="&lt;Path&gt;" class="s24" d="m380.58 775.21l-42.69-23.26 41.66-25.06c0 0 14.49 19.91 1.03 48.32z"/>
				<path id="&lt;Path&gt;" class="s25" d="m353.88 760.67c1.24-7.04 0.88-13.21-0.12-18.27l-15.87 9.55z"/>
				<path id="&lt;Path&gt;" class="s25" d="m589.36 770.77c0 0 12.71-22.25-1.03-48.32l-23.39 0.49c13.74 26.08 1.03 48.33 1.03 48.33z"/>
			</g>
			<g id="&lt;Group&gt;">
				<g id="&lt;Group&gt;">
					<path id="&lt;Path&gt;" class="s38" d="m613.46 593.15c0 15.53-40.04 28.12-89.44 28.12-49.4 0-89.44-12.59-89.44-28.12 0-15.54 40.04-28.13 89.44-28.13 49.4 0 89.44 12.59 89.44 28.13z"/>
					<path id="&lt;Path&gt;" class="s35" d="m613.46 544.4c0 13.11-40.04 23.74-89.44 23.74-49.4 0-89.44-10.63-89.44-23.74 0-13.11 40.04-23.75 89.44-23.75 49.4 0 89.44 10.64 89.44 23.75z"/>
					<path id="&lt;Path&gt;" class="s38" d="m613.46 544.4v48.75h-178.88v-48.75z"/>
					<path id="&lt;Path&gt;" class="s39" d="m531.14 498.49c0 0-174.13 44.33-172.54 44.33 1.58 0 158.3 53.82 166.21 55.4 7.92 1.58 156.72-45.91 163.05-49.07 6.33-3.17-150.38-52.24-156.72-50.66z"/>
					<path id="&lt;Path&gt;" class="s39" d="m687.86 549.15v-4.75l-329.26-6.33v4.75z"/>
					<path id="&lt;Path&gt;" class="s25" d="m531.14 493.74c0 0-174.13 44.33-172.54 44.33 1.58 0 158.3 53.82 166.21 55.4 7.92 1.59 156.72-45.9 163.05-49.07 6.33-3.17-150.38-52.24-156.72-50.66z"/>
				</g>
				<path id="&lt;Path&gt;" class="s38" d="m523.32 538.76v6.96l-159.67-1.32c0 0-4.49 0.68-6.17 6.98-1.68 6.3 1.12 35.76 1.12 35.76 0 0-4.95 6.16-7.85-2.38-2.9-8.55 0-40.36 0-40.36 0 0 1.84-6.43 10.18-5.64 8.34 0.8 162.39 0 162.39 0z"/>
				<path id="&lt;Path&gt;" class="s38" d="m350.57 589.29c0 0-7.18 5.66-3.64 13.93 3.53 8.27 3.53 8.27 3.53 8.27l0.11-2.51 4.29 4.29 1.39-4.29 1.88 5.63c0 0 12.67-13.84-0.66-26.46 0 0-4.19-1.99-6.9 1.14z"/>
				<path id="&lt;Path&gt;" class="s23" d="m538.96 541.86c0 2.1-5.17 3.79-11.54 3.79-6.37 0-11.53-1.69-11.53-3.79 0-2.09 5.16-3.79 11.53-3.79 6.37 0 11.54 1.7 11.54 3.79z"/>
				<path id="&lt;Path&gt;" class="s23" d="m358.71 588.15c0 2.55-2.07 4.62-4.63 4.62-2.55 0-4.62-2.07-4.62-4.62 0-2.56 2.07-4.63 4.62-4.63 2.56 0 4.63 2.07 4.63 4.63z"/>
			</g>
			<g id="&lt;Group&gt;">
				<path id="&lt;Path&gt;" class="s40" d="m505.64 338.88c0 0 0.51 4.1-4.66 9.33-5.17 5.24-7.12 25.42 17.47 18.04 24.58-7.38 5.37-33.88-12.81-27.37z"/>
				<path id="&lt;Path&gt;" class="s36" d="m506.47 366.79c0 0 10.75-4.3 20.12-2.54 0 0 4.03 12.71-2.15 17.04-6.17 4.32-20.68-1.24-17.97-14.5z"/>
				<g id="&lt;Group&gt;">
					<g id="&lt;Group&gt;">
						<path id="&lt;Path&gt;" class="s26" d="m434.87 245.9l-17.71 4.32c-1.64 0.4-3.3-0.61-3.7-2.25-0.4-1.63 0.62-3.29 2.25-3.69l17.71-4.32c1.63-0.4 3.3 0.62 3.69 2.25 0.4 1.63-0.61 3.3-2.24 3.69z"/>
						<path id="&lt;Path&gt;" class="s41" d="m438.86 181.2c-3.78-15.55-19.74-24.94-35.27-20.53-14.31 4.07-23.09 18.82-19.88 33.34 1.7 7.67 6.35 13.89 12.46 17.78 3.23 2.04 5.58 5.21 6.49 8.92l0.82 3.38c1.51 6.21 7.77 10.01 13.97 8.5l9.05-2.2c6.2-1.51 10.01-7.77 8.5-13.98l-0.83-3.37c-0.9-3.7-0.28-7.59 1.64-10.88 3.56-6.11 4.86-13.55 3.05-20.96z"/>
						<path id="&lt;Path&gt;" class="s23" d="m434.1 171.03q1.45 2.72 2.22 5.85c1.6 6.55 0.45 13.12-2.7 18.52-1.7 2.91-2.24 6.35-1.44 9.62l0.72 2.98c1.34 5.49-2.02 11.02-7.51 12.35l-7.99 1.95c-5.49 1.33-11.01-2.03-12.35-7.51l-0.73-2.99c-0.8-3.28-2.88-6.08-5.73-7.89-5.41-3.43-9.51-8.93-11.01-15.71-1.83-8.23 0.72-16.54 6.11-22.39-8.15 6.57-12.36 17.44-9.98 28.2 1.7 7.67 6.35 13.89 12.46 17.78 3.23 2.04 5.58 5.21 6.49 8.92l0.82 3.38c1.51 6.21 7.77 10.01 13.97 8.5l9.05-2.2c6.2-1.51 10.01-7.77 8.5-13.98l-0.83-3.37c-0.9-3.7-0.28-7.59 1.64-10.88 3.56-6.11 4.86-13.55 3.05-20.96-0.92-3.8-2.57-7.22-4.76-10.17z"/>
						<path id="&lt;Path&gt;" class="s42" d="m414.94 230.52l-8.11-33.32c0 0 1.86 3.62 4.41 1.26 2.56-2.36-3.95-8.32-2.97-3.77 0.98 4.55 8.98 5.95 9.53 0.19 0.55-5.75-7.42-4.76-2.78 0.64 4.65 5.41 6.47-1.9 6.47-1.9l8.12 33.33"/>
						<path id="&lt;Path&gt;" class="s30" d="m434.13 233.34l-22.1 5.39c-2.04 0.49-4.11-0.77-4.61-2.81-0.5-2.04 0.77-4.11 2.81-4.61l22.1-5.38c2.04-0.5 4.11 0.76 4.61 2.8 0.5 2.04-0.77 4.12-2.81 4.61z"/>
						<path id="&lt;Path&gt;" class="s30" d="m434.87 236.35l-22.11 5.38c-2.04 0.5-4.11-0.76-4.61-2.8-0.49-2.04 0.77-4.12 2.81-4.61l22.1-5.39c2.04-0.49 4.11 0.77 4.61 2.81 0.5 2.04-0.76 4.11-2.8 4.61z"/>
						<path id="&lt;Path&gt;" class="s30" d="m435.6 239.36l-22.1 5.38c-2.04 0.5-4.12-0.76-4.61-2.8-0.5-2.04 0.76-4.12 2.8-4.62l22.1-5.38c2.04-0.5 4.12 0.77 4.61 2.81 0.5 2.03-0.76 4.11-2.8 4.61z"/>
						<path id="&lt;Path&gt;" class="s30" d="m436.33 242.36l-22.1 5.39c-2.04 0.49-4.12-0.77-4.61-2.81-0.5-2.04 0.76-4.11 2.8-4.61l22.1-5.38c2.04-0.5 4.12 0.76 4.62 2.8 0.49 2.04-0.77 4.12-2.81 4.61z"/>
						<path id="&lt;Path&gt;" class="s26" d="m434.26 230.05l-23.85 5.81c-2.2 0.54-4.44-0.82-4.97-3.02-0.54-2.2 0.82-4.44 3.02-4.98l23.85-5.81c2.2-0.53 4.44 0.83 4.97 3.03 0.54 2.2-0.82 4.44-3.02 4.97z"/>
						<path id="&lt;Path&gt;" class="s43" d="m419.85 176.2c-2.61 0.64-5.27-0.98-5.91-3.59l-0.6-2.45c-0.64-2.62 0.98-5.28 3.6-5.91 2.61-0.64 5.27 0.98 5.91 3.59l0.59 2.45c0.64 2.62-0.98 5.28-3.59 5.91z"/>
						<path id="&lt;Path&gt;" class="s43" d="m423.26 185.21c-1.98 0.48-4-0.74-4.48-2.73-0.48-1.98 0.74-3.99 2.73-4.48 1.98-0.48 3.99 0.75 4.48 2.73 0.48 1.98-0.75 4-2.73 4.48z"/>
					</g>
					<path id="&lt;Path&gt;" class="s32" d="m437.19 242.72l-11.44 2.79c-1.64 0.4-3.3-0.61-3.7-2.25q-0.01-0.06-0.02-0.12c-1.76 0.06-3.39-1.13-3.82-2.91q-0.19-0.81-0.05-1.58-0.48-0.62-0.69-1.42-0.19-0.81-0.04-1.58-0.49-0.62-0.69-1.43-0.19-0.81-0.04-1.58-0.49-0.62-0.69-1.43-0.06-0.26-0.09-0.52c-0.92-0.55-1.62-1.45-1.9-2.56-0.31-1.31 0.04-2.62 0.84-3.59q-0.83-0.89-1.47-1.94-0.89-1.47-1.32-3.22l-0.82-3.38q-0.17-0.69-0.41-1.36c-0.94-2.68-2.66-5-4.91-6.74q-0.56-0.44-1.17-0.82-2.88-1.83-5.26-4.3-0.94-0.99-1.8-2.07-1.71-2.16-2.99-4.67-0.64-1.25-1.15-2.58-0.78-2-1.26-4.16-0.19-0.9-0.33-1.8-0.03-0.22-0.06-0.45-0.12-0.86-0.19-1.71-0.01-0.04-0.01-0.09-0.06-0.9-0.06-1.79-0.01-0.21 0-0.42 0-0.84 0.05-1.66 0.01-0.06 0.01-0.13 0.07-0.89 0.19-1.77 0.03-0.19 0.05-0.37 0.13-0.83 0.3-1.64 0.01-0.06 0.02-0.11 0.19-0.89 0.44-1.76 0.04-0.14 0.08-0.28 0.24-0.83 0.53-1.64 0.01-0.03 0.03-0.07 0.31-0.87 0.69-1.72 0.04-0.08 0.08-0.17 0.36-0.83 0.78-1.63 0.01-0.01 0.01-0.02 0.45-0.85 0.95-1.66 0.02-0.03 0.04-0.07c1.7-2.76 3.87-5.22 6.42-7.27-6.42 2.15-11.63 6.5-15.01 11.98q-0.02 0.03-0.04 0.07-0.5 0.81-0.94 1.66-0.01 0.01-0.02 0.02-0.41 0.8-0.78 1.63-0.04 0.08-0.08 0.17-0.37 0.85-0.69 1.72-0.01 0.04-0.03 0.07-0.29 0.81-0.53 1.64-0.04 0.14-0.08 0.28-0.25 0.87-0.44 1.76-0.01 0.05-0.02 0.11-0.17 0.81-0.29 1.64-0.03 0.18-0.06 0.37-0.12 0.88-0.19 1.77 0 0.06 0 0.13-0.06 0.82-0.06 1.66 0 0.21 0 0.42 0 0.89 0.06 1.79 0.01 0.05 0.01 0.09 0.07 0.85 0.19 1.71 0.03 0.22 0.06 0.45 0.14 0.9 0.33 1.8 0.48 2.16 1.26 4.15 0.52 1.34 1.15 2.59 1.28 2.51 2.99 4.67 0.86 1.08 1.81 2.07 2.37 2.47 5.25 4.3 0.61 0.38 1.17 0.81c2.25 1.74 3.97 4.07 4.91 6.75q0.24 0.67 0.41 1.36l0.82 3.38q0.43 1.75 1.32 3.22 0.64 1.05 1.47 1.94c-0.8 0.96-1.15 2.28-0.83 3.59 0.27 1.11 0.98 2.01 1.9 2.56q0.02 0.26 0.08 0.52 0.2 0.81 0.69 1.43-0.15 0.77 0.04 1.58 0.21 0.8 0.69 1.42-0.14 0.78 0.05 1.59 0.2 0.8 0.68 1.42-0.14 0.77 0.05 1.58c0.43 1.78 2.06 2.97 3.83 2.91q0 0.06 0.01 0.12c0.4 1.64 2.06 2.65 3.7 2.25l17.71-4.32c1.46-0.35 2.42-1.72 2.32-3.18z"/>
				</g>
				<path id="&lt;Path&gt;" class="s20" d="m515.1 501.66c0 0-7.1 10.16-5.33 11.93 1.77 1.76 9.37-4.11 11.53-6.98 2.16-2.88-0.3-6.93-0.3-6.93z"/>
				<path id="&lt;Path&gt;" class="s24" d="m510.94 447.73c0 0 1.95 25.56 2.78 28.67 0.84 3.12 0.56 24.23 1.67 26.73 1.11 2.5 6.11-1.39 6.11-3.06 0-1.66 3.06-15.78 3.33-19.28 0.28-3.5 4.17-23.5 4.45-29.05 0.28-5.56-11.95-13.31-18.34-4.01z"/>
				<path id="&lt;Path&gt;" class="s20" d="m567.63 479.41c0 0 5.3 11.2 7.71 10.54 2.41-0.65 1.08-10.17-0.34-13.47-1.42-3.3-6.16-3.18-6.16-3.18z"/>
				<g id="&lt;Group&gt;">
					<path id="&lt;Path&gt;" class="s24" d="m548.18 436.88c-0.1 9.18-0.06 15.09 2.93 23.55 1.41 3.98 17.09 11.55 20.13 15.14 3.05 3.6-0.39 5.2-4.86 4.29-4.48-0.9-18.3-7.68-23.28-11.19-3.98-2.82-11.4-14.16-11.29-23.86 0.11-9.71 9.4-13.08 16.37-7.93z"/>
				</g>
				<path id="&lt;Path&gt;" class="s25" d="m506.73 367.83c0 0-18.66-3.95-21.1-7.03-2.43-3.09-13.46-17.51-17.01-17.25-3.55 0.25-4.58 2.21-4.54 4.56 0.04 2.34 14.84 20.3 16.31 21.82 1.47 1.53 21.18 13.93 23.9 13.06 2.71-0.86 6.48-14.24 2.44-15.16z"/>
				<path id="&lt;Path&gt;" class="s24" d="m558.27 411.66c0 0-1.94 6.43 0.29 7.59 2.23 1.15 3.37-0.13 3.37-0.13 0 0 3.68 3.22 5.01 0.36 1.33-2.87-0.26-9.2-5.39-10.24 0 0-2.72-0.01-3.28 2.42z"/>
				<path id="&lt;Path&gt;" class="s25" d="m526.99 380.55c0 0 17.4 7.81 19.12 11.35 1.73 3.53 9.45 19.96 12.98 20.46 3.52 0.5 4.94-1.19 5.4-3.49 0.46-2.3-10.2-22.99-11.32-24.79-1.11-1.8-17.74-18.1-20.58-17.83-2.84 0.27-9.36 12.54-5.6 14.3z"/>
				<path id="&lt;Path&gt;" class="s25" d="m500.98 371.35c0 0 1.2 24.3 5.15 29.02 0 0 1.57 3.5 1.6 12.62 0.03 9.11-4.75 24.46 0.56 39.97 0 0 45.76 3.53 45.95-12.72 0.12-10.43-6.86-24.08-13.1-31.66-5.34-6.5-2.6-8.84-4.35-16.82q-0.01-0.06-0.03-0.13c-0.9-4.21-1.67-22.11-3.08-24.4-1.41-2.3-7.09-2.98-7.09-2.98 0 0-4.2 13.31-8.43 13.11-4.22-0.2-11.69-10.57-11.69-10.57 0 0-4.46 0.93-5.49 4.56z"/>
				<path id="&lt;Path&gt;" class="s24" d="m467.84 344c0 0 2.53-7.34 0-8.76-2.52-1.43-3.88 0-3.88 0 0 0-4.11-3.88-5.77-0.64-1.66 3.25-0.11 10.62 5.77 12.04 0 0 3.14 0.14 3.88-2.64z"/>
				<path id="&lt;Path&gt;" class="s24" d="m514.35 366.4v-3.92c0 0-8.32-0.33-8.81-6.35-0.49-6.03 0-3.04 0-3.04 0 0-2.93-1.04-2.93-2.07 0-1.03 3.64-4.12 3.64-4.12 0 0 1.9-12.1 11.34-12.59 9.44-0.49 13.35 7.49 13.03 14-0.33 6.52-5.05 12.54-7.01 12.87-1.95 0.32-0.65 5.22-0.65 5.22 0 0-5.83 4.38-8.61 0z"/>
				<path id="&lt;Path&gt;" class="s20" d="m515.97 329.43c0 0-14.26 2.5-10.86 8.63 3.41 6.14 13.35 6.59 13.35 6.59 0 0 0.29 5.68 3.81 7.27 0 0 3.17 8.41-3.81 17.27-6.99 8.86 14.22 12.5 18.16-7.72 3.94-20.23-3.34-27.32-9.7-28.77-6.36-1.46-7.72 0-7.72 0 0 0-1.34-3.69-3.23-3.27z"/>
				<path id="&lt;Path&gt;" class="s44" d="m422.66 248.88c0 0 5.83 73.82 40.09 89.74 34.27 15.92 40.41 39.83 19.85 50.91"/>
			</g>
			<g id="&lt;Group&gt;">
				<path id="&lt;Path&gt;" class="s45" d="m403.34 486.65c-1.39 1.35-2.23 3.15-2.51 5.06-0.92 6.09-3.59 22.98-5.05 23.24-1.79 0.32-22.56 9.53-22.56 10.08 0 0.55 0.51 5.51 8.23 3.85 7.73-1.65 21.85-7.29 22.91-8.66 1.05-1.38 5.43-22.56 4.68-26.96-0.63-3.74-1.99-10.19-5.7-6.61z"/>
				<g id="&lt;Group&gt;">
					<path id="&lt;Path&gt;" class="s24" d="m369.22 564.68c0 0-1.34 7.15-2.75 8.22-1.41 1.06-5.06-0.2-5.2-2.87-0.14-2.68 2.67-10.83 2.67-10.83 0 0 4.09-0.01 5.28 5.48z"/>
					<path id="&lt;Path&gt;" class="s46" d="m408.97 525.85c0 0-36.94-1.93-40.13 2.94-3.18 4.87-2.81 10 11.44 9.57 14.25-0.44 29.8 1.95 31.68-3.15 1.88-5.11-2.99-9.36-2.99-9.36z"/>
					<path id="&lt;Path&gt;" class="s46" d="m371.46 528.44c0 0-2.45-0.86-4.09 4.57-1.63 5.43-7.55 31.4-7.04 31.97 0.52 0.56 6.93 3.75 11.13 3.18 0 0 5.51-24.17 6.45-28.3 0.94-4.13-0.9-12.14-6.45-11.42z"/>
					<g id="&lt;Group&gt;">
						<g id="&lt;Group&gt;">
							<path id="&lt;Path&gt;" class="s20" d="m368.18 570.63c0 0 0.37 4.27-3.3 7.99-3.67 3.72-21.05-7.2-21.76-12.79-0.71-5.6 17.64 0.87 17.64 0.87 0 0 2.35 3.97 7.42 3.93z"/>
							<path id="&lt;Path&gt;" class="s47" d="m355.64 568.74c-6.34-5.21-11.28-4.76-11.66-4.69-0.63 0.36-0.97 0.93-0.86 1.78 0.65 5.19 15.66 14.95 20.76 13.36 2.67-2.17-1.87-5.22-8.24-10.45z"/>
						</g>
					</g>
				</g>
				<path id="&lt;Path&gt;" class="s20" d="m416.51 480.54c7.19-1.97 14.44 3.05 15.19 10.46 1.36 13.52 2.22 36.35-6.27 43.91-12.35 10.97-27.52 7.47-27.52 7.47 0 0 5.68-46.76 5.4-53.94-0.08-2.1 4.5-5.51 13.2-7.9z"/>
				<g id="&lt;Group&gt;">
					<path id="&lt;Path&gt;" class="s24" d="m386.2 572.16c0 0-1.34 7.16-2.75 8.22-1.41 1.07-5.06-0.2-5.2-2.87-0.14-2.67 2.67-10.83 2.67-10.83 0 0 4.09-0.01 5.28 5.48z"/>
					<path id="&lt;Path&gt;" class="s36" d="m425.86 533.08c0 0 1.16 14.01-13.69 13.45-14.84-0.57-27.59 0.26-27.59-2.68 0-2.95-2.98-9.94 12.76-11.88 15.74-1.94 28.52 1.11 28.52 1.11z"/>
					<path id="&lt;Path&gt;" class="s36" d="m388.44 534.37c0 0-2.45-0.87-4.09 4.56-1.63 5.43-7.55 31.41-7.04 31.97 0.52 0.56 6.93 3.75 11.13 3.19 0 0 5.51-24.18 6.45-28.31 0.94-4.13-0.9-12.14-6.45-11.41z"/>
					<g id="&lt;Group&gt;">
						<g id="&lt;Group&gt;">
							<path id="&lt;Path&gt;" class="s20" d="m385.4 578.37c0 0 0.37 4.27-3.3 7.99-3.67 3.72-21.05-7.2-21.76-12.79-0.71-5.6 17.65 0.87 17.65 0.87 0 0 2.34 3.97 7.41 3.93z"/>
							<path id="&lt;Path&gt;" class="s47" d="m372.86 576.48c-6.34-5.21-11.28-4.76-11.66-4.69-0.63 0.36-0.97 0.93-0.86 1.78 0.65 5.19 15.66 14.96 20.76 13.36 2.67-2.17-1.87-5.22-8.24-10.45z"/>
						</g>
					</g>
				</g>
				<path id="&lt;Path&gt;" class="s24" d="m411.22 485.11l-1.82-4.48c0 0-9.65 3.49-13.01-3.16-3.35-6.65-3.47-10.86-3.47-10.86 0 0-3.45-14.69 7.1-19.63 10.55-4.94 18.71 2.35 21.36 9.94 2.66 7.58 0.06 16.65-2.02 17.93-2.08 1.27 1.69 6.27 1.69 6.27 0 0-4.63 7.7-9.83 3.99z"/>
				<path id="&lt;Path&gt;" class="s25" d="m409.54 455.16c0 0-12.11 7.29-19.26 4.67-7.15-2.61-6.47-10.31-3.17-12.37 3.31-2.07 4.41 0 4.41 0 0 0 3.9-2.91 4.95-0.92 0 0 11-4.17 13.07-3.21 2.06 0.96 2.06 0.96 2.06 0.96 0 0-2.61-2.34-1.38-2.61 1.24-0.28 2.89 1.65 2.89 1.65 0 0 4.68-0.28 4.27 0.69-0.42 0.96-2.14 1.35-2.14 1.35 0 0 6.49 3.05 7.27 12.95 0.78 9.91 0 11.83 0 11.83 0 0-0.26 9.39-3.73 6.42-3.47-2.98 0.25-7.38 0.25-8.34 0-0.97 1.37-5.37-0.42-7.02-1.78-1.65-3.37 1.38-3.37 1.38 0 0 1.59 4.4 0.9 4.81-0.69 0.41-2.75-0.28-3.03-1.65-0.27-1.38-0.41-4.26-0.69-4.81-0.27-0.56-2.75-1.66-3.02-2.34-0.28-0.69 0.14-3.44 0.14-3.44z"/>
				<path id="&lt;Path&gt;" class="s26" d="m397.93 536.17l22.09-6.95-24.32-6.25-28.34 5.55z"/>
				<path id="&lt;Path&gt;" class="s47" d="m424.67 486.12c0 0-3.58 25.07-5.37 25.39-1.79 0.32-22.56 9.53-22.56 10.08 0 0.55 0.51 5.51 8.23 3.86 7.73-1.65 21.86-7.29 22.91-8.67 1.05-1.38 5.44-22.56 4.69-26.96-0.75-4.4-7.53-6.21-7.9-3.7z"/>
				<path id="&lt;Path&gt;" class="s24" d="m397.91 521.87c0 0-6.93-0.3-8.11 2.25-1.17 2.56 0.55 5.2 4.06 5.1 3.51-0.1 8.11-3.22 7.7-4.32-0.42-1.1-2.48-2.76-3.65-3.03z"/>
				<path id="&lt;Path&gt;" class="s30" d="m362.33 501.93l33.47 7.31 2.13 26.93-30.57-7.65z"/>
			</g>
			<g id="&lt;Group&gt;">
				<path id="&lt;Path&gt;" class="s24" d="m140.7 636.12l-4.23 3.68c0 0-6.2 0.15-8.37 0.77-2.17 0.62-6.2 2.95-5.58 3.73 0 0-2.95 3.1-2.17 3.72 0 0 0.46 2.17 1.55 2.17 0 0 0.93 1.55 2.94 1.24 0 0 3.17-2.33 5.62-2.33 2.45 0 3.84 0.16 3.84 0.16 0 0-3.56 0.7-4.65 2.21-1.09 1.51-1.09 2.44-0.47 2.75 0.63 0.31 3.26-1.86 5.43-1.86 2.17 0 6.13-2.64 6.09-4.96-0.04-2.33 4.77-5.74 6.01-7.6 1.24-1.86-3.75-5.65-6.01-3.68z"/>
				<path id="&lt;Path&gt;" class="s22" d="m217.56 621.53c0 0 4.71 16.07 7.39 16.82 2.68 0.75 10.75-20.5 10.75-20.5 0 0 1.79-2.74 8.35 0 6.55 2.74-13.74 36.02-16.71 36.08-2.98 0.07-19.1-7.73-17.88-13.68 1.21-5.95 3.97-18.68 8.1-18.72z"/>
				<g id="&lt;Group&gt;">
					<path id="&lt;Path&gt;" class="s24" d="m191.85 751.78c0 0-0.92 6.23 0.64 8.49 1.56 2.27 3.73 1.09 4.44-1.22 0.71-2.32 0.64-8.85 0.64-8.85 0 0-3.99-1.21-5.72 1.58z"/>
					<g id="&lt;Group&gt;">
						<g id="&lt;Group&gt;">
							<path id="&lt;Path&gt;" class="s46" d="m198.31 757.33c0.96-0.37 2-0.45 2.96-0.1 3.1 1.14 8.96 3.23 11.19 3.68 3.09 0.62 8.29 2.97 8.54 5.94 0.24 2.97-19.79 1.61-22.83 1.48-3.04-0.12-7.74 0.37-7.99-1.61-0.16-1.33-0.11-5.57-0.05-8.21 0.02-1.08 1.05-1.85 2.1-1.58 1.87 0.48 4.57 0.98 6.08 0.4z"/>
						</g>
					</g>
				</g>
				<g id="&lt;Group&gt;">
					<path id="&lt;Path&gt;" class="s24" d="m152.2 750.2c0 0-2.55 5.76-1.65 8.36 0.9 2.6 3.32 2.04 4.62 0 1.29-2.05 2.97-8.36 2.97-8.36 0 0-3.53-2.22-5.94 0z"/>
					<g id="&lt;Group&gt;">
						<g id="&lt;Group&gt;">
							<path id="&lt;Path&gt;" class="s46" d="m155.53 756.69c0.96-0.37 2-0.45 2.96-0.1 3.1 1.14 8.96 3.24 11.19 3.68 3.1 0.62 8.29 2.97 8.54 5.94 0.25 2.97-19.78 1.61-22.82 1.49-3.04-0.13-7.75 0.37-7.99-1.61-0.17-1.33-0.11-5.58-0.06-8.22 0.03-1.08 1.05-1.85 2.1-1.58 1.87 0.48 4.58 0.99 6.08 0.4z"/>
						</g>
					</g>
				</g>
				<g id="&lt;Group&gt;">
					<path id="&lt;Path&gt;" class="s47" d="m164.59 657.96c0 0 1.78 11.39 6.49 15.71 0 0 27.19 29.92 28.6 35.69 1.41 5.78-8.82 43.6-8.92 44.01-0.11 0.4 7.5 0.81 8.29-2.77 0.79-3.58 13.2-42.53 12.34-45.38-0.87-2.85-23.37-36.65-23.37-36.65 0 0 1.11-10.97-1.04-14.13-2.16-3.17-22.39 3.52-22.39 3.52z"/>
					<path id="&lt;Path&gt;" class="s20" d="m187.93 655.55c0 0-23.16 1.29-23.34 4.81l4.79 58.96-18.83 32.24c0 0 2.94 3.52 7.4 1.81 4.49-5.82 23.14-29 24.76-33.55 1.62-4.55-2.28-44.67-2.28-44.67 0 0 7.61-4.6 7.74-8.49 0.14-3.89-0.24-11.11-0.24-11.11z"/>
				</g>
				<path id="&lt;Path&gt;" class="s48" d="m205.91 610.46c0 0-16.81-4.9-19.21-1.15-2.41 3.75-19.41 46.71-16.88 51.13 2.52 4.43 15.51 12.01 18.73 9.62 3.22-2.39 27.8-40.25 29.17-43.76 1.37-3.51-1.86-9.81-4.93-11.67-3.07-1.87-6.88-4.17-6.88-4.17z"/>
				<path id="&lt;Path&gt;" class="s21" d="m192.8 640.57c0 0-9.06 24.46-13.87 28.93 0 0-9.7 1.06-15.64-10.24 0 0 10.54-24.55 11.83-28.1 1.29-3.56 9.59-21.97 9.59-21.97 0 0 1.6-6.13 21.2 1.27z"/>
				<path id="&lt;Path&gt;" class="s21" d="m195.09 646.14c0 0-6.78 22.79-6.54 23.92 0.25 1.13 1.44 3.3 3.83 5.09 2.39 1.78 17.08-34.9 17.08-34.9 0 0 9.71-12.16 9.04-14.92-0.67-2.76-0.32-7.44-0.32-7.44 0 0-4.87-0.92-8.8 6.04-3.92 6.95-14.29 22.21-14.29 22.21z"/>
				<path id="&lt;Path&gt;" class="s24" d="m213.64 617.54l1.89-4.65c0 0 10.02 3.62 13.5-3.28 3.48-6.9 3.6-11.28 3.6-11.28 0 0 3.59-15.24-7.36-20.37-10.95-5.13-19.42 2.44-22.17 10.31-2.76 7.88-0.06 17.29 2.09 18.61 2.16 1.33-1.74 6.51-1.74 6.51 0 0 4.8 8 10.19 4.15z"/>
				<path id="&lt;Path&gt;" class="s25" d="m215.39 586.45c0 0 12.57 7.56 19.99 4.85 7.42-2.71 6.71-10.71 3.28-12.85-3.42-2.14-4.57 0-4.57 0 0 0-4.05-3.01-5.13-0.95 0 0-11.43-4.33-13.57-3.33-2.14 1-2.14 1-2.14 1 0 0 2.71-2.43 1.43-2.71-1.29-0.29-3 1.71-3 1.71 0 0-4.85-0.28-4.42 0.71 0.42 1 2.21 1.41 2.21 1.41 0 0-6.73 3.16-7.54 13.44-0.81 10.28 0 12.28 0 12.28 0 0 0.26 9.75 3.87 6.66 3.6-3.09-0.26-7.66-0.26-8.66 0-1-1.42-5.57 0.43-7.28 1.86-1.71 3.5 1.43 3.5 1.43 0 0-1.64 4.57-0.93 4.99 0.71 0.43 2.86-0.29 3.14-1.71 0.29-1.43 0.43-4.43 0.72-5 0.28-0.57 2.85-1.71 3.14-2.42 0.28-0.72-0.15-3.57-0.15-3.57z"/>
				<path id="&lt;Path&gt;" class="s22" d="m207.06 608.55c0 0-7.93-0.45-8.25 0.22-0.32 0.66 2.03 4.83 2.03 4.83 0 0-9.3 13.06-8.79 19.72 0.5 6.67-0.09 10.36-0.09 10.36 0 0 15.75-32.71 15.1-35.13z"/>
				<path id="&lt;Path&gt;" class="s22" d="m214.67 613.3c0 0 5.02 6.15 4.67 6.81-0.35 0.65-5.1 1.19-5.1 1.19 0 0-5.12 15.19-10.81 18.69-5.7 3.5-8.34 6.15-8.34 6.15 0 0 17.24-31.95 19.58-32.84z"/>
				<path id="&lt;Path&gt;" class="s23" d="m186.65 607.95c0 0-26.11 5.58-28.57 7.45-2.46 1.87-21.23 19.97-21.23 19.97 0 0 2.23 8.56 8.71 7.08 6.48-1.49 13.6-15.79 16.19-15.79 2.59 0 24.04-6.26 27.17-7.38 3.13-1.11 2.14-12.29-2.27-11.33z"/>
				<path id="&lt;Path&gt;" class="s24" d="m238.31 621.07l1.09-3.92c0 0-2.65-2.66-2.65-3.65 0-1 1.32-6.13 2.65-6.13 1.32 0 7.45-3.48 8.61-0.83 1.16 2.65 0 2.65 0 2.65 0 0 2.02 2.48 0.51 4.31 0 0-0.18 2.66-0.68 3.65-0.5 0.98-3.48 1.64-3.48 1.64l-1.04 3.44c0 0-4.1 3.15-5.01-1.16z"/>
				<g id="&lt;Group&gt;">
					<g id="&lt;Group&gt;">
						<path id="&lt;Path&gt;" class="s25" d="m242.91 609.27c-0.7 0-1.28-0.58-1.28-1.28v-10.33c0-0.7 0.58-1.28 1.28-1.28 0.71 0 1.29 0.58 1.29 1.28v10.33c0 0.7-0.58 1.28-1.29 1.28z"/>
						<path id="&lt;Path&gt;" class="s25" d="m249.79 596.94c0 3.79-3.08 6.87-6.88 6.87-3.79 0-6.87-3.08-6.87-6.87 0-3.8 3.08-6.88 6.87-6.88 3.8 0 6.88 3.08 6.88 6.88z"/>
					</g>
					<path id="&lt;Path&gt;" class="s1" d="m247.77 596.94c0 2.68-2.17 4.86-4.86 4.86-2.68 0-4.86-2.18-4.86-4.86 0-2.69 2.18-4.86 4.86-4.86 2.69 0 4.86 2.17 4.86 4.86z"/>
				</g>
			</g>
			<g id="&lt;Group&gt;">
				<g id="&lt;Group&gt;">
					<path id="&lt;Path&gt;" class="s49" d="m701.68 623.86c0 0 4.53 17.93 9.11 20.84 4.58 2.92 20.36-7.55 20.36-7.55 0 0 0.76-5.46 2.22-6.19 1.46-0.73 3.82 1.46 3.82 1.46 0 0 8.2-6.2 10.39-6.38 2.18-0.18-4.28 6.01-4.28 6.01 0 0 0.27 5.92-1.92 7.51-2.18 1.6-7.65 2.51-7.65 2.51 0 0-13.5 13.93-23.13 13.39-9.63-0.55-22.4-24.14-22.4-24.14 0 0 6.56-10.01 13.48-7.46z"/>
					<path id="&lt;Path&gt;" class="s50" d="m724.74 726.65l2.86 6.28 7.89-1.97-6.45-8.97c0 0-7.17-1.61-4.3 4.66z"/>
					<path id="&lt;Path&gt;" class="s22" d="m684.11 661.16c0 0 23.59 5.9 31.99 18.4 8.4 12.5 18.58 43.81 18.58 43.81l-11.95 6.45-20.79-37.81-27.44-15.29c0 0 1.41-18.2 9.61-15.56z"/>
					<path id="&lt;Path&gt;" class="s34" d="m730 635.36l-1.72 7.9 16.93-10.62 1.37-7.76z"/>
					<path id="&lt;Path&gt;" class="s47" d="m685.31 619.27c0 0 7.14-9.85 13.09-5.13 5.95 4.73 7.93 12.86 7.93 12.86l-14.48 10.51c0 0-8.33-1.98-6.54-18.24z"/>
					<path id="&lt;Path&gt;" class="s50" d="m694.7 605.13c0 0 4.09-0.21 4.35-3.06 0.27-2.85 1.82-18.11 17.69-15.24 11.46 2.06 11.54 12.69 11.54 15.33 0 2.64-3.97 12.46-3.44 14.69 0.53 2.24-4.23 0-4.23 0 0 0-4.83 6.35-6.42 6.78-1.58 0.43-9.6-5.2-9.85-8.02-0.43-4.75-5.02 2.41-7.14 1.73-2.12-0.67-5.8-7.89-2.5-12.21z"/>
					<path id="&lt;Path&gt;" class="s20" d="m694.7 605.13c0 0-28.87 1.58-34.42 29.65-5.55 28.07 0 45.1 0 45.1 0 0 16.92 1.11 24.86-1.43 7.93-2.54-4.87-22.48 10.21-36.76 12.02-11.39-0.65-36.56-0.65-36.56z"/>
					<path id="&lt;Path&gt;" class="s50" d="m697.76 629.4c0 0 4.53 17.93 9.11 20.84 4.58 2.92 20.36-7.55 20.36-7.55 0 0 0.76-5.46 2.22-6.19 1.46-0.73 3.82 1.46 3.82 1.46 0 0 8.2-6.2 10.38-6.38 2.19-0.18-4.27 6.01-4.27 6.01 0 0 0.27 5.92-1.92 7.51-2.18 1.6-7.65 2.51-7.65 2.51 0 0-13.5 13.93-23.13 13.39-9.63-0.55-22.4-24.14-22.4-24.14 0 0 6.56-10.01 13.48-7.46z"/>
					<path id="&lt;Path&gt;" class="s47" d="m677.93 622.19c0 0 7.14-9.85 13.09-5.12 5.95 4.72 7.93 12.86 7.93 12.86l-14.47 10.51c0 0-8.33-1.99-6.55-18.25z"/>
					<path id="&lt;Path&gt;" class="s50" d="m711.99 732.43l2.86 6.27 7.89-1.97-6.45-8.96c0 0-7.17-1.62-4.3 4.66z"/>
					<path id="&lt;Path&gt;" class="s23" d="m671.37 666.93c0 0 23.58 5.9 31.98 18.4 8.4 12.5 18.59 43.81 18.59 43.81l-11.96 6.45-20.79-37.81-27.44-15.29c0 0-3.2-3.93-2.31-7.44 1.23-4.89 7.15-9.65 11.93-8.12z"/>
					<path id="&lt;Path&gt;" class="s33" d="m713.81 737.57c0 0 5.38 0.41 8.93-1.75 0 0 14.18 8.31 17.23 9.47 3.06 1.17 2.77 4.95 0 5.09-2.76 0.15-24.97-2.03-26.16-3.34-1.19-1.31-1.72-8.04 0-9.47z"/>
					<path id="&lt;Path&gt;" class="s33" d="m726.29 730.33c0 0 5.37 0.41 8.93-1.75 0 0 14.17 8.31 17.23 9.47 3.05 1.17 2.76 4.95 0 5.1-2.76 0.14-24.98-2.04-26.16-3.35-1.19-1.31-1.72-8.03 0-9.47z"/>
					<path id="&lt;Path&gt;" class="s33" d="m697.67 604.21c0 0-1.92 1.63-0.76-5.17 1.16-6.79 6.98-14.5 8.58-14.36 0 0-3.25-1.53-1.48-2.15 1.77-0.61 3.67 0.49 3.67 0.49 0 0 3.62-3.37 4.38-1.91 0.77 1.47-1.23 2.53-1.23 2.53 0 0 5.43-2.6 9.79 1.77 4.37 4.37 10.19 5.97 10.19 5.97 0 0 4.26-0.73 4.65 3.78 0.4 4.5-3.64 2.61-3.64 2.61 0 0 5.97 3.62 1.9 6.61-4.08 3-5.68 1.88-8.88 0.91-3.2-0.97-4.07-2.83-5.67-3.14-1.6-0.3-4.98 0.01-4.98 0.01 0 0-2.09 5.51-3.36 5.22-1.26-0.29-2.43-0.56-1.7-2.32 0.73-1.75 2.38-4.23 1.7-5.39-0.68-1.17-5.83-1.06-6.24 3.47-0.41 4.53-4.46 6.57-5.64 5.7-1.17-0.88-1.28-4.63-1.28-4.63z"/>
				</g>
			</g>
		</g>
	</g>
</svg>