<svg version="1.2" xmlns="http://www.w3.org/2000/svg" viewBox="0 0 3710 3710" width="3710" height="3710">
	<defs>
		<clipPath clipPathUnits="userSpaceOnUse" id="cp1">
			<path d="m3209.92 2280.25h-1281.44v-1810.97h1281.44z"/>
		</clipPath>
		<clipPath clipPathUnits="userSpaceOnUse" id="cp2">
			<path d="m2080.04 2850.93l275.66 75.35c0 0 90.55-127.23 50.27-245.49-82.18-241.29 134.89-296.42 222.35-333.12 131.9-55.33 224-161.62 78.79-258.54-145.2-96.92 83.02-300.63 308.91-359.3 221.06-57.41 246.56-483.48-243.29-403.16-292.54 47.97-327.16 334.77-379.08 475.44-51.92 140.67-269.49 94.02-244.26 290.1 21.56 167.48 110.63 309.66-8.47 388.2-119.1 78.55-160.18 191.88-60.88 370.52z"/>
		</clipPath>
		<linearGradient id="g1" x2="1" gradientUnits="userSpaceOnUse" gradientTransform="matrix(-1032.869,1493.084,-574.635,-397.514,4638.875,2444.275)">
			<stop offset="0" stop-color="#ffc444"/>
			<stop offset=".996" stop-color="#f36f56"/>
		</linearGradient>
		<linearGradient id="g2" x2="1" gradientUnits="userSpaceOnUse" gradientTransform="matrix(-248.645,1740.051,-631.695,-90.266,1076.483,344.084)">
			<stop offset=".004" stop-color="#e38ddd"/>
			<stop offset="1" stop-color="#9571f6"/>
		</linearGradient>
		<clipPath clipPathUnits="userSpaceOnUse" id="cp3">
			<path d="m2366.05 1987.96l-214.03 8.57c0 0-94.19-123.42-31.94-180.84 62.25-57.43-7.11-181.87-35.73-252.32-77.65-191.16 157.15-237.74 78.66-491.09-20.88-67.39-85.1-189.07-40.26-260 51.08-80.81 120.89-35.21 150.06-98.98 45.6-99.68 150.99-160.44 244.68-97.34 92.48 62.27 60.99 246.75-101.75 433.63-100.59 146.09-92.61 179.13-57.47 255.18 24.61 53.26 126.62 181.39 63.15 261.81-63.47 80.42-106.32 160.1-55.54 213.81 77.28 81.71 0.17 207.57 0.17 207.57z"/>
		</clipPath>
		<linearGradient id="g3" x2="1" gradientUnits="userSpaceOnUse" gradientTransform="matrix(-725.324,1584.851,-647.234,-296.214,1675.256,347.184)">
			<stop offset="0" stop-color="#ff9085"/>
			<stop offset="1" stop-color="#fb6fbb"/>
		</linearGradient>
		<clipPath clipPathUnits="userSpaceOnUse" id="cp4">
			<path d="m2412.53 2093.31l-337.93 37.36c-25.29-42.96-60.76-123.45 7.39-151.79 94.75-39.41 75.47-203.05 40.83-257.65-42.89-67.59-139.31-226.89 6.15-289.98 121.1-52.52 210.62-63.06 199.14-217.29-11.48-154.23 64.46-260.26 212.89-268.53 156.21-8.7 257.46-218.31 393.02-168.2 236.22 87.3 80.6 448.54-175.42 578.09-256.01 129.56-89.59 202.8-65.71 327.3 32.6 169.98-217.45 162.36-273.31 237.24-43.79 58.7-24.72 130.32-7.05 173.45z"/>
		</clipPath>
		<linearGradient id="g4" x2="1" gradientUnits="userSpaceOnUse" gradientTransform="matrix(23.429,-238.978,1815.326,177.972,1665.127,2017.907)">
			<stop offset="0" stop-color="#aa80f9"/>
			<stop offset=".996" stop-color="#6165d7"/>
		</linearGradient>
		<linearGradient id="g5" x2="1" gradientUnits="userSpaceOnUse" gradientTransform="matrix(309.256,0,0,329.991,771.202,1302.396)">
			<stop offset="0" stop-color="#aa80f9"/>
			<stop offset=".996" stop-color="#6165d7"/>
		</linearGradient>
		<linearGradient id="g6" x2="1" gradientUnits="userSpaceOnUse" gradientTransform="matrix(1874.766,0,0,329.991,996.766,1302.396)">
			<stop offset="0" stop-color="#aa80f9"/>
			<stop offset=".996" stop-color="#6165d7"/>
		</linearGradient>
		<linearGradient id="g7" x2="1" gradientUnits="userSpaceOnUse" gradientTransform="matrix(24.193,-246.77,1775.676,174.085,1870.633,2177.134)">
			<stop offset="0" stop-color="#aa80f9"/>
			<stop offset=".996" stop-color="#6165d7"/>
		</linearGradient>
		<linearGradient id="g8" x2="1" gradientUnits="userSpaceOnUse" gradientTransform="matrix(-363.424,-280.966,59.297,-76.7,958.729,1846.948)">
			<stop offset="0" stop-color="#aa80f9"/>
			<stop offset=".996" stop-color="#6165d7"/>
		</linearGradient>
		<linearGradient id="g9" x2="1" gradientUnits="userSpaceOnUse" gradientTransform="matrix(-741.234,1393.771,-8709.861,-4632.071,1018.668,1414.266)">
			<stop offset="0" stop-color="#aa80f9"/>
			<stop offset=".996" stop-color="#6165d7"/>
		</linearGradient>
		<linearGradient id="g10" x2="1" gradientUnits="userSpaceOnUse" gradientTransform="matrix(706.776,1728.658,-2518.519,1029.717,652.932,-256.816)">
			<stop offset="0" stop-color="#40447e"/>
			<stop offset=".996" stop-color="#3c3b6b"/>
		</linearGradient>
		<linearGradient id="g11" x2="1" gradientUnits="userSpaceOnUse" gradientTransform="matrix(16.025,-445.271,723.475,26.038,793.429,1757.449)">
			<stop offset="0" stop-color="#40447e"/>
			<stop offset=".996" stop-color="#3c3b6b"/>
		</linearGradient>
		<linearGradient id="g12" x2="1" gradientUnits="userSpaceOnUse" gradientTransform="matrix(265.74,643.932,-1273.956,525.74,1200.317,1644.948)">
			<stop offset="0" stop-color="#4053b1"/>
			<stop offset=".996" stop-color="#3c3b6b"/>
		</linearGradient>
		<linearGradient id="g13" x2="1" gradientUnits="userSpaceOnUse" gradientTransform="matrix(593.591,1241.136,-2513.159,1201.953,730.487,655.586)">
			<stop offset="0" stop-color="#40447e"/>
			<stop offset=".996" stop-color="#3c3b6b"/>
		</linearGradient>
		<linearGradient id="g14" x2="1" gradientUnits="userSpaceOnUse" gradientTransform="matrix(68.73,-642.477,274.312,29.345,26.232,1785.383)">
			<stop offset="0" stop-color="#ffc444"/>
			<stop offset=".996" stop-color="#f36f56"/>
		</linearGradient>
		<linearGradient id="g15" x2="1" gradientUnits="userSpaceOnUse" gradientTransform="matrix(-15.872,-395.359,150.782,-6.053,797.173,2137.691)">
			<stop offset="0" stop-color="#ffc444"/>
			<stop offset=".996" stop-color="#f36f56"/>
		</linearGradient>
		<linearGradient id="g16" x2="1" gradientUnits="userSpaceOnUse" gradientTransform="matrix(-120.921,-138.874,50.731,-44.172,1797.782,1468.765)">
			<stop offset="0" stop-color="#40447e"/>
			<stop offset=".996" stop-color="#3c3b6b"/>
		</linearGradient>
		<linearGradient id="g17" x2="1" gradientUnits="userSpaceOnUse" gradientTransform="matrix(-1528.112,1933.873,-1013.315,-800.703,2112.904,959.732)">
			<stop offset="0" stop-color="#ffc444"/>
			<stop offset=".996" stop-color="#f36f56"/>
		</linearGradient>
		<linearGradient id="g18" x2="1" gradientUnits="userSpaceOnUse" gradientTransform="matrix(-997.756,454.112,-173.116,-380.363,2576.031,913.29)">
			<stop offset="0" stop-color="#ffc444"/>
			<stop offset=".996" stop-color="#f36f56"/>
		</linearGradient>
		<linearGradient id="g19" x2="1" gradientUnits="userSpaceOnUse" gradientTransform="matrix(585.976,0,0,216.164,1996.602,1136.783)">
			<stop offset="0" stop-color="#ffc444"/>
			<stop offset=".996" stop-color="#f36f56"/>
		</linearGradient>
		<linearGradient id="g20" x2="1" gradientUnits="userSpaceOnUse" gradientTransform="matrix(-868.961,-217.11,159.642,-638.949,3009.69,1244.254)">
			<stop offset="0" stop-color="#311944"/>
			<stop offset="1" stop-color="#893976"/>
		</linearGradient>
		<linearGradient id="g21" x2="1" gradientUnits="userSpaceOnUse" gradientTransform="matrix(247.998,-499.632,141.481,70.226,2519.568,1604.669)">
			<stop offset="0" stop-color="#aa80f9"/>
			<stop offset=".996" stop-color="#6165d7"/>
		</linearGradient>
		<linearGradient id="g22" x2="1" gradientUnits="userSpaceOnUse" gradientTransform="matrix(132.535,-411.681,312.92,100.74,2924.605,1403.016)">
			<stop offset="0" stop-color="#aa80f9"/>
			<stop offset=".996" stop-color="#6165d7"/>
		</linearGradient>
		<linearGradient id="g23" x2="1" gradientUnits="userSpaceOnUse" gradientTransform="matrix(127.59,-396.321,366.68,118.048,2798.182,1364.342)">
			<stop offset="0" stop-color="#aa80f9"/>
			<stop offset=".996" stop-color="#6165d7"/>
		</linearGradient>
		<linearGradient id="g24" x2="1" gradientUnits="userSpaceOnUse" gradientTransform="matrix(-449.06,-149.015,61.612,-185.67,2652.036,1104.764)">
			<stop offset="0" stop-color="#ffc444"/>
			<stop offset=".996" stop-color="#f36f56"/>
		</linearGradient>
		<linearGradient id="g25" x2="1" gradientUnits="userSpaceOnUse" gradientTransform="matrix(130.874,-406.521,285.935,92.053,2897.95,1404.864)">
			<stop offset=".283" stop-color="#aa80f9"/>
			<stop offset=".996" stop-color="#6165d7"/>
		</linearGradient>
		<linearGradient id="g26" x2="1" gradientUnits="userSpaceOnUse" gradientTransform="matrix(-20.593,-155.021,104.843,-13.928,2814.721,843.638)">
			<stop offset="0" stop-color="#ffc444"/>
			<stop offset=".996" stop-color="#f36f56"/>
		</linearGradient>
		<linearGradient id="g27" x2="1" gradientUnits="userSpaceOnUse" gradientTransform="matrix(-134.024,-228.365,143.899,-84.452,2722.564,942.172)">
			<stop offset="0" stop-color="#311944"/>
			<stop offset="1" stop-color="#6b3976"/>
		</linearGradient>
		<linearGradient id="g28" x2="1" gradientUnits="userSpaceOnUse" gradientTransform="matrix(24.074,224.226,-245.735,26.383,2690.594,733.1)">
			<stop offset="0" stop-color="#ffc444"/>
			<stop offset=".996" stop-color="#f36f56"/>
		</linearGradient>
		<linearGradient id="g29" x2="1" gradientUnits="userSpaceOnUse" gradientTransform="matrix(-295.685,-18.101,15.194,-248.196,2519.656,972.321)">
			<stop offset="0" stop-color="#40447e"/>
			<stop offset=".996" stop-color="#3c3b6b"/>
		</linearGradient>
		<linearGradient id="g30" x2="1" gradientUnits="userSpaceOnUse" gradientTransform="matrix(-136.29,-55.425,22.849,-56.184,2058.987,1154.98)">
			<stop offset="0" stop-color="#40447e"/>
			<stop offset=".996" stop-color="#3c3b6b"/>
		</linearGradient>
		<linearGradient id="g31" x2="1" gradientUnits="userSpaceOnUse" gradientTransform="matrix(-2024.893,1859.236,-1853.57,-2018.721,2075.265,1088.013)">
			<stop offset="0" stop-color="#ffc444"/>
			<stop offset=".996" stop-color="#f36f56"/>
		</linearGradient>
		<linearGradient id="g32" x2="1" gradientUnits="userSpaceOnUse" gradientTransform="matrix(-699.899,-111.745,86.045,-538.934,2711.878,1210.47)">
			<stop offset="0" stop-color="#ffc444"/>
			<stop offset=".996" stop-color="#f36f56"/>
		</linearGradient>
		<linearGradient id="g33" x2="1" gradientUnits="userSpaceOnUse" gradientTransform="matrix(-842.217,-210.428,72.097,-288.561,3094.19,1301.212)">
			<stop offset="0" stop-color="#ffc444"/>
			<stop offset=".996" stop-color="#f36f56"/>
		</linearGradient>
		<linearGradient id="g34" x2="1" gradientUnits="userSpaceOnUse" gradientTransform="matrix(-500.491,-139.431,22.218,-79.752,2675.986,1214.316)">
			<stop offset="0" stop-color="#ffc444"/>
			<stop offset=".996" stop-color="#f36f56"/>
		</linearGradient>
		<linearGradient id="g35" x2="1" gradientUnits="userSpaceOnUse" gradientTransform="matrix(501.219,634.877,-486.063,383.734,1444.977,2406.404)">
			<stop offset="0" stop-color="#aa80f9"/>
			<stop offset=".996" stop-color="#6165d7"/>
		</linearGradient>
		<linearGradient id="g36" x2="1" gradientUnits="userSpaceOnUse" gradientTransform="matrix(-816.719,554.752,-334.318,-492.19,1342.022,1760.861)">
			<stop offset="0" stop-color="#311944"/>
			<stop offset="1" stop-color="#6b3976"/>
		</linearGradient>
		<linearGradient id="g37" x2="1" gradientUnits="userSpaceOnUse" gradientTransform="matrix(18.775,301.746,-263.352,16.386,1696.327,2257.362)">
			<stop offset="0" stop-color="#ff9085"/>
			<stop offset="1" stop-color="#fb6fbb"/>
		</linearGradient>
		<linearGradient id="g38" x2="1" gradientUnits="userSpaceOnUse" gradientTransform="matrix(-97.337,0,0,-58.584,1767.5,3091.97)">
			<stop offset="0" stop-color="#311944"/>
			<stop offset="1" stop-color="#6b3976"/>
		</linearGradient>
		<linearGradient id="g39" x2="1" gradientUnits="userSpaceOnUse" gradientTransform="matrix(-148.095,-444.286,281.556,-93.852,1765.576,3146.103)">
			<stop offset="0" stop-color="#ffc444"/>
			<stop offset=".996" stop-color="#f36f56"/>
		</linearGradient>
		<linearGradient id="g40" x2="1" gradientUnits="userSpaceOnUse" gradientTransform="matrix(-59.529,0,0,-77.595,1752.008,2903.729)">
			<stop offset="0" stop-color="#311944"/>
			<stop offset="1" stop-color="#6b3976"/>
		</linearGradient>
		<linearGradient id="g41" x2="1" gradientUnits="userSpaceOnUse" gradientTransform="matrix(-105.069,-315.208,117.132,-39.044,1868.512,3095.885)">
			<stop offset="0" stop-color="#ffc444"/>
			<stop offset=".996" stop-color="#f36f56"/>
		</linearGradient>
		<linearGradient id="g42" x2="1" gradientUnits="userSpaceOnUse" gradientTransform="matrix(-85.184,492.473,-383.611,-66.354,1406.996,2549.037)">
			<stop offset="0" stop-color="#ab316d"/>
			<stop offset="1" stop-color="#792d3d"/>
		</linearGradient>
		<linearGradient id="g43" x2="1" gradientUnits="userSpaceOnUse" gradientTransform="matrix(-109.849,-347.654,232.589,-73.492,1907.879,3007.58)">
			<stop offset="0" stop-color="#ab316d"/>
			<stop offset="1" stop-color="#792d3d"/>
		</linearGradient>
		<linearGradient id="g44" x2="1" gradientUnits="userSpaceOnUse" gradientTransform="matrix(-113.591,-359.496,420.464,-132.855,1697.156,3099.039)">
			<stop offset="0" stop-color="#ab316d"/>
			<stop offset="1" stop-color="#792d3d"/>
		</linearGradient>
		<linearGradient id="g45" x2="1" gradientUnits="userSpaceOnUse" gradientTransform="matrix(-82.03,474.237,-943.674,-163.23,1368.237,2553.975)">
			<stop offset="0" stop-color="#ab316d"/>
			<stop offset="1" stop-color="#792d3d"/>
		</linearGradient>
		<linearGradient id="g46" x2="1" gradientUnits="userSpaceOnUse" gradientTransform="matrix(-862.425,315.818,-366.377,-1000.491,1546.53,2052.496)">
			<stop offset="0" stop-color="#ff9085"/>
			<stop offset="1" stop-color="#fb6fbb"/>
		</linearGradient>
		<linearGradient id="g47" x2="1" gradientUnits="userSpaceOnUse" gradientTransform="matrix(44.645,-202.614,266.221,58.66,1260.004,2293.852)">
			<stop offset="0" stop-color="#ffc444"/>
			<stop offset=".996" stop-color="#f36f56"/>
		</linearGradient>
		<linearGradient id="g48" x2="1" gradientUnits="userSpaceOnUse" gradientTransform="matrix(-49.103,252.915,-223.842,-43.459,1378.138,2136.562)">
			<stop offset="0" stop-color="#ffc444"/>
			<stop offset=".996" stop-color="#f36f56"/>
		</linearGradient>
		<linearGradient id="g49" x2="1" gradientUnits="userSpaceOnUse" gradientTransform="matrix(-280.829,0,0,-41.741,1543.144,2546.052)">
			<stop offset="0" stop-color="#40447e"/>
			<stop offset=".996" stop-color="#3c3b6b"/>
		</linearGradient>
		<linearGradient id="g50" x2="1" gradientUnits="userSpaceOnUse" gradientTransform="matrix(-185.854,184.367,-114.897,-115.823,1660.241,2322.168)">
			<stop offset="0" stop-color="#40447e"/>
			<stop offset=".996" stop-color="#3c3b6b"/>
		</linearGradient>
		<linearGradient id="g51" x2="1" gradientUnits="userSpaceOnUse" gradientTransform="matrix(-261.028,258.94,-267.48,-269.637,1738.6,2201.412)">
			<stop offset="0" stop-color="#40447e"/>
			<stop offset=".996" stop-color="#3c3b6b"/>
		</linearGradient>
		<linearGradient id="g52" x2="1" gradientUnits="userSpaceOnUse" gradientTransform="matrix(51.789,287.377,-233.904,42.152,1350.486,2254.736)">
			<stop offset="0" stop-color="#ff9085"/>
			<stop offset="1" stop-color="#fb6fbb"/>
		</linearGradient>
		<linearGradient id="g53" x2="1" gradientUnits="userSpaceOnUse" gradientTransform="matrix(-133.811,126.1,-153.386,-162.766,1393.292,2510.543)">
			<stop offset="0" stop-color="#ffc444"/>
			<stop offset=".996" stop-color="#f36f56"/>
		</linearGradient>
	</defs>
	<style>
		.s0 { fill: url(#g1) } 
		.s1 { fill: #beb8f2 } 
		.s2 { fill: url(#g2) } 
		.s3 { fill: #fcfdfe } 
		.s4 { fill: url(#g3) } 
		.s5 { fill: #ffffff } 
		.s6 { fill: #c9ced6 } 
		.s7 { fill: #f4f7fa } 
		.s8 { fill: url(#g4) } 
		.s9 { fill: #d8dee8 } 
		.s10 { fill: url(#g5) } 
		.s11 { fill: url(#g6) } 
		.s12 { fill: url(#g7) } 
		.s13 { fill: url(#g8) } 
		.s14 { fill: url(#g9) } 
		.s15 { fill: #e6ebf4 } 
		.s16 { fill: #b3b7bc } 
		.s17 { opacity: .5;mix-blend-mode: soft-light;fill: #ffffff } 
		.s18 { fill: url(#g10) } 
		.s19 { opacity: .3;mix-blend-mode: multiply;fill: url(#g11) } 
		.s20 { fill: url(#g12) } 
		.s21 { fill: url(#g13) } 
		.s22 { fill: url(#g14) } 
		.s23 { fill: url(#g15) } 
		.s24 { fill: url(#g16) } 
		.s25 { fill: url(#g17) } 
		.s26 { fill: url(#g18) } 
		.s27 { opacity: .3;mix-blend-mode: multiply;fill: url(#g19) } 
		.s28 { fill: url(#g20) } 
		.s29 { fill: url(#g21) } 
		.s30 { fill: url(#g22) } 
		.s31 { fill: url(#g23) } 
		.s32 { fill: url(#g24) } 
		.s33 { fill: url(#g25) } 
		.s34 { fill: #9f73f8 } 
		.s35 { fill: #ae87f9 } 
		.s36 { fill: url(#g26) } 
		.s37 { fill: url(#g27) } 
		.s38 { fill: url(#g28) } 
		.s39 { fill: #26264f } 
		.s40 { fill: #444b8c } 
		.s41 { fill: url(#g29) } 
		.s42 { fill: #1f1f44 } 
		.s43 { fill: url(#g30) } 
		.s44 { fill: url(#g31) } 
		.s45 { fill: url(#g32) } 
		.s46 { fill: url(#g33) } 
		.s47 { opacity: .3;mix-blend-mode: multiply;fill: url(#g34) } 
		.s48 { fill: url(#g35) } 
		.s49 { fill: url(#g36) } 
		.s50 { fill: url(#g37) } 
		.s51 { fill: url(#g38) } 
		.s52 { fill: url(#g39) } 
		.s53 { fill: url(#g40) } 
		.s54 { fill: url(#g41) } 
		.s55 { fill: url(#g42) } 
		.s56 { fill: url(#g43) } 
		.s57 { opacity: .3;mix-blend-mode: multiply;fill: url(#g44) } 
		.s58 { fill: url(#g45) } 
		.s59 { fill: url(#g46) } 
		.s60 { mix-blend-mode: soft-light;fill: #f4f7fa } 
		.s61 { fill: url(#g47) } 
		.s62 { fill: url(#g48) } 
		.s63 { fill: url(#g49) } 
		.s64 { fill: url(#g50) } 
		.s65 { opacity: .3;mix-blend-mode: multiply;fill: url(#g51) } 
		.s66 { fill: url(#g52) } 
		.s67 { fill: url(#g53) } 
	</style>
	<g id="_Artboards_">
	</g>
	<g id="Background">
		<g id="&lt;Group&gt;">
			<g id="&lt;Group&gt;">
			</g>
		</g>
	</g>
	<g id="Illustration">
		<g id="&lt;Group&gt;">
			<g id="&lt;Clip Group&gt;" clip-path="url(#cp1)">
				<g id="&lt;Group&gt;">
					<g id="&lt;Clip Group&gt;" clip-path="url(#cp2)">
						<path id="&lt;Path&gt;" class="s0" d="m2080.04 2850.93l275.66 75.35c0 0 90.55-127.23 50.27-245.49-82.18-241.29 134.89-296.42 222.35-333.12 131.9-55.33 209.81-152.11 98.63-259.1-125.8-121.05 63.18-300.07 289.07-358.74 221.06-57.41 246.56-483.48-243.29-403.16-292.54 47.97-327.16 334.77-379.08 475.44-51.92 140.67-269.49 94.02-244.26 290.1 21.56 167.48 110.63 309.66-8.47 388.2-119.1 78.55-160.18 191.88-60.88 370.52z"/>
						<g id="&lt;Group&gt;" style="opacity: .5;mix-blend-mode: soft-light">
							<path id="&lt;Path&gt;" class="s1" d="m2192.36 2909.13l6.01 0.51c0.32-3.72 33.62-376.35 178.01-735.8 133.03-331.15 390.32-718.54 860.58-683.54l0.45-6.02c-209.34-15.58-394.6 49.79-550.64 194.3-124.64 115.44-230.97 281.35-316.03 493.13-144.71 360.27-178.06 733.69-178.38 737.42z"/>
							<path id="&lt;Path&gt;" class="s1" d="m2624.18 1741.79l5.97 0.85c28.61-198.75 176.47-451.76 177.95-454.3l-5.19-3.06c-1.5 2.55-149.96 256.59-178.73 456.51z"/>
							<path id="&lt;Path&gt;" class="s1" d="m2730.78 1648.35c229.27-68.51 396.29 40.08 397.95 41.19l3.35-5.02c-1.69-1.13-170.95-111.3-403.02-41.95z"/>
							<path id="&lt;Path&gt;" class="s1" d="m2294.78 2413.98c140.07-256.59 531.63-221.88 535.42-221.22l1.42-5.86c-3.66-1-400.82-34.68-542.13 224.19z"/>
							<path id="&lt;Path&gt;" class="s1" d="m2324.77 2297.23l6.02 0.37c11.51-186.19-146.45-359.64-148.05-361.37l-4.43 4.09c1.58 1.72 157.81 173.32 146.46 356.91z"/>
							<path id="&lt;Path&gt;" class="s1" d="m2204.9 2851.12c37.58-104.5 213.16-147.38 214.93-147.81l-1.4-5.86c-7.35 1.74-180.52 44.05-219.21 151.63z"/>
							<path id="&lt;Path&gt;" class="s1" d="m2211.6 2762.77l6 0.59c8.57-87.39-92.21-214.89-125.33-256.79-4.68-5.92-8.72-11.03-9.26-12.08l-5.4 2.68c0.74 1.49 3.41 4.9 9.93 13.14 32.74 41.43 132.39 167.5 124.06 252.46z"/>
						</g>
					</g>
					<g id="&lt;Group&gt;">
						<path id="&lt;Path&gt;" class="s2" d="m2365.88 1780.39c44.43 46.97 35.3 109.01 21.66 152.86-5.97 1.71-8.97 4.22-14.59 7.28-50.74 27.57-78.27 28.52-132.57 47.8-11.69 4.15-49.7 5.89-65.28 5.61l-29.03-1c0 0-88.24-119.83-25.99-177.25 62.25-57.43-7.11-181.87-35.73-252.32-17.57-43.27-11.75-68.68-15.66-85.62-41.34-179.25-109.78-215.85-87.42-282.4 24.69-73.47 115.16-49.89 146.24-128.39 35.09-88.64-56.71-178.21-4.76-254.68 8.91-13.11 18.42-26.33 36.21-37.75 43.92-28.19 91.17-11.64 113.85-61.23 45.6-99.68 150.99-160.44 244.68-97.34 92.48 62.27 61 246.75-101.75 433.63-100.59 146.09-92.61 179.13-57.47 255.18 24.61 53.26 126.63 181.39 63.15 261.81-63.47 80.43-106.32 160.1-55.54 213.81z"/>
						<g id="&lt;Clip Group&gt;" clip-path="url(#cp3)">
							<g id="&lt;Group&gt;" style="opacity: .5;mix-blend-mode: soft-light">
								<path id="&lt;Path&gt;" class="s3" d="m2269.9 1982.28l-4.2 0.67c-3.92-23.12-7.56-46.48-10.82-69.44-24.17-169.99-30.31-336.17-18.27-493.93 10.21-133.67 33.6-263.18 69.5-384.93 28.88-97.91 65.98-191.36 110.26-277.75 31.14-60.72 65.47-117.36 102.07-168.34 6.37-8.88 13.42-17.64 20.24-26.12 9.08-11.29 18.48-22.96 26.34-35.02l3.63 2.01c-7.98 12.22-17.44 23.97-26.58 35.34-6.79 8.43-13.8 17.15-20.11 25.94-36.48 50.81-70.71 107.28-101.76 167.84-44.18 86.17-81.18 179.4-109.99 277.08-35.84 121.5-59.17 250.75-69.36 384.17-12.03 157.49-5.89 323.41 18.24 493.14 3.26 22.92 6.89 46.25 10.81 69.34z"/>
								<path id="&lt;Path&gt;" class="s3" d="m2273.1 1185.32l-4.19-0.57c28.88-167.25-120.52-419.32-122.03-421.85l3.72-1.95c1.52 2.54 151.61 255.77 122.5 424.37z"/>
								<path id="&lt;Path&gt;" class="s3" d="m2236.43 1659.12l-4.24-0.11c5.32-115.59 192.92-256.33 194.81-257.74l2.62 3.06c-1.88 1.39-187.95 141.01-193.19 254.79z"/>
								<path id="&lt;Path&gt;" class="s3" d="m2239.52 1724.85l-4.21 0.59c-10.96-74.62-68.99-170.32-163.39-269.48-4.75-4.99-4.75-4.99-4.87-5.72l4.2-0.64-2.1 0.32 1.82-1.02c0.28 0.36 2.07 2.25 4.15 4.43 94.94 99.72 153.33 196.15 164.4 271.52z"/>
								<path id="&lt;Path&gt;" class="s3" d="m2263.39 1939.99l-4.19-0.55c13.85-82.33 129-145.62 130.16-146.25l2.1 3.39c-1.14 0.62-114.54 62.97-128.07 143.41z"/>
								<path id="&lt;Path&gt;" class="s3" d="m2263.82 1984.3c-34.82-58.23-88.97-108.82-165.53-154.68l2.34-3.31c77.15 46.2 131.75 97.25 166.91 156.04z"/>
								<path id="&lt;Path&gt;" class="s3" d="m2395.01 809.81l-4.15-0.78c21.64-92.24 21.38-193.46 21.3-226.73-0.02-8.05-0.02-10.88 0.17-11.87l4.18 0.62c-0.13 0.75-0.12 5.36-0.11 11.18 0.09 33.37 0.34 134.92-21.39 227.58z"/>
								<path id="&lt;Path&gt;" class="s3" d="m2336 955.31l-3.69-1.88c46.75-77.52 230.22-126.98 238-129.05l1.11 3.79c-1.89 0.5-189.53 51.07-235.42 127.14z"/>
							</g>
						</g>
					</g>
					<g id="&lt;Group&gt;">
						<path id="&lt;Path&gt;" class="s4" d="m2365.94 2399.74c-14.68-0.12-6.47-76.8-59.86-167.4-13.34-22.63-77.54-151.13-185.17-142.25q-31.34 2.59-62.68 5.17c-23.43-44.62-37.25-91.01 23.76-116.39 94.75-39.4 75.47-203.04 40.83-257.64-42.89-67.59-139.31-226.89 6.15-289.98 121.1-52.52 210.62-63.06 199.14-217.29-11.48-154.23 64.46-260.26 212.89-268.53 156.21-8.7 257.46-218.31 393.03-168.2 236.21 87.3 80.59 448.54-175.43 578.09-256.01 129.56-89.59 202.8-65.71 327.3 1.56 11.68 3.08 29.92 0.79 51.78-14.11 134.59-148.28 173.37-233.45 292.28-116.16 162.18-69.55 373.27-94.29 373.06z"/>
						<g id="&lt;Clip Group&gt;" clip-path="url(#cp4)">
							<g id="&lt;Group&gt;" style="opacity: .5;mix-blend-mode: soft-light">
								<path id="&lt;Path&gt;" class="s3" d="m2247.19 2060.75l-7.36-0.54c41.88-507.07 344.36-992.49 789.4-1266.81l4.03 5.83c-443.17 273.16-744.37 756.55-786.07 1261.52z"/>
								<path id="&lt;Path&gt;" class="s3" d="m2295.11 1786.13l-7.32 0.85c-25.57-198.42-225.52-332.43-227.54-333.76l4.22-5.71c2.05 1.35 204.67 137.08 230.64 338.62z"/>
								<path id="&lt;Path&gt;" class="s3" d="m2257.58 1967.66l-6.86-2.53c78.41-188.66 462.54-258.17 466.41-258.85l1.35 6.84c-3.82 0.67-383.98 69.48-460.9 254.54z"/>
								<path id="&lt;Path&gt;" class="s3" d="m2499.65 1326.5l-7.07-1.98c48.44-154.12-81.86-367.78-83.18-369.92l6.36-3.51c1.34 2.17 133.23 218.43 83.89 375.41z"/>
								<path id="&lt;Path&gt;" class="s3" d="m2703.08 1066.7l-4.59-5.44c151.9-114.06 412.97-90.64 415.59-90.38l-0.74 6.92c-2.59-0.25-260.72-23.38-410.26 88.9z"/>
							</g>
						</g>
					</g>
				</g>
			</g>
			<g id="&lt;Group&gt;">
				<path id="&lt;Path&gt;" class="s5" d="m2690.99 2475.25l-1934.52 113.7v-1086.67l1934.52-17.66z"/>
				<g id="&lt;Group&gt;">
					<g id="&lt;Group&gt;">
						<g id="&lt;Group&gt;">
							<path id="&lt;Path&gt;" class="s6" d="m1490.74 2433.33l-137.68 7.49v-788.41l137.68-2.3z"/>
							<path id="&lt;Path&gt;" class="s6" d="m1518.98 1649.22c0 11.84-9.28 21.61-21.96 21.84l-162.55 2.82c-12.89 0.22-23.77-9.28-23.77-21.24v-2.75c0-11.96 11.37-21.81 24.27-22l161.59-2.48c12.69-0.19 22.42 9.25 22.42 21.08z"/>
							<path id="&lt;Path&gt;" class="s6" d="m1518.98 2431.34c0 11.83-9.28 21.99-21.96 22.68l-162.55 8.82c-12.89 0.7-23.77-8.42-23.77-20.37v-2.76c0-11.95 11.37-22.19 24.27-22.86l161.59-8.48c12.69-0.66 22.42 8.4 22.42 20.24z"/>
						</g>
						<g id="&lt;Group&gt;">
							<path id="&lt;Path&gt;" class="s7" d="m1398.96 2387.03c0 4.87-3.58 9.04-8.82 9.31-5.25 0.27-8.83-3.47-8.83-8.34v-688.43c0-4.88 3.58-8.91 8.83-9 5.24-0.1 8.82 3.77 8.82 8.64z"/>
							<path id="&lt;Path&gt;" class="s7" d="m1455.44 2384.33c0 4.86-5.37 9.01-10.59 9.28-5.22 0.27-10.59-3.46-10.59-8.32v-686.71c0-4.86 5.37-8.88 10.59-8.98 5.22-0.09 10.59 3.77 10.59 8.62z"/>
						</g>
					</g>
					<g id="&lt;Group&gt;">
						<g id="&lt;Group&gt;">
							<path id="&lt;Path&gt;" class="s6" d="m2172.06 2396.95l-127.09 6.82v-762.75l127.09-2.1z"/>
							<path id="&lt;Path&gt;" class="s6" d="m2200.3 1638.08c0 11.46-9.64 20.91-21.53 21.12l-153.06 2.64c-12.07 0.21-23.1-8.99-23.1-20.56v-2.66c0-11.57 11.02-21.1 23.09-21.28l152.46-2.32c11.89-0.18 22.14 8.96 22.14 20.42z"/>
							<path id="&lt;Path&gt;" class="s6" d="m2200.3 2395.07c0 11.45-9.64 21.26-21.53 21.91l-153.06 8.26c-12.07 0.66-23.1-8.18-23.1-19.75v-2.67c0-11.56 11.02-21.45 23.09-22.08l152.46-7.94c11.89-0.62 22.14 8.17 22.14 19.62z"/>
						</g>
						<g id="&lt;Group&gt;">
							<path id="&lt;Path&gt;" class="s7" d="m2087.33 2351.99c0 4.72-3.91 8.74-8.82 8.99-4.91 0.26-8.83-3.36-8.83-8.08v-666.17c0-4.72 3.92-8.62 8.83-8.71 4.91-0.09 8.82 3.66 8.82 8.37z"/>
							<path id="&lt;Path&gt;" class="s7" d="m2140.29 2349.28c0 4.7-3.94 8.71-8.83 8.97-4.88 0.25-8.82-3.36-8.82-8.07v-664.45c0-4.7 3.94-8.59 8.82-8.68 4.89-0.09 8.83 3.65 8.83 8.35z"/>
						</g>
					</g>
				</g>
				<path id="&lt;Path&gt;" class="s8" d="m2719.23 1514.12l-1998.06 21.22v-50.96l1998.06-16.58z"/>
				<path id="&lt;Path&gt;" class="s7" d="m2719.23 2473.49l-1998.06 117.35v-61.87l1998.06-111.72z"/>
				<path id="&lt;Path&gt;" class="s5" d="m2878.09 2602.2l-1895.69 124.45v-1075.38l1895.69-30.49z"/>
				<g id="&lt;Group&gt;">
					<g id="&lt;Group&gt;">
						<g id="&lt;Group&gt;">
							<g id="&lt;Group&gt;">
								<path id="&lt;Path&gt;" class="s9" d="m2570.96 2028.93l-134.14 4.93v-234.87l134.14-3.35z"/>
								<g id="&lt;Group&gt;">
									<g id="&lt;Group&gt;">
										<path id="&lt;Path&gt;" class="s5" d="m2489.77 1874.61l-35.3 1.07v-57l35.3-0.96z"/>
										<path id="&lt;Path&gt;" class="s5" d="m2556.84 1872.77l-38.83 1.16v-56.82l38.83-1.04z"/>
									</g>
									<g id="&lt;Group&gt;">
										<path id="&lt;Path&gt;" class="s5" d="m2489.77 1941.53l-35.3 1.2v-53.64l35.3-1.1z"/>
										<path id="&lt;Path&gt;" class="s5" d="m2556.84 1939.48l-38.83 1.3v-53.48l38.83-1.19z"/>
									</g>
									<g id="&lt;Group&gt;">
										<path id="&lt;Path&gt;" class="s5" d="m2489.77 2011.8l-35.3 1.33v-53.64l35.3-1.23z"/>
										<path id="&lt;Path&gt;" class="s5" d="m2556.84 2009.53l-38.83 1.43v-53.47l38.83-1.33z"/>
									</g>
								</g>
							</g>
							<g id="&lt;Group&gt;">
								<path id="&lt;Path&gt;" class="s9" d="m2758.06 2022.25l-134.14 4.84v-232.7l134.14-3.29z"/>
								<g id="&lt;Group&gt;">
									<g id="&lt;Group&gt;">
										<path id="&lt;Path&gt;" class="s5" d="m2676.87 1869.33l-35.3 1.04v-56.46l35.3-0.94z"/>
										<path id="&lt;Path&gt;" class="s5" d="m2743.94 1867.52l-42.36 1.14v-56.29l42.36-1.03z"/>
									</g>
									<g id="&lt;Group&gt;">
										<path id="&lt;Path&gt;" class="s5" d="m2676.87 1935.63l-35.3 1.18v-53.15l35.3-1.07z"/>
										<path id="&lt;Path&gt;" class="s5" d="m2743.94 1933.62l-42.36 1.27v-52.98l42.36-1.17z"/>
									</g>
									<g id="&lt;Group&gt;">
										<path id="&lt;Path&gt;" class="s5" d="m2676.87 2005.26l-35.3 1.3v-53.15l35.3-1.2z"/>
										<path id="&lt;Path&gt;" class="s5" d="m2743.94 2003.02l-42.36 1.41v-52.98l42.36-1.3z"/>
									</g>
								</g>
							</g>
						</g>
						<g id="&lt;Group&gt;">
							<g id="&lt;Group&gt;">
								<path id="&lt;Path&gt;" class="s9" d="m2570.96 2328.87l-134.14 6.98v-234.88l134.14-5.39z"/>
								<g id="&lt;Group&gt;">
									<g id="&lt;Group&gt;">
										<path id="&lt;Path&gt;" class="s5" d="m2489.77 2172.42l-35.3 1.63v-56.99l35.3-1.52z"/>
										<path id="&lt;Path&gt;" class="s5" d="m2556.84 2169.63l-38.83 1.76v-56.81l38.83-1.65z"/>
									</g>
									<g id="&lt;Group&gt;">
										<path id="&lt;Path&gt;" class="s5" d="m2489.77 2242.7l-35.3 1.75v-56.99l35.3-1.65z"/>
										<path id="&lt;Path&gt;" class="s5" d="m2556.84 2239.68l-38.83 1.9v-56.82l38.83-1.78z"/>
									</g>
									<g id="&lt;Group&gt;">
										<path id="&lt;Path&gt;" class="s5" d="m2489.77 2312.97l-35.3 1.88v-56.99l35.3-1.78z"/>
										<path id="&lt;Path&gt;" class="s5" d="m2556.84 2309.73l-38.83 2.04v-56.82l38.83-1.93z"/>
									</g>
								</g>
							</g>
							<g id="&lt;Group&gt;">
								<path id="&lt;Path&gt;" class="s9" d="m2758.06 2319.44l-134.14 6.84v-232.7l134.14-5.29z"/>
								<g id="&lt;Group&gt;">
									<g id="&lt;Group&gt;">
										<path id="&lt;Path&gt;" class="s5" d="m2676.87 2164.4l-35.3 1.59v-56.47l35.3-1.49z"/>
										<path id="&lt;Path&gt;" class="s5" d="m2743.94 2161.66l-42.36 1.72v-56.29l42.36-1.62z"/>
									</g>
									<g id="&lt;Group&gt;">
										<path id="&lt;Path&gt;" class="s5" d="m2676.87 2234.02l-35.3 1.72v-56.46l35.3-1.62z"/>
										<path id="&lt;Path&gt;" class="s5" d="m2743.94 2231.06l-42.36 1.87v-56.3l42.36-1.75z"/>
									</g>
									<g id="&lt;Group&gt;">
										<path id="&lt;Path&gt;" class="s5" d="m2676.87 2303.64l-35.3 1.85v-56.46l35.3-1.75z"/>
										<path id="&lt;Path&gt;" class="s5" d="m2743.94 2300.46l-42.36 2.01v-56.3l42.36-1.89z"/>
									</g>
								</g>
							</g>
						</g>
					</g>
					<g id="&lt;Group&gt;">
						<g id="&lt;Group&gt;">
							<g id="&lt;Group&gt;">
								<path id="&lt;Path&gt;" class="s9" d="m1282.46 2075.62l-155.32 5.59v-250.08l155.32-3.79z"/>
								<g id="&lt;Group&gt;">
									<g id="&lt;Group&gt;">
										<path id="&lt;Path&gt;" class="s5" d="m1187.15 1911.54l-38.83 1.21v-60.68l38.83-1.09z"/>
										<path id="&lt;Path&gt;" class="s5" d="m1261.28 1909.46l-42.36 1.31v-60.48l42.36-1.18z"/>
									</g>
									<g id="&lt;Group&gt;">
										<path id="&lt;Path&gt;" class="s5" d="m1187.15 1982.79l-38.83 1.35v-57.11l38.83-1.24z"/>
										<path id="&lt;Path&gt;" class="s5" d="m1261.28 1980.46l-42.36 1.47v-56.93l42.36-1.34z"/>
									</g>
									<g id="&lt;Group&gt;">
										<path id="&lt;Path&gt;" class="s5" d="m1187.15 2057.59l-38.83 1.5v-57.11l38.83-1.38z"/>
										<path id="&lt;Path&gt;" class="s5" d="m1261.28 2055.01l-42.36 1.63v-56.92l42.36-1.51z"/>
									</g>
								</g>
							</g>
							<g id="&lt;Group&gt;">
								<path id="&lt;Path&gt;" class="s9" d="m1490.74 2068.06l-151.8 5.48v-247.61l151.8-3.73z"/>
								<g id="&lt;Group&gt;">
									<g id="&lt;Group&gt;">
										<path id="&lt;Path&gt;" class="s5" d="m1398.96 1905.56l-38.84 1.19v-60.09l38.84-1.06z"/>
										<path id="&lt;Path&gt;" class="s5" d="m1469.56 1903.63l-49.42 1.28v-59.9l49.42-1.15z"/>
									</g>
									<g id="&lt;Group&gt;">
										<path id="&lt;Path&gt;" class="s5" d="m1398.96 1976.1l-38.84 1.33v-56.55l38.84-1.21z"/>
										<path id="&lt;Path&gt;" class="s5" d="m1469.56 1973.95l-49.42 1.43v-56.37l49.42-1.32z"/>
									</g>
									<g id="&lt;Group&gt;">
										<path id="&lt;Path&gt;" class="s5" d="m1398.96 2050.18l-38.84 1.47v-56.55l38.84-1.36z"/>
										<path id="&lt;Path&gt;" class="s5" d="m1469.56 2047.78l-49.42 1.6v-56.38l49.42-1.47z"/>
									</g>
								</g>
							</g>
						</g>
						<g id="&lt;Group&gt;">
							<g id="&lt;Group&gt;">
								<path id="&lt;Path&gt;" class="s9" d="m1282.46 2394.84l-155.32 7.9v-250.08l155.32-6.1z"/>
								<g id="&lt;Group&gt;">
									<g id="&lt;Group&gt;">
										<path id="&lt;Path&gt;" class="s5" d="m1187.15 2228.58l-38.83 1.84v-60.68l38.83-1.72z"/>
										<path id="&lt;Path&gt;" class="s5" d="m1261.28 2225.42l-42.36 1.99v-60.48l42.36-1.86z"/>
									</g>
									<g id="&lt;Group&gt;">
										<path id="&lt;Path&gt;" class="s5" d="m1187.15 2303.39l-38.83 1.99v-60.68l38.83-1.87z"/>
										<path id="&lt;Path&gt;" class="s5" d="m1261.28 2299.97l-42.36 2.16v-60.49l42.36-2.02z"/>
									</g>
									<g id="&lt;Group&gt;">
										<path id="&lt;Path&gt;" class="s5" d="m1187.15 2378.19l-38.83 2.14v-60.68l38.83-2.01z"/>
										<path id="&lt;Path&gt;" class="s5" d="m1261.28 2374.52l-42.36 2.32v-60.48l42.36-2.19z"/>
									</g>
								</g>
							</g>
							<g id="&lt;Group&gt;">
								<path id="&lt;Path&gt;" class="s9" d="m1490.74 2384.16l-151.8 7.75v-247.62l151.8-5.99z"/>
								<g id="&lt;Group&gt;">
									<g id="&lt;Group&gt;">
										<path id="&lt;Path&gt;" class="s5" d="m1398.96 2219.49l-38.84 1.8v-60.08l38.84-1.69z"/>
										<path id="&lt;Path&gt;" class="s5" d="m1469.56 2216.55l-49.42 1.95v-59.89l49.42-1.83z"/>
									</g>
									<g id="&lt;Group&gt;">
										<g id="&lt;Group&gt;">
											<path id="&lt;Path&gt;" class="s5" d="m1398.96 2293.56l-38.84 1.95v-60.08l38.84-1.83z"/>
										</g>
										<path id="&lt;Path&gt;" class="s5" d="m1469.56 2290.38l-49.42 2.12v-59.9l49.42-1.99z"/>
									</g>
									<g id="&lt;Group&gt;">
										<path id="&lt;Path&gt;" class="s5" d="m1398.96 2367.63l-38.84 2.1v-60.08l38.84-1.98z"/>
										<path id="&lt;Path&gt;" class="s5" d="m1469.56 2364.22l-49.42 2.27v-59.9l49.42-2.14z"/>
									</g>
								</g>
							</g>
						</g>
					</g>
				</g>
				<path id="&lt;Path&gt;" class="s9" d="m1980.99 2122.39l-12.15 0.51c-73.07 2.9-132.15 62.23-132.15 132.19v391.34l275.36-17.86v-386.14c0-69.03-58.59-122.91-131.06-120.04z"/>
				<g id="&lt;Group&gt;">
					<g id="&lt;Group&gt;">
						<path id="&lt;Path&gt;" class="s9" d="m1949.66 2051.55l-144.74 5.25v-242.24l144.74-3.57z"/>
						<g id="&lt;Group&gt;">
							<g id="&lt;Group&gt;">
								<path id="&lt;Path&gt;" class="s5" d="m1861.41 1892.5l-38.84 1.13v-58.78l38.84-1.02z"/>
								<path id="&lt;Path&gt;" class="s5" d="m1928.48 1890.65l-45.89 1.23v-58.6l45.89-1.11z"/>
							</g>
							<g id="&lt;Group&gt;">
								<path id="&lt;Path&gt;" class="s5" d="m1861.41 1961.51l-38.84 1.27v-55.32l38.84-1.16z"/>
								<path id="&lt;Path&gt;" class="s5" d="m1928.48 1959.45l-45.89 1.37v-55.15l45.89-1.26z"/>
							</g>
							<g id="&lt;Group&gt;">
								<path id="&lt;Path&gt;" class="s5" d="m1861.41 2033.98l-38.84 1.41v-55.32l38.84-1.3z"/>
								<path id="&lt;Path&gt;" class="s5" d="m1928.48 2031.69l-45.89 1.53v-55.16l45.89-1.41z"/>
							</g>
						</g>
					</g>
					<g id="&lt;Group&gt;">
						<path id="&lt;Path&gt;" class="s9" d="m2147.35 2044.45l-148.27 5.15v-239.93l148.27-3.49z"/>
						<g id="&lt;Group&gt;">
							<g id="&lt;Group&gt;">
								<path id="&lt;Path&gt;" class="s5" d="m2059.09 1886.88l-45.89 1.22v-58.23l45.89-1.09z"/>
								<path id="&lt;Path&gt;" class="s5" d="m2122.64 1885.07l-42.37 1.21v-58.05l42.37-1.09z"/>
							</g>
							<g id="&lt;Group&gt;">
								<path id="&lt;Path&gt;" class="s5" d="m2059.09 1955.24l-45.89 1.36v-54.8l45.89-1.25z"/>
								<path id="&lt;Path&gt;" class="s5" d="m2122.64 1953.22l-42.37 1.35v-54.64l42.37-1.23z"/>
							</g>
							<g id="&lt;Group&gt;">
								<path id="&lt;Path&gt;" class="s5" d="m2059.09 2027.02l-45.89 1.51v-54.8l45.89-1.4z"/>
								<path id="&lt;Path&gt;" class="s5" d="m2122.64 2024.77l-42.37 1.5v-54.63l42.37-1.39z"/>
							</g>
						</g>
					</g>
				</g>
				<path id="&lt;Path&gt;" class="s9" d="m2906.33 2600.26l-1955.7 128.47v-61.23l1955.7-122.96z"/>
				<path id="&lt;Path&gt;" class="s5" d="m2122.64 2563.15l-296.54 18.31v-13.83l296.54-18.11z"/>
				<path id="&lt;Path&gt;" class="s10" d="m996.77 1632.39l83.69-329.99-309.26 181.87z"/>
				<path id="&lt;Path&gt;" class="s11" d="m996.77 1632.39l83.69-329.99 1543.65 1.98 247.42 303.37z"/>
				<path id="&lt;Path&gt;" class="s6" d="m982.4 1658.34v1005.65l-226.03-137.47-0.72-978.57z"/>
				<path id="&lt;Path&gt;" class="s6" d="m721.17 2528.4l229.46 137.58v62.27l-229.46-136.92z"/>
				<path id="&lt;Path&gt;" class="s9" d="m982.08 2664.28l-225.87-137.2-33.69 1.89 226.56 138.32z"/>
				<g id="&lt;Group&gt;">
					<g id="&lt;Group&gt;">
						<path id="&lt;Path&gt;" class="s9" d="m918.86 2412.06l-123.56-56.2v-265.29l123.56 69.88z"/>
						<g id="&lt;Group&gt;">
							<g id="&lt;Group&gt;">
								<path id="&lt;Path&gt;" class="s5" d="m844.72 2202.4l-38.83-20.52v-63.23l38.83 21.61z"/>
								<path id="&lt;Path&gt;" class="s5" d="m904.74 2231.45l-35.31-18.78v-61.51l35.31 19.56z"/>
							</g>
							<g id="&lt;Group&gt;">
								<path id="&lt;Path&gt;" class="s5" d="m844.72 2280.07l-38.83-19.15v-63.23l38.83 20.24z"/>
								<path id="&lt;Path&gt;" class="s5" d="m904.74 2307.37l-35.31-17.81v-61.51l35.31 18.58z"/>
							</g>
							<g id="&lt;Group&gt;">
								<path id="&lt;Path&gt;" class="s5" d="m844.72 2357.74l-38.83-17.78v-63.23l38.83 18.87z"/>
								<path id="&lt;Path&gt;" class="s5" d="m904.74 2383.28l-35.31-16.83v-61.52l35.31 17.62z"/>
							</g>
						</g>
					</g>
				</g>
				<g id="&lt;Group&gt;">
					<g id="&lt;Group&gt;">
						<path id="&lt;Path&gt;" class="s9" d="m918.86 2072.28l-123.56-75.29v-265.29l123.56 88.97z"/>
						<g id="&lt;Group&gt;">
							<g id="&lt;Group&gt;">
								<path id="&lt;Path&gt;" class="s5" d="m844.72 1851.42l-38.83-26.88v-63.24l38.83 27.98z"/>
								<path id="&lt;Path&gt;" class="s5" d="m904.74 1888.67l-35.31-23.37v-61.51l35.31 24.15z"/>
							</g>
							<g id="&lt;Group&gt;">
								<path id="&lt;Path&gt;" class="s5" d="m844.72 1929.09l-38.83-25.51v-63.24l38.83 26.61z"/>
								<path id="&lt;Path&gt;" class="s5" d="m904.74 1964.59l-35.31-22.4v-61.51l35.31 23.18z"/>
							</g>
							<g id="&lt;Group&gt;">
								<path id="&lt;Path&gt;" class="s5" d="m844.72 2006.76l-38.83-24.14v-63.23l38.83 25.24z"/>
								<path id="&lt;Path&gt;" class="s5" d="m904.74 2040.51l-35.31-21.43v-61.51l35.31 22.2z"/>
							</g>
						</g>
					</g>
				</g>
				<path id="&lt;Path&gt;" class="s12" d="m2906.33 1649.8l-1955.7 34.39v-50.42l1955.7-29.85z"/>
				<path id="&lt;Path&gt;" class="s13" d="m950.63 1633.09l-229.46-148.42v52.08l229.46 147.88z"/>
				<path id="&lt;Path&gt;" class="s14" d="m771.2 1483.98l225.57 148.26-47.69 2.81-226.56-150.67z"/>
				<g id="&lt;Group&gt;">
					<path id="&lt;Path&gt;" class="s6" d="m1420.14 2787.56l-81.2-86.94v-61.16l81.2 87.18z"/>
					<g id="&lt;Group&gt;">
						<g id="&lt;Group&gt;">
							<path id="&lt;Path&gt;" class="s9" d="m2546.25 2593.9l-1006.09 64.59v-59.57l1006.09-61.75z"/>
							<path id="&lt;Path&gt;" class="s15" d="m2602.74 2646.77l-1119.06 75.07v-59.73l1119.06-71.91z"/>
							<path id="&lt;Path&gt;" class="s9" d="m2655.69 2703.13l-1235.55 86.18v-63.42l1235.55-82.5z"/>
						</g>
						<path id="&lt;Path&gt;" class="s6" d="m1542.16 2658.14l-86.72-86.66v-60.83l89.32 80.52z"/>
						<path id="&lt;Path&gt;" class="s16" d="m1483.68 2661.84l-88.25-84.15v58.19l88.25 86.71z"/>
						<path id="&lt;Path&gt;" class="s9" d="m1397.52 2577.75l56.44-6.11 87.46 86.74-58.23 3.74z"/>
						<path id="&lt;Path&gt;" class="s15" d="m1340.77 2639.43l56.75-3.56 85.67 85.98-60.8 4.07z"/>
						<path id="&lt;Path&gt;" class="s15" d="m1541.42 2598.82l-87.46-89.63 915.69-52.1 177.78 79.98z"/>
						<path id="&lt;Path&gt;" class="s6" d="m2602.32 2590.3l-56.07-18.04v21.64z"/>
						<path id="&lt;Path&gt;" class="s6" d="m2653.19 2643.39l-50.45-17.23v20.61z"/>
					</g>
				</g>
				<g id="&lt;Group&gt;">
					<g id="&lt;Group&gt;">
						<path id="&lt;Path&gt;" class="s9" d="m1540.16 2532.34v30.83c0 15.58 47.86 25.3 104.65 21.84 56.5-3.45 103.63-18.81 103.63-34.24v-30.52z"/>
						<path id="&lt;Path&gt;" class="s6" d="m1746.54 2521.87c0 15.42-45.57 30.64-102.06 34.01-56.8 3.39-103.06-6.48-103.06-22.05 0-15.58 46.26-30.84 103.06-34.08 56.49-3.21 102.06 6.69 102.06 22.12z"/>
					</g>
					<g id="&lt;Group&gt;">
						<path id="&lt;Path&gt;" class="s9" d="m1706.08 2522.61l-120.03 7.12v-758.78l120.03-2.72z"/>
						<path id="&lt;Path&gt;" class="s9" d="m1705.39 2519.78c0 7.63-27.1 15.41-60.63 17.38-33.65 1.97-61-2.64-61-10.32 0-7.68 27.35-15.47 61-17.4 33.53-1.93 60.63 2.7 60.63 10.34z"/>
					</g>
					<g id="&lt;Group&gt;">
						<path id="&lt;Path&gt;" class="s6" d="m1540.16 1754.43v31.59c0 15.58 47.86 15.24 104.65 13.9 56.5-1.34 103.63-3.23 103.63-18.65v-31.29z"/>
						<path id="&lt;Path&gt;" class="s6" d="m1746.54 1752.33c0 15.42-45.3 16.52-101.78 17.78-56.8 1.26-103.34 2.21-103.34-13.37 0-15.57 46.26-29.13 103.06-30.28 56.49-1.14 102.06 10.44 102.06 25.87z"/>
					</g>
				</g>
				<path id="&lt;Path&gt;" class="s6" d="m1500.22 1773.5l-86.65-57.06v-45.61l90.89 60.46z"/>
				<path id="&lt;Path&gt;" class="s6" d="m1413.57 1670.8l521.24-296.04 76.31 30.97-511.73 322.8z"/>
				<g id="&lt;Group&gt;">
					<path id="&lt;Path&gt;" class="s7" d="m1628.42 2494.36c0 2.68-1.9 4.99-4.75 5.15l-0.74 0.05c-2.86 0.16-5.1-1.88-5.1-4.57v-660.58c0-2.68 2.45-4.91 5.31-4.98l0.46-0.02c2.85-0.08 4.82 2.04 4.82 4.72z"/>
					<path id="&lt;Path&gt;" class="s7" d="m1677.84 2491.63c0 2.68-2.51 4.98-5.35 5.14l-2.21 0.04c-2.85 0.17-6.56-1.87-6.56-4.55v-659.07c0-2.67 3.61-4.9 6.45-4.97l1.67-0.02c2.84-0.07 6 2.04 6 4.71z"/>
				</g>
				<g id="&lt;Group&gt;">
					<g id="&lt;Group&gt;">
						<path id="&lt;Path&gt;" class="s9" d="m2221.48 2485.88v28.53c0 15.07 44.34 24.59 97.54 21.36 52.93-3.21 96.62-17.97 96.62-32.9v-28.26z"/>
						<path id="&lt;Path&gt;" class="s6" d="m2414.39 2474.92c0 14.93-42.71 29.57-95.63 32.7-53.21 3.15-96.54-6.5-96.54-21.57 0-15.07 43.33-29.74 96.54-32.75 52.92-3 95.63 6.69 95.63 21.62z"/>
					</g>
					<g id="&lt;Group&gt;">
						<path id="&lt;Path&gt;" class="s9" d="m2373.28 2473.64l-109.44 6.42v-730.96l109.44-2.44z"/>
						<path id="&lt;Path&gt;" class="s9" d="m2375.83 2472.81c0 7.39-25.4 14.86-56.81 16.69-31.52 1.84-57.14-2.69-57.14-10.12 0-7.43 25.62-14.91 57.14-16.71 31.41-1.79 56.81 2.75 56.81 10.14z"/>
					</g>
					<g id="&lt;Group&gt;">
						<path id="&lt;Path&gt;" class="s6" d="m2221.48 1739.84v28.56c0 15.07 44.34 14.78 97.54 13.53 52.93-1.25 96.62-3.04 96.62-17.97v-28.28z"/>
						<path id="&lt;Path&gt;" class="s6" d="m2414.39 1735.96c0 14.93-42.45 15.96-95.37 17.13-53.21 1.18-96.8 2.06-96.8-13.01 0-15.08 43.33-28.17 96.54-29.23 52.92-1.07 95.63 10.18 95.63 25.11z"/>
					</g>
				</g>
				<g id="&lt;Group&gt;">
					<path id="&lt;Path&gt;" class="s7" d="m2306.2 2445.93c0 2.59-2.67 4.82-5.34 4.97l-0.58 0.04c-2.68 0.15-4.67-1.83-4.67-4.42v-639.35c0-2.59 1.74-4.75 4.42-4.82l1.04-0.02c2.68-0.06 5.13 1.99 5.13 4.58z"/>
					<path id="&lt;Path&gt;" class="s7" d="m2348.56 2443.39c0 2.59-1.27 4.81-3.93 4.96l-1.29 0.05c-2.67 0.15-5.37-1.83-5.37-4.42v-637.93c0-2.59 3.14-4.74 5.81-4.81l0.36-0.02c2.66-0.06 4.42 1.98 4.42 4.57z"/>
				</g>
				<g id="&lt;Group&gt;">
					<path id="&lt;Path&gt;" class="s6" d="m2492.97 1700.06l-481.85-294.33c-2.12-1.29-4.85-1.28-6.98 0.04l-504.35 314.01c-2.51 1.56-3.65 4.8-2.81 7.45 0.85 2.66 3.47 4.78 6.46 4.72l986.19-20.12c2.73-0.06 5.13-2.19 5.9-4.75 0.77-2.57-0.27-5.62-2.56-7.02z"/>
					<path id="&lt;Path&gt;" class="s9" d="m2473.68 1701.48l-196.15 3.93-756.66 15.06 434.2-270.74 49.06-30.61c2.13-1.31 4.86-1.5 6.99-0.19z"/>
					<path id="&lt;Path&gt;" class="s5" d="m2064.19 1589.13c0 29.83-25.29 54.44-56.56 54.97-31.36 0.53-56.85-23.35-56.85-53.33 0-29.99 25.49-54.6 56.85-54.97 31.27-0.37 56.56 23.5 56.56 53.33z"/>
					<path id="&lt;Path&gt;" class="s17" d="m2277.53 1705.41l-756.66 15.06 434.2-270.74c11.13 28.36 13.26 63.07-13.64 97.23-62.26 79.11-59.79 144.39 107.13 121.08 91.71-12.78 172.65 6.65 228.97 37.37z"/>
				</g>
				<path id="&lt;Path&gt;" class="s9" d="m2489.52 1750.92l-990.29 22v-40.89l990.29-20.2z"/>
			</g>
			<g id="&lt;Group&gt;">
				<g id="&lt;Group&gt;">
					<path id="&lt;Path&gt;" class="s18" d="m1095.8 1666.75c-157.08 103.47-337.53 109.2-413.49 16.11l-0.07 0.03-0.27-0.44c-3.1-3.81-6.09-7.73-8.82-11.89-3.44-5.24-6.54-10.66-9.26-16.18l-88.08-136.82-18.29-28.44 181.67-115.73c28.85-32.53 63.9-63.08 104.23-89.68 45.37-29.87 92.68-51.57 138.83-65.16l181.84-115.81 100.79 175.45c0.37 0.58 0.82 1.12 1.19 1.7 3.92 5.89 7.32 12.02 10.29 18.33 4.73 9.98 8.34 20.4 10.9 31.23 24.69 104.77-51.33 244.96-191.46 337.3z"/>
					<path id="&lt;Path&gt;" class="s19" d="m1096.63 1667.94c-42.7 29.59-89.51 52.91-138.4 66.03-50.17 13.46-119.41 22.05-170.68 9.63-85.23-20.66-117.46-81.74-161.11-148.71-16.82-25.81-35.34-50.6-50.76-77.3 51.14 1.41 113.67 27.93 158.13 51.78 38.41 20.61 73.47 49.9 115.55 62.99 92.77 28.86 203.37-14.28 263.42-87.69 36.69-44.85 35.09-110.7 79.47-150.62 28.68-25.81 68.46-36.19 95.01-64.6-4.76 5.09 2.44 47.57 2.07 56.31-0.85 20.1-4.07 39.97-9.9 59.24-13.61 45-39.99 85.36-70.34 120.83-32.16 37.6-70.3 72.91-112.46 102.11z"/>
				</g>
				<path id="&lt;Path&gt;" class="s20" d="m1304.44 1013.68l-574.29 37.91-318.98 479.06-17.24 9.97 4.31 7.45 598.53-24.41 330.07-513-4.31-7.45z"/>
				<path id="&lt;Path&gt;" class="s21" d="m724.22 1041.35l-331.77 498.26 597.32-39.43 331.77-498.26z"/>
				<g id="&lt;Group&gt;">
					<path id="&lt;Path&gt;" class="s22" d="m575.8 1841.31c-4.46 0-8.21-3.48-8.49-7.99l-18.29-295.21c-0.15-2.37 0.7-4.69 2.34-6.41l291.34-304.6c3.25-3.41 8.64-3.52 12.04-0.27 3.4 3.25 3.52 8.64 0.27 12.04l-288.77 301.91 18.07 291.49c0.29 4.69-3.28 8.73-7.98 9.02q-0.27 0.02-0.53 0.02z"/>
				</g>
				<path id="&lt;Path&gt;" class="s23" d="m558.65 1824.83l6.77-10.37c2.59-3.93 7.09-6.13 11.78-5.74 4.69 0.39 8.78 3.3 10.68 7.6l4.35 11.55c1.24 2.8 1 5.81 0.8 8.87l-6.28 94.31c-0.14 2.03-8.14 3.14-18.94 2.42-10.8-0.71-18.58-2.88-18.44-4.91l6.29-94.58c0.22-3.26 1.19-6.42 2.99-9.15z"/>
			</g>
			<g id="&lt;Group&gt;">
				<g id="&lt;Group&gt;">
					<g id="&lt;Group&gt;">
						<path id="&lt;Path&gt;" class="s24" d="m1765.83 1496.46c9.49-10.22 26.48-54.18-4.52-63.21-31.17-9.08-48.5-20.58-91.42-54.99-42.93-34.42-53.96-4.87 6.67 51.02 60.63 55.89 75.78 81.7 89.27 67.18z"/>
						<path id="&lt;Path&gt;" class="s25" d="m1806.45 1432.26l-25.54 22.3c-5.33 4.65-13.09 5.25-19.08 1.47-2.79-1.77-4.57-4.75-4.81-8.04-0.24-3.29 1.1-6.5 3.61-8.64l37.33-31.94z"/>
					</g>
					<g id="&lt;Group&gt;">
						<path id="&lt;Path&gt;" class="s26" d="m2571.27 1217.57c45.12 39.52-49.06 169.14-199.52 127.13-182.31-50.91-414.18-28.03-570.49 99.23-9.06-8.07-31.52-20.73-21.25-31.11 141.2-142.78 271.98-224.75 380.3-246.74 163.77-33.25 282.49-61.05 410.96 51.49z"/>
						<g id="&lt;Group&gt;" style="opacity: .24;mix-blend-mode: multiply">
							<path id="&lt;Path&gt;" class="s27" d="m2042.33 1271.86c-26.45 15.38-32.08-15.88-45.73-36.44 58.57-35.96 113.57-59.16 163.71-69.34 163.77-33.25 282.49-61.05 410.96 51.49 45.12 39.52-49.06 169.14-199.52 127.13-54.41-15.19-113.26-23.65-173.18-24.88-48.19-30.31-87.62-99.85-156.24-47.96z"/>
						</g>
					</g>
				</g>
				<g id="&lt;Group&gt;">
					<path id="&lt;Path&gt;" class="s28" d="m2597.9 1352.59l9.26 3.54c0 0 59.9-56.56 70.58-70.97 13.03-17.59-133.67-62.43-181.3-121.1-50.06-61.64-10.51 73.19-10.51 73.19z"/>
				</g>
				<g id="&lt;Group&gt;">
					<path id="&lt;Path&gt;" class="s29" d="m2652.22 797.67c0 0-53.18 7.29-111.49 110.7-43.85 77.75-139.04 142.16-139.04 142.16l-9.78 61.17 79.01 13.88 28.26-18.61 77.1-164.03z"/>
					<g id="&lt;Group&gt;">
						<path id="&lt;Path&gt;" class="s30" d="m2755.34 791.08c0 0 131.1 16.16 133.91 167.01 2.6 139.21-47.62 193.14-170.86 309.22-12.4 11.67-32.49 11.67-33.98 13.35q-12.02 13.53-24.32 28.28c-110.3-105.85-234.66-141.69-234.66-141.69 0 0 115.01-237.95 165.55-316.83 52.11-81.32 130.71-67.43 164.36-59.34z"/>
						<g id="&lt;Group&gt;" style="opacity: .2;mix-blend-mode: multiply">
							<path id="&lt;Path&gt;" class="s31" d="m2537.69 1142.48c55.34 29.61 133.77 26.26 162.61-10.38 21.72-27.6 25.24-37.88 51.68-81.21 21.27-34.86 31.63-40.45 78.11-69.8 17.54-11.08 37.44-27.11 56.97-51.14 1.23 8.83 2.01 18.17 2.19 28.14 2.6 139.21-47.62 193.14-170.86 309.22-12.4 11.67-32.49 11.67-33.98 13.35-8.01 9.03-16.12 18.44-24.32 28.28-110.3-105.85-234.66-141.69-234.66-141.69 0 0 19.08-37.43 44.36-90.05 18.34 30.72 32.4 46.29 67.9 65.28z"/>
						</g>
					</g>
					<path id="&lt;Path&gt;" class="s32" d="m2628.08 1146.91c0 0-24.85 1.15-42.49-5.96-17.65-7.11-16.2-8.74-36.5-11.32-19.75-2.51-58.63-14.22-36.62-34.25 24.51-22.29 66.51-16.04 78.58-1.24 11.63 14.26 31.8 23.32 31.8 23.32z"/>
					<path id="&lt;Path&gt;" class="s33" d="m2849.68 866.27c0 0 72.8 8.47 30.32 242.93-22.04 121.6-130.96 104.49-262.48 54.24-8.91-18.62 2.55-58.1 2.55-58.1 0 0 163.41 67.37 167.64-30.92 4.74-110.2 19.48-219.79 61.97-208.15z"/>
					<path id="&lt;Path&gt;" class="s34" d="m2724.84 840.96c31.16 0 62.82-23.08 64.34-24.2 0.52-0.39 0.64-1.13 0.25-1.65-0.39-0.53-1.13-0.64-1.66-0.25-0.41 0.31-42.03 30.65-75.71 22.23-9.34-2.33-15.73-6.9-18.99-13.57-6.22-12.71 0.83-29 0.9-29.16 0.26-0.6-0.01-1.29-0.61-1.56-0.6-0.26-1.29 0.01-1.56 0.61-0.31 0.7-7.55 17.46-0.86 31.15 3.59 7.32 10.5 12.31 20.54 14.82 4.38 1.1 8.87 1.58 13.36 1.58z"/>
					<path id="&lt;Path&gt;" class="s35" d="m2678.51 1275.84c0.32 0 0.64-0.13 0.88-0.39 0.44-0.49 0.4-1.23-0.09-1.67-1.17-1.06-118.53-106.11-224.48-132.02-0.65-0.17-1.27 0.24-1.43 0.87-0.15 0.64 0.24 1.28 0.87 1.43 105.37 25.76 222.29 130.42 223.46 131.47 0.22 0.21 0.51 0.31 0.79 0.31z"/>
				</g>
				<g id="&lt;Group&gt;">
					<path id="&lt;Path&gt;" class="s36" d="m2759.08 731.26c0 0-4.41 50.77-0.42 60.39 3.98 9.62-8.61 22.73-33.5 27.78-24.89 5.05-5.19-50.64-5.19-50.64z"/>
					<path id="&lt;Path&gt;" class="s37" d="m2687.36 735.03c-25.87-14.1-25.32-80.34-10.69-85.38 8.4-2.9 12.53 17.52 40.25 29.33 21.59 9.2 36.94 4.44 44.82 17.14 3.7 5.97 5.11 14.77 3.91 22.18-0.62 3.81-2.34 8.75-6.44 18.36-3.64 8.52-3.35 8.19-4.49 10.69-2.74 5.99-8.3 16.27-19.69 29.21-1.53-3.65-3.69-8.12-6.73-12.86-1.17-1.82-5.85-8.92-12.07-14.43-11.34-10.03-21.45-10.19-28.87-14.24z"/>
					<path id="&lt;Path&gt;" class="s38" d="m2750.21 763.02c0 0-9.68 23.71-36.16 26.22-23.7 2.24-35.6-49.81-22.42-63.39 4.4-4.53 14.17-7.68 22.67-6.71 5.03 0.57 6.98 2.31 15.21 3.09 7.59 0.72 9.52-0.42 12.01 1.07 3.13 1.88 6.06 7.23 3.94 23.35 3.74-5.25 8.83-7.86 12.93-6.67 0.65 0.19 2.44 1.02 3.61 2.54 4.25 5.48 0 14.04-11.79 20.5z"/>
				</g>
				<g id="&lt;Group&gt;">
					<path id="&lt;Path&gt;" class="s39" d="m2610.62 1178.42c1.19 0.17 2.29 1.04 2.59 2.17 0.05 0.17-0.42 6.11-0.4 6.29 0.12 1.38-0.73 2.66-2.05 3.09l-111.48 36.21-208.32-81.59 98.98 7.57z"/>
					<path id="&lt;Path&gt;" class="s40" d="m2610.67 1177.61c1.37 0.2 2.42 1.32 2.54 2.7 0.12 1.38-0.73 2.66-2.05 3.09l-111.47 36.21-208.33-81.57 98.98 7.56z"/>
					<path id="&lt;Path&gt;" class="s41" d="m2504.62 1217.99l-16.61-217.32c-0.26-3.48-2.89-6.33-6.34-6.87l-249.48-39.04c-2.23-0.35-4.51 0.32-6.19 1.83-1.68 1.51-2.6 3.7-2.5 5.95l9.37 202.56c0.16 3.49 2.71 6.41 6.15 7.05l259.17 47.98z"/>
					<path id="&lt;Path&gt;" class="s39" d="m2499.28 1226.18l-17.12-222.11c-0.27-3.48-2.9-6.32-6.35-6.86l-249.48-39.04c-2.23-0.35-4.51 0.32-6.19 1.83-1.68 1.51-2.6 3.69-2.49 5.95l9.36 202.58c0.16 3.48 2.69 6.4 6.12 7.05z"/>
					<path id="&lt;Path&gt;" class="s42" d="m2499.28 1226.18l-266.15-50.6c-3.43-0.65-5.96-3.57-6.12-7.05l-2.82-61.09c79.28 45.02 178.65 50.75 271.24 68.81z"/>
				</g>
				<g id="&lt;Group&gt;">
					<path id="&lt;Path&gt;" class="s43" d="m2048.49 1180.65c3.64-12.63 11.68-26.59-17.03-36.78-20.83-7.39-57.03-9.77-89.93-11.46-46.1-2.36-56.7 25.22 10.67 42.77 44.12 11.49 91.11 23.44 96.29 5.47z"/>
					<path id="&lt;Path&gt;" class="s44" d="m2012.57 1161.31c-0.44 7.07 4.06 12.62 9.94 13.46 13.64 1.95 11.08-5.07 11.52-12.14 0.43-7.08 5.95-11.98-9.95-13.46-5.91-0.55-11.08 5.07-11.51 12.14z"/>
					<path id="&lt;Path&gt;" class="s45" d="m2152.55 1120.65l-13.47-2.12c0 0-26.23 2.45-98.52 22.38-15.48 2.57-36.57 47.74 8.77 49.51 45.35 1.77 100.53 35.54 100.53 35.54z"/>
					<path id="&lt;Path&gt;" class="s46" d="m2623.34 1330.8c0 0-6.6 58.6-142.89 53.27-136.28-5.33-379.75-146.81-378.21-221.05 1.53-74.24 92.13-44.58 185.93-1.67 79.18 36.22 201.48 57.2 226.54 61.09 32.09 4.98 116.38 80.2 108.63 108.36z"/>
					<g id="&lt;Group&gt;" style="opacity: .2;mix-blend-mode: multiply">
						<path id="&lt;Path&gt;" class="s47" d="m2445.02 1257.34c-63.08-6.42-77.25-51.69-155.75-64.78-50.87-8.48-68.83 6.54-94.76-10.83-20.47-13.71-30.92-37.61-35.95-63.57 34.79 2.95 81.74 21.29 129.61 43.19 76.9 35.18 194.48 55.98 224.14 60.71 0.88 0.14 20.76-6.97 20.76-6.97 0 0 14.8 8.46 25.42 15.13-41.36 22.17-90.43 29.47-113.47 27.12z"/>
					</g>
				</g>
			</g>
			<path id="&lt;Path&gt;" class="s48" d="m1175.87 2478.39c-55.91 5.09-89.65 97.68-103.85 136.65-16.05 44.04-41.81 114.72-9.11 180.38 28.91 58.06 86.95 78.92 151.23 102.03 117.89 42.39 215.59 21.4 253.26 12.76 56.23-12.9 105.89-24.29 122.07-63.77 23.1-56.38-40.26-125.66-43.73-129.37-55.01-58.71-102.83-33.59-187.66-80.17-116.24-63.81-122.9-163.91-182.21-158.51z"/>
			<g id="&lt;Group&gt;">
				<g id="&lt;Group&gt;">
					<g id="&lt;Group&gt;">
						<path id="&lt;Path&gt;" class="s49" d="m1408.15 2247.83c13.6-8.82 1.21-34.46 0.48-89.54-0.9-67.5 17.03-80.08 2.63-106.56-17.61-32.39-61.93-45.79-91.3-46.42-6.47-0.14-7.99-3.67-62.25 10.38-97.75 25.31-122.22-1.82-166 25.28-42.29 26.2-23.77 54.88-64.84 85.6-66.57 49.79-136.58-4.04-184.16 37.61-45 39.39-46.04 139.76 1.3 194.53 53.66 62.09 150.42 43.44 215.28 31.13 13.64-2.59 82.57-17.07 154.33-70.03 39.7-29.31 66.95-60.6 84.3-83.65 4.07-4.58 10.42-10.13 18.8-11.03 10.06-1.07 18.15 5.09 22.05 7.78 20.46 14.17 56.02 23.58 69.38 14.92z"/>
						<path id="&lt;Path&gt;" class="s50" d="m1353.52 2210.84c17.48-15.93 79.87 14.77 121.21 55.51 48.58 47.86 44.84 86.67 87.23 146.14 21.07 29.56 57.2 69.36 121.22 104.22q-6.8 16.99-13.6 33.98c-30.95 1.86-91.71 0.77-148.4-36.25-39.38-25.71-59.64-59.78-98.56-126.88-39.06-67.34-90.95-156.81-69.1-176.72z"/>
						<path id="&lt;Path&gt;" class="s51" d="m1747.55 3121.23l-48.7-29.26h-21.98c0 0-7.49 27.87-6.64 29.26 9.79 16.05 55.39 28.26 83.84 29.27 4.72 0.16 11.32 0.19 13.02-3.23 2.88-5.8-10-17.97-19.54-26.04z"/>
						<path id="&lt;Path&gt;" class="s52" d="m1697.99 3060.04c-3.14 18.11 0.83 27.56 5.09 32.85 3.01 3.72 5.68 4.78 23.51 20.2 5.89 5.09 8.89 7.82 8.21 9.25-0.78 1.64-5.98 0.75-17.22-1.95-24.49-5.89-36.79-8.95-39.8-14.85-2.72-5.33-0.31-7.74-0.47-22.28-0.1-9.57-2.05-17.28-3.58-22.1q12.13-0.56 24.26-1.12z"/>
						<path id="&lt;Path&gt;" class="s53" d="m1733.19 2916.46c0 0 22 26.26 18.42 55.04-3.58 28.78-42.11-13.3-47.48-27.52-5.38-14.22-11.65-34.48-11.65-34.48 0 0 27.02-16.81 40.71 6.96z"/>
						<path id="&lt;Path&gt;" class="s54" d="m1724.8 2875.38c0 0-5.97 30.59 5.41 46.73 5.67 8.04 13.32 14.86 11.07 21.41-1.5 4.38-7.23 7.53-12.08 7.04-9.28-0.96-14.42-15.19-18.05-25.22-5.36-14.83-8.35-46.55-8.35-46.55z"/>
						<path id="&lt;Path&gt;" class="s55" d="m1707.26 2901.17q10.15-3.7 20.3-7.4c10.56-24.11 23.44-63.71 19.14-111.85-11.07-123.79-125.56-189.39-138.28-196.41-31.2 15.65-62.79 37.73-63.94 65.57-1.43 34.94 46.17 53.41 90.91 104.5 26.86 30.67 55.56 76.37 71.87 145.59z"/>
						<path id="&lt;Path&gt;" class="s56" d="m1699.97 3074.2c22.35-87.34 16.64-158.61 10.19-199.67-9.75-62.05-29.57-188.28-113.85-235.35-18.4-10.28-44.71-19.48-76.78-48.06-26.77-23.86-43.79-48.96-54.06-66.64-112.71-33.06-216.67-19.66-262.54 40.78-5.3 6.99-18.57 22.14-21.14 44.48-5.79 50.4 43.73 111.08 99.3 123.75 70.63 16.11 111.61-56.41 174.18-32.29 17.5 6.75 32.34 23.48 62.02 56.93 37.76 42.55 58.99 81.82 67.02 97.53 23.91 46.79 42.04 81.33 44.68 126.09 0.62 10.42 0.99 31.49 13.2 54.21 9.38 17.44 22.09 29.07 31.54 36.26q13.12 0.99 26.24 1.98z"/>
						<path id="&lt;Path&gt;" class="s57" d="m1181.79 2609.74c2.57-22.34 15.84-37.49 21.14-44.48 45.87-60.44 149.83-73.84 262.54-40.78 10.27 17.68 27.29 42.78 54.06 66.64 32.07 28.58 58.38 37.78 76.78 48.06 51.46 28.74 78.87 86.99 94.65 142.13-23.41-36.3-43.45-45.95-58.96-46.12-22.2-0.25-32.12 18.73-58.63 16.14-28.33-2.77-34.81-26.19-57.77-28.88-6.88-0.81-15.34 0.25-25.5 5.66-13.55-14.2-23.66-22.6-34.83-26.91-62.57-24.12-103.55 48.4-174.18 32.29-55.57-12.67-105.09-73.35-99.3-123.75z"/>
						<path id="&lt;Path&gt;" class="s58" d="m1641.57 2678.24c-12.76-0.67-32.4-1.07-56.1 1.28-112.46 11.11-143.46 66.74-236.4 80.31-21.99 3.21-119.89 17.51-162.29-39.08-30.44-40.63-25.83-110.64 7.46-138.18 14.1-11.65 28.05-11.33 118.29-10.51 33.99 0.31 67.97 0.42 101.96 0.85 143.86 1.83 171.37-8.13 197.54 15.66 12.22 11.1 30.07 34.95 29.54 89.67z"/>
						<g id="&lt;Group&gt;">
							<g id="&lt;Group&gt;">
								<path id="&lt;Path&gt;" class="s59" d="m1337.87 2216.67c0 0-167.87-48.95-185.29 73.94-16.69 117.8 68.82 171.85 29.91 291.16-4.51 13.83 319.56-49.52 319.56-49.52-43.26-53.97-53.31-98.49-54.34-129.45-1.14-33.93 8.64-49.36 0-89.48 0 0-9.66-44.77-44.47-83.2-5-5.52-10.96-11.27-65.37-13.45z"/>
							</g>
							<path id="&lt;Path&gt;" class="s60" d="m1230.49 2556.37l-0.91-3.42c1.58-0.42 158.73-42.24 251.71-47.45l0.2 3.52c-92.61 5.2-249.42 46.93-251 47.35z"/>
						</g>
						<g id="&lt;Group&gt;">
							<path id="&lt;Path&gt;" class="s61" d="m1301.41 2143.02c1.54 7.19 9.37 45.74-6.41 55.66-3.42 2.15-9.99 3.38-23.13 5.84-8.6 1.62-15.82 2.6-20.91 3.21 0.73 6.47 2.91 16.99 10.37 26.56 20.92 26.83 62.85 19.89 68.83 18.8 21.1-3.84 41.85-10.36 46.87-14.34 7.63-6.07 13.63-10.62 17.18-15.24-8.17-3.94-24.64-14.35-35.7-17.75-8.27-2.54-16.03-4.36-23.09-5.66q-1.74-11.17-3.48-22.34-15.26-17.37-30.53-34.74z"/>
							<path id="&lt;Path&gt;" class="s62" d="m1300.67 2162.23c0 0 2.85 28.26 30.32 33.24 24.59 4.45 43.1-54.97 30.51-70.34-4.2-5.13-14.56-10-23.54-9.75-6.32 0.19-27.66 8.31-30.64 29.67-4.25-4.48-9.55-5.77-12.16-3.89-3.31 2.38-1.54 9.29-1.14 10.86 1.4 5.43 4.94 8.79 6.65 10.21z"/>
						</g>
					</g>
				</g>
				<g id="&lt;Group&gt;">
					<path id="&lt;Path&gt;" class="s63" d="m1536.27 2546.05l-256.94 12.5c-3.53 0.18-6.76 2.07-8.63 5.08l-7.11 11.41c-3.54 5.68 0.71 13 7.4 12.75l272.15-10.37z"/>
					<path id="&lt;Path&gt;" class="s64" d="m1803.5 2402.97l-265.44 5.15c-7.86 0.15-15.05 4.43-18.93 11.26l-91.92 161.72 280.34-11.17c7.69-0.31 14.71-4.47 18.67-11.08l85.16-142.28c3.63-6.05-0.83-13.73-7.88-13.6z"/>
					<path id="&lt;Path&gt;" class="s65" d="m1519.13 2419.38c3.88-6.83 11.07-11.11 18.93-11.26l5.81-0.11c0.87 8.56 3.5 16.4 8.74 22.73 16.37 19.76 43.56 7.57 63.83 28.48 22.27 22.96 1.7 50.31 21.61 71.68 20.95 22.5 54.83 4.18 93.78 18.58l-5.61 9.37c-3.96 6.61-10.98 10.77-18.67 11.08l-280.34 11.17z"/>
				</g>
				<g id="&lt;Group&gt;">
					<path id="&lt;Path&gt;" class="s66" d="m1300.27 2537.47q5.02-13.25 10.03-26.5c-36.96-10.13-88.07-25.1-140.51-43.84-8.21-2.93-17.96-6.57-21.16-15.21-8.96-24.24 48.03-49.35 70.19-102.28 20.49-48.95 9.21-116.88-14.57-124.9-49.49-16.7-224.98 201.74-162.3 293.83 35.43 52.05 144.66 60.34 258.32 18.9z"/>
				</g>
				<path id="&lt;Path&gt;" class="s67" d="m1310.3 2510.97c23.21-12.32 50.98 0.31 52.77 1.16 5.1 2.4 12.52 6.69 20.02 14.35 0.84 1.15 10.91 15.1 7.24 19.57-2.94 3.58-14.32 0.61-28-7.89-5.73-0.81-14.27-1.55-24.5-0.61-18.77 1.74-27.38 7.67-34.2 2.55-4.99-3.75-6.69-11.68-4.89-17.57 1.93-6.33 7.64-9.47 11.56-11.56z"/>
			</g>
		</g>
	</g>
</svg>