<svg version="1.2" xmlns="http://www.w3.org/2000/svg" viewBox="0 0 3710 3710" width="3710" height="3710">
	<defs>
		<linearGradient id="g1" x2="1" gradientUnits="userSpaceOnUse" gradientTransform="matrix(-2066.397,-1808.096,1929.971,-2205.683,3453.021,3272.326)">
			<stop offset="0" stop-color="#dae3fe"/>
			<stop offset="1" stop-color="#e9effd"/>
		</linearGradient>
		<linearGradient id="g2" x2="1" gradientUnits="userSpaceOnUse" gradientTransform="matrix(2100.466,1599.31,-1477.161,1940.041,866.484,1136.701)">
			<stop offset="0" stop-color="#09005d"/>
			<stop offset="1" stop-color="#1a0f91"/>
		</linearGradient>
		<linearGradient id="g3" x2="1" gradientUnits="userSpaceOnUse" gradientTransform="matrix(2069.037,-1732.058,1608.03,1920.879,-723.735,3161.927)">
			<stop offset="0" stop-color="#4f52ff"/>
			<stop offset="1" stop-color="#4042e2"/>
		</linearGradient>
		<linearGradient id="g4" x2="1" gradientUnits="userSpaceOnUse" gradientTransform="matrix(742.997,-1905.51,2625.701,1023.813,2013.206,417.043)">
			<stop offset="0" stop-color="#4f52ff"/>
			<stop offset="1" stop-color="#4042e2"/>
		</linearGradient>
		<linearGradient id="g5" x2="1" gradientUnits="userSpaceOnUse" gradientTransform="matrix(-666.057,724.483,-1108.194,-1018.822,1090.796,3085.418)">
			<stop offset="0" stop-color="#09005d"/>
			<stop offset="1" stop-color="#1a0f91"/>
		</linearGradient>
		<linearGradient id="g6" x2="1" gradientUnits="userSpaceOnUse" gradientTransform="matrix(59.162,0,0,59.993,874.604,3139.226)">
			<stop offset="0" stop-color="#febbba"/>
			<stop offset="1" stop-color="#ff928e"/>
		</linearGradient>
		<linearGradient id="g7" x2="1" gradientUnits="userSpaceOnUse" gradientTransform="matrix(-566.75,768.157,-706.005,-520.894,1143.241,2266.105)">
			<stop offset="0" stop-color="#4f52ff"/>
			<stop offset="1" stop-color="#4042e2"/>
		</linearGradient>
		<linearGradient id="g8" x2="1" gradientUnits="userSpaceOnUse" gradientTransform="matrix(-666.056,724.483,-794.166,-730.119,941.376,2948.049)">
			<stop offset="0" stop-color="#09005d"/>
			<stop offset="1" stop-color="#1a0f91"/>
		</linearGradient>
		<linearGradient id="g9" x2="1" gradientUnits="userSpaceOnUse" gradientTransform="matrix(51.082,0,0,78.507,661.383,3136.193)">
			<stop offset="0" stop-color="#febbba"/>
			<stop offset="1" stop-color="#ff928e"/>
		</linearGradient>
		<linearGradient id="g10" x2="1" gradientUnits="userSpaceOnUse" gradientTransform="matrix(-566.75,768.157,-527.345,-389.078,1042.232,2191.58)">
			<stop offset="0" stop-color="#4f52ff"/>
			<stop offset="1" stop-color="#4042e2"/>
		</linearGradient>
		<linearGradient id="g11" x2="1" gradientUnits="userSpaceOnUse" gradientTransform="matrix(399.298,-652.02,408.193,249.978,-4972.668,11338.49)">
			<stop offset="0" stop-color="#ff928e"/>
			<stop offset="1" stop-color="#fe7062"/>
		</linearGradient>
		<linearGradient id="g12" x2="1" gradientUnits="userSpaceOnUse" gradientTransform="matrix(-104.384,298.242,-164.304,-57.506,1373.699,1243.6)">
			<stop offset="0" stop-color="#febbba"/>
			<stop offset="1" stop-color="#ff928e"/>
		</linearGradient>
		<linearGradient id="g13" x2="1" gradientUnits="userSpaceOnUse" gradientTransform="matrix(-104.384,298.24,-129.24,-45.234,1462.918,1274.826)">
			<stop offset="0" stop-color="#febbba"/>
			<stop offset="1" stop-color="#ff928e"/>
		</linearGradient>
		<linearGradient id="g14" x2="1" gradientUnits="userSpaceOnUse" gradientTransform="matrix(78.628,-158.611,81.57,40.437,1382.728,1465.371)">
			<stop offset="0" stop-color="#febbba"/>
			<stop offset="1" stop-color="#ff928e"/>
		</linearGradient>
		<linearGradient id="g15" x2="1" gradientUnits="userSpaceOnUse" gradientTransform="matrix(399.298,-652.02,400.685,245.381,-5152.798,11228.192)">
			<stop offset="0" stop-color="#ff928e"/>
			<stop offset="1" stop-color="#fe7062"/>
		</linearGradient>
		<linearGradient id="g16" x2="1" gradientUnits="userSpaceOnUse" gradientTransform="matrix(382.5,0,0,195.197,456.671,2023.882)">
			<stop offset="0" stop-color="#febbba"/>
			<stop offset="1" stop-color="#ff928e"/>
		</linearGradient>
		<linearGradient id="g17" x2="1" gradientUnits="userSpaceOnUse" gradientTransform="matrix(210.323,876.349,-1187.034,284.888,954.891,1751.937)">
			<stop offset="0" stop-color="#09005d"/>
			<stop offset="1" stop-color="#1a0f91"/>
		</linearGradient>
		<linearGradient id="g18" x2="1" gradientUnits="userSpaceOnUse" gradientTransform="matrix(119.164,0,0,107.065,810.772,1983.777)">
			<stop offset="0" stop-color="#febbba"/>
			<stop offset="1" stop-color="#ff928e"/>
		</linearGradient>
		<linearGradient id="g19" x2="1" gradientUnits="userSpaceOnUse" gradientTransform="matrix(151.227,0,0,163.122,750.378,1614.966)">
			<stop offset="0" stop-color="#febbba"/>
			<stop offset="1" stop-color="#ff928e"/>
		</linearGradient>
		<linearGradient id="g20" x2="1" gradientUnits="userSpaceOnUse" gradientTransform="matrix(-10.383,318.266,-261.291,-8.524,872.659,1395.336)">
			<stop offset="0" stop-color="#febbba"/>
			<stop offset="1" stop-color="#ff928e"/>
		</linearGradient>
		<linearGradient id="g21" x2="1" gradientUnits="userSpaceOnUse" gradientTransform="matrix(187.39,-132.274,172.457,244.317,788.189,1529.966)">
			<stop offset="0" stop-color="#09005d"/>
			<stop offset="1" stop-color="#1a0f91"/>
		</linearGradient>
		<linearGradient id="g22" x2="1" gradientUnits="userSpaceOnUse" gradientTransform="matrix(-401.001,353.825,-502.025,-568.961,887.824,1425.931)">
			<stop offset="0" stop-color="#febbba"/>
			<stop offset="1" stop-color="#ff928e"/>
		</linearGradient>
		<linearGradient id="g23" x2="1" gradientUnits="userSpaceOnUse" gradientTransform="matrix(300.603,680.312,-242.003,106.931,2971.795,2643.141)">
			<stop offset="0" stop-color="#4f52ff"/>
			<stop offset="1" stop-color="#4042e2"/>
		</linearGradient>
		<linearGradient id="g24" x2="1" gradientUnits="userSpaceOnUse" gradientTransform="matrix(300.603,680.313,-444.029,196.198,2723.673,2752.777)">
			<stop offset="0" stop-color="#4f52ff"/>
			<stop offset="1" stop-color="#4042e2"/>
		</linearGradient>
		<linearGradient id="g25" x2="1" gradientUnits="userSpaceOnUse" gradientTransform="matrix(-126.453,490.637,-1109.197,-285.875,3007.564,2408.163)">
			<stop offset="0" stop-color="#4f52ff"/>
			<stop offset="1" stop-color="#4042e2"/>
		</linearGradient>
		<linearGradient id="g26" x2="1" gradientUnits="userSpaceOnUse" gradientTransform="matrix(-212.318,0,0,-15.296,2644.676,3099.729)">
			<stop offset="0" stop-color="#09005d"/>
			<stop offset="1" stop-color="#1a0f91"/>
		</linearGradient>
		<linearGradient id="g27" x2="1" gradientUnits="userSpaceOnUse" gradientTransform="matrix(58.011,400.802,-1292.183,187.026,2481.094,2691.468)">
			<stop offset="0" stop-color="#09005d"/>
			<stop offset="1" stop-color="#1a0f91"/>
		</linearGradient>
		<linearGradient id="g28" x2="1" gradientUnits="userSpaceOnUse" gradientTransform="matrix(-57.447,0,0,-49.461,2634.07,3035.746)">
			<stop offset="0" stop-color="#febbba"/>
			<stop offset="1" stop-color="#ff928e"/>
		</linearGradient>
		<linearGradient id="g29" x2="1" gradientUnits="userSpaceOnUse" gradientTransform="matrix(146.585,-256.102,1300.585,744.415,2213.617,3079.538)">
			<stop offset="0" stop-color="#09005d"/>
			<stop offset="1" stop-color="#1a0f91"/>
		</linearGradient>
		<linearGradient id="g30" x2="1" gradientUnits="userSpaceOnUse" gradientTransform="matrix(58.011,400.803,-448.968,64.982,2193.754,2733.054)">
			<stop offset="0" stop-color="#09005d"/>
			<stop offset="1" stop-color="#1a0f91"/>
		</linearGradient>
		<linearGradient id="g31" x2="1" gradientUnits="userSpaceOnUse" gradientTransform="matrix(-454.755,0,0,-510.292,2951.722,2776.531)">
			<stop offset="0" stop-color="#09005d"/>
			<stop offset="1" stop-color="#1a0f91"/>
		</linearGradient>
		<linearGradient id="g32" x2="1" gradientUnits="userSpaceOnUse" gradientTransform="matrix(-68.583,0,0,-77.63,2361.975,3040.581)">
			<stop offset="0" stop-color="#febbba"/>
			<stop offset="1" stop-color="#ff928e"/>
		</linearGradient>
		<linearGradient id="g33" x2="1" gradientUnits="userSpaceOnUse" gradientTransform="matrix(499.247,566.047,-1435.35,1265.962,2538.645,2587.062)">
			<stop offset="0" stop-color="#09005d"/>
			<stop offset="1" stop-color="#1a0f91"/>
		</linearGradient>
		<linearGradient id="g34" x2="1" gradientUnits="userSpaceOnUse" gradientTransform="matrix(-33.813,-85.266,71.866,-28.499,2742.932,2074.133)">
			<stop offset="0" stop-color="#febbba"/>
			<stop offset="1" stop-color="#ff928e"/>
		</linearGradient>
		<linearGradient id="g35" x2="1" gradientUnits="userSpaceOnUse" gradientTransform="matrix(-480.168,737.944,-846.979,-551.115,3086.609,1967.599)">
			<stop offset="0" stop-color="#ff928e"/>
			<stop offset="1" stop-color="#fe7062"/>
		</linearGradient>
		<linearGradient id="g36" x2="1" gradientUnits="userSpaceOnUse" gradientTransform="matrix(-139.284,527.931,-137.98,-36.403,2884.931,1682.902)">
			<stop offset="0" stop-color="#ff928e"/>
			<stop offset="1" stop-color="#fe7062"/>
		</linearGradient>
		<linearGradient id="g37" x2="1" gradientUnits="userSpaceOnUse" gradientTransform="matrix(-158.419,0,0,-38.171,2454.06,2405.738)">
			<stop offset="0" stop-color="#febbba"/>
			<stop offset="1" stop-color="#ff928e"/>
		</linearGradient>
		<linearGradient id="g38" x2="1" gradientUnits="userSpaceOnUse" gradientTransform="matrix(151.344,150.953,-182.06,182.531,2639.697,1900.727)">
			<stop offset="0" stop-color="#febbba"/>
			<stop offset="1" stop-color="#ff928e"/>
		</linearGradient>
		<linearGradient id="g39" x2="1" gradientUnits="userSpaceOnUse" gradientTransform="matrix(-178.258,176.148,-319.324,-323.149,2771.334,1814.643)">
			<stop offset="0" stop-color="#09005d"/>
			<stop offset="1" stop-color="#1a0f91"/>
		</linearGradient>
		<linearGradient id="g40" x2="1" gradientUnits="userSpaceOnUse" gradientTransform="matrix(151.343,150.952,-280.858,281.584,2664.169,1876.194)">
			<stop offset="0" stop-color="#febbba"/>
			<stop offset="1" stop-color="#ff928e"/>
		</linearGradient>
		<linearGradient id="g41" x2="1" gradientUnits="userSpaceOnUse" gradientTransform="matrix(-560.011,596.586,-632.226,-593.466,36402.74,-33834.863)">
			<stop offset="0" stop-color="#4f52ff"/>
			<stop offset="1" stop-color="#4042e2"/>
		</linearGradient>
		<linearGradient id="g42" x2="1" gradientUnits="userSpaceOnUse" gradientTransform="matrix(-31.642,746.234,-248.236,-10.526,2427.479,3164.955)">
			<stop offset="0" stop-color="#4f52ff"/>
			<stop offset="1" stop-color="#4042e2"/>
		</linearGradient>
		<linearGradient id="g43" x2="1" gradientUnits="userSpaceOnUse" gradientTransform="matrix(-31.642,746.23,-187.266,-7.94,2211.183,3155.781)">
			<stop offset="0" stop-color="#4f52ff"/>
			<stop offset="1" stop-color="#4042e2"/>
		</linearGradient>
		<linearGradient id="g44" x2="1" gradientUnits="userSpaceOnUse" gradientTransform="matrix(-31.642,746.233,-257.654,-10.925,2305.214,3159.77)">
			<stop offset="0" stop-color="#4f52ff"/>
			<stop offset="1" stop-color="#4042e2"/>
		</linearGradient>
		<linearGradient id="g45" x2="1" gradientUnits="userSpaceOnUse" gradientTransform="matrix(58.32,431.216,-1891.239,255.783,2341.517,2434.764)">
			<stop offset="0" stop-color="#09005d"/>
			<stop offset="1" stop-color="#1a0f91"/>
		</linearGradient>
	</defs>
	<style>
		.s0 { fill: url(#g1) } 
		.s1 { fill: url(#g2) } 
		.s2 { fill: #91b3fa } 
		.s3 { fill: #bdd0fb } 
		.s4 { fill: #ffffff } 
		.s5 { opacity: .54;fill: #ffffff } 
		.s6 { fill: url(#g3) } 
		.s7 { fill: url(#g4) } 
		.s8 { opacity: .37;fill: #ffffff } 
		.s9 { opacity: .74;fill: #ffffff } 
		.s10 { fill: url(#g5) } 
		.s11 { fill: url(#g6) } 
		.s12 { fill: url(#g7) } 
		.s13 { fill: url(#g8) } 
		.s14 { fill: url(#g9) } 
		.s15 { fill: url(#g10) } 
		.s16 { fill: url(#g11) } 
		.s17 { fill: url(#g12) } 
		.s18 { fill: url(#g13) } 
		.s19 { fill: url(#g14) } 
		.s20 { fill: url(#g15) } 
		.s21 { fill: url(#g16) } 
		.s22 { fill: url(#g17) } 
		.s23 { fill: url(#g18) } 
		.s24 { fill: url(#g19) } 
		.s25 { fill: url(#g20) } 
		.s26 { fill: url(#g21) } 
		.s27 { fill: url(#g22) } 
		.s28 { fill: url(#g23) } 
		.s29 { fill: url(#g24) } 
		.s30 { fill: url(#g25) } 
		.s31 { fill: url(#g26) } 
		.s32 { fill: url(#g27) } 
		.s33 { fill: url(#g28) } 
		.s34 { fill: url(#g29) } 
		.s35 { fill: url(#g30) } 
		.s36 { fill: url(#g31) } 
		.s37 { fill: url(#g32) } 
		.s38 { fill: url(#g33) } 
		.s39 { fill: url(#g34) } 
		.s40 { fill: url(#g35) } 
		.s41 { fill: url(#g36) } 
		.s42 { fill: url(#g37) } 
		.s43 { fill: url(#g38) } 
		.s44 { fill: url(#g39) } 
		.s45 { fill: url(#g40) } 
		.s46 { fill: url(#g41) } 
		.s47 { fill: url(#g42) } 
		.s48 { fill: url(#g43) } 
		.s49 { fill: url(#g44) } 
		.s50 { fill: url(#g45) } 
	</style>
	<g id="Illustration">
		<g>
			<path class="s0" d="m3101.07 2333.7c-266.9 629.35-977.84 981.91-1594.38 886.81-100.32-15.48-375.36-61.57-618.87-279.05-468.77-418.65-569.02-1247.64-190.87-1831.85 275.22-425.2 768.58-666.23 1237.37-654.18 100.97 2.6 487.96 18.61 828.06 299.45 49.95 41.25 160.13 139.27 259.42 294.78 233.17 365.15 253.21 873.89 79.27 1284.04z"/>
			<g>
				<g>
					<path class="s1" d="m3128.87 1134.07l-2374.17-40.12c-95.59-1.61-172.31 80.37-166.63 178.05l81.72 1405.35c4.47 76.91 66.34 137.16 141.6 137.9l2282.16 22.57c56.37 0.56 102.94-44.89 105.08-102.55l54.61-1466.74c2.7-72.59-53.42-133.26-124.37-134.46z"/>
					<path class="s2" d="m3092.47 1169.87l-2312.2-38.17c-93.09-1.53-167.81 76.46-162.28 169.4l79.59 1337.05c4.35 73.17 64.6 130.5 137.9 131.2l2222.59 21.48c54.9 0.53 100.26-42.72 102.35-97.58l53.18-1395.45c2.63-69.06-52.03-126.79-121.13-127.93z"/>
				</g>
				<path class="s3" d="m3040.43 1207.67l-2223.26-36.35c-89.51-1.46-161.36 72.81-156.04 161.31l76.53 1273.19c4.19 69.68 62.12 124.26 132.6 124.94l2137.09 20.44c52.79 0.51 96.4-40.67 98.41-92.91l51.13-1328.8c2.53-65.77-50.02-120.73-116.46-121.82z"/>
				<g>
					<g style="opacity: .49">
						<path class="s4" d="m2739.99 1981.68h250.43c34.21 0 61.47 28.62 59.8 62.8l-28.5 582.02c-1.56 31.89-27.87 56.94-59.8 56.94h-221.94c-33.06 0-59.87-26.8-59.87-59.87v-582.02c0-33.07 26.81-59.87 59.88-59.87z"/>
						<path class="s4" d="m2137.62 1453.58l878.92 13.57c33.84 0.53 60.53 28.98 58.87 62.8l-14.63 298.88c-1.56 31.89-27.88 56.94-59.8 56.94h-864.29c-33.06 0-59.87-26.8-59.87-59.87v-312.46c0-33.42 27.38-60.38 60.8-59.86z"/>
						<path class="s4" d="m2102.88 1995.74h409.29c33.07 0 59.87 26.8 59.87 59.87v582.02c0 33.07-26.8 59.87-59.87 59.87h-409.3c-33.06 0-59.87-26.8-59.87-59.87v-582.02c0-33.07 26.81-59.87 59.87-59.87z"/>
					</g>
					<g>
						<g style="opacity: .64">
							<path class="s4" d="m1657.76 1830.66h245c15.38 0 27.84 12.46 27.84 27.84 0 15.38-12.46 27.84-27.84 27.84h-245c-15.38 0-27.85-12.46-27.85-27.84 0-15.38 12.47-27.84 27.85-27.84z"/>
							<path class="s4" d="m1284.11 1830.66h245c15.38 0 27.84 12.46 27.84 27.84 0 15.38-12.46 27.84-27.84 27.84h-245c-15.38 0-27.84-12.46-27.84-27.84 0-15.38 12.46-27.84 27.84-27.84z"/>
							<path class="s4" d="m1155.46 1886.35h-245c-15.37 0-27.84-12.47-27.84-27.85 0-15.38 12.47-27.84 27.84-27.84h245c15.38 0 27.85 12.46 27.85 27.84 0 15.38-12.47 27.85-27.85 27.85z"/>
							<path class="s4" d="m1657.76 1917.28h245c15.38 0 27.84 12.47 27.84 27.85v163.97c0 15.38-12.46 27.84-27.84 27.84h-245c-15.38 0-27.85-12.46-27.85-27.84v-163.97c0-15.38 12.47-27.85 27.85-27.85z"/>
							<path class="s4" d="m1284.11 1917.28h245c15.38 0 27.84 12.47 27.84 27.85v163.97c0 15.38-12.46 27.84-27.84 27.84h-245c-15.38 0-27.84-12.46-27.84-27.84v-163.97c0-15.38 12.46-27.85 27.84-27.85z"/>
							<path class="s4" d="m910.46 1917.28h245c15.38 0 27.85 12.47 27.85 27.85v163.97c0 15.38-12.47 27.84-27.85 27.84h-245c-15.37 0-27.84-12.46-27.84-27.84v-163.97c0-15.38 12.47-27.85 27.84-27.85z"/>
						</g>
					</g>
					<g>
						<path fill-rule="evenodd" class="s4" d="m1915.73 2683.44h-50.72v-229.56h50.72z"/>
						<path fill-rule="evenodd" class="s4" d="m1830.98 2683.44h-50.72v-150.66h50.72z"/>
						<path fill-rule="evenodd" class="s4" d="m1746.23 2683.44h-50.72v-345.65h50.72z"/>
						<path fill-rule="evenodd" class="s4" d="m1661.48 2683.44h-50.72v-83.04h50.72z"/>
						<path fill-rule="evenodd" class="s4" d="m1576.73 2683.44h-50.72v-299.44h50.72z"/>
						<path fill-rule="evenodd" class="s4" d="m1491.99 2683.44h-50.72v-247.59h50.72z"/>
						<path fill-rule="evenodd" class="s4" d="m1407.24 2683.44h-50.72v-191.24h50.72z"/>
						<path fill-rule="evenodd" class="s4" d="m1322.49 2683.44h-50.72v-415.53h50.72z"/>
						<path fill-rule="evenodd" class="s4" d="m1237.74 2683.44h-50.72v-371.57h50.72z"/>
						<path fill-rule="evenodd" class="s4" d="m1153 2683.44h-50.72v-305.08h50.72z"/>
						<path fill-rule="evenodd" class="s4" d="m1068.25 2683.44h-50.72v-75.33h50.72z"/>
						<path fill-rule="evenodd" class="s4" d="m983.5 2683.44h-50.72v-221.67h50.72z"/>
					</g>
					<path class="s5" d="m1783.01 2267.91h223.16c9.81 0 17.76 7.95 17.76 17.75 0 9.8-7.95 17.75-17.76 17.75h-223.16c-9.81 0-17.75-7.95-17.75-17.75 0-9.8 7.94-17.75 17.75-17.75z"/>
					<path class="s5" d="m1783.01 2212.36h223.16c9.81 0 17.76 7.95 17.76 17.75 0 9.8-7.95 17.75-17.76 17.75h-223.16c-9.81 0-17.75-7.95-17.75-17.75 0-9.8 7.94-17.75 17.75-17.75z"/>
					<path class="s5" d="m1380.4 2267.91h223.17c9.8 0 17.75 7.95 17.75 17.75 0 9.8-7.95 17.75-17.75 17.75h-223.17c-9.8 0-17.75-7.95-17.75-17.75 0-9.8 7.95-17.75 17.75-17.75z"/>
					<path class="s5" d="m1380.4 2212.36h223.17c9.8 0 17.75 7.95 17.75 17.75 0 9.8-7.95 17.75-17.75 17.75h-223.17c-9.8 0-17.75-7.95-17.75-17.75 0-9.8 7.95-17.75 17.75-17.75z"/>
				</g>
			</g>
			<g>
				<g>
					<path class="s6" d="m2523.39 1556.98h-1630.93c-36.09 0-65.35-29.26-65.35-65.35v-751.09c0-35.69 28.63-64.78 64.31-65.34l1633.81-25.86c71.86-1.13 130.72 56.8 130.72 128.67v646.41c0 73.21-59.35 132.56-132.56 132.56z"/>
					<path class="s7" d="m2481.13 1523.3h-1532.61c-33.92 0-61.41-26.36-61.41-58.88v-676.7c0-32.15 26.9-58.36 60.43-58.87l1535.31-23.29c67.53-1.03 122.85 51.17 122.85 115.92v582.39c0 65.96-55.77 119.43-124.57 119.43z"/>
					<path class="s2" d="m2656.24 876.36v-98.35c0-71.87-59.01-129.8-130.87-128.67l-1634.2 25.86c-35.68 0.56-64.72 29.65-64.72 65.34v135.82z"/>
					<path fill-rule="evenodd" class="s8" d="m954.61 803.13c-3.04 12.9-15.93 20.86-28.82 17.82-12.9-3.05-20.86-15.93-17.81-28.83 3.04-12.9 15.93-20.86 28.82-17.81 12.9 3.04 20.86 15.93 17.81 28.82z"/>
				</g>
				<g>
					<g>
						<path class="s9" d="m1218.61 1131.84c14.43-26.52 41.44-45.02 73.1-47.93l2.21-132.5c-90.21 0.59-167.82 53.67-202.56 131.2z"/>
						<path class="s4" d="m1316.99 1084.91c42.62 7.38 75.76 42.78 79.71 85.91l130.63 7.77c-1.66-116.43-92.22-214.08-208.13-225.96z"/>
						<path class="s9" d="m1395.69 1195.78c-7.71 43.91-46.26 76.9-92.89 76.32-13.77-0.17-26.89-3.26-38.74-8.66l-70.68 112.56c32.67 17.77 69.96 27.92 109.42 28.1 117.48 0.52 212.79-87.64 223.54-200.74z"/>
						<path class="s9" d="m1171.57 1362.53l70.86-112.65c-21.36-17.67-35.01-44.25-35.01-73.79 0-7.14 0.8-14.07 2.32-20.73l-127.39-49.08c-6.71 21.22-10.32 43.84-10.32 67.37 0 77.9 39.5 147.09 99.54 188.88z"/>
					</g>
					<g>
						<path class="s4" d="m1704.75 1141.9c13.6-25.75 39.07-43.73 68.92-46.58l2.09-128.67c-85.06 0.65-158.21 52.25-190.95 127.54z"/>
						<path class="s9" d="m1797.52 1096.28c40.19 7.13 71.45 41.5 75.18 83.38l123.25 7.49c-1.57-113.11-87.02-207.9-196.35-219.34z"/>
						<path class="s9" d="m1871.75 1203.91c-7.28 42.64-43.64 74.7-87.61 74.15-13-0.16-25.36-3.15-36.54-8.4l-66.63 109.32c30.79 17.25 65.95 27.1 103.17 27.27 110.8 0.49 200.73-85.17 210.87-195.04z"/>
						<path class="s9" d="m1660.41 1365.91l66.8-109.4c-20.14-17.15-33.01-42.95-33.01-71.63 0-6.93 0.76-13.67 2.18-20.13l-120.06-47.57c-6.32 20.6-9.72 42.56-9.72 65.39 0 75.62 37.22 142.78 93.81 183.34z"/>
					</g>
					<g>
						<path class="s9" d="m2163.44 1151.4c12.85-25.03 36.9-42.52 65.1-45.31l1.97-125.05c-80.33 0.7-149.4 50.9-180.31 124.07z"/>
						<path class="s9" d="m2251.06 1107.01c37.97 6.91 67.5 40.29 71.03 81l116.48 7.22c-1.48-109.97-82.24-202.06-185.55-213.09z"/>
						<path class="s4" d="m2321.19 1211.58c-6.88 41.45-41.23 72.62-82.77 72.11-12.27-0.15-23.95-3.06-34.51-8.15l-62.92 106.25c29.07 16.76 62.28 26.33 97.43 26.48 104.69 0.47 189.68-82.82 199.26-189.65z"/>
						<path class="s9" d="m2121.57 1369.09l63.08-106.33c-19.02-16.65-31.17-41.72-31.17-69.59 0-6.74 0.72-13.28 2.06-19.56l-113.35-46.16c-5.97 20.02-9.18 41.36-9.18 63.54 0 73.47 35.14 138.71 88.56 178.1z"/>
					</g>
				</g>
			</g>
			<g>
				<path class="s10" d="m880.25 3139.39c0 0-6.89 39.05-10.27 77.7-1.33 15.11 10.32 28.23 25.47 28.86 51.48 2.14 161.59 6.31 201.1 4.55 5.94-0.27 9.83-6.35 7.63-11.87-1.84-4.63-5.4-8.37-9.92-10.46l-181.89-83.59z"/>
				<path class="s11" d="m874.6 3116.44l5.55 46.71c0 0 31.86 14.83 53.62-1.87l-13.2-52.05z"/>
				<path class="s12" d="m878.77 2238.3c-2.39 12.2-12.85 608.7 50.91 876.01 1.04 4.36-1.17 8.86-5.32 10.55-9.78 4-28.95 9.78-51.93 10.56-7.11 0.23-13.49-4.39-15.5-11.22-18.23-62.02-105.56-372.76-116.96-669.6-12.73-331.69 0-11.29 0-11.29l7.47-205.03z"/>
				<path class="s13" d="m671.03 3159.76c0 0-10.98 19.71-21.61 72.1-1.92 9.46 4.69 18.51 14.3 19.46 16.99 1.67 43.16 3.82 64.12 3.67 9.66-0.06 17.2-8.48 16.04-18.07-2.32-19.12-9.55-50.49-31.9-74.94z"/>
				<path class="s14" d="m661.38 3099.68l12.95 70.64c0 0 12.81 9.52 38.14 2.62l-6.18-76z"/>
				<path class="s15" d="m626.4 2256.61c-52.15 314.71 11.31 777.85 32.72 868.49 1.3 5.55 5.78 9.8 11.41 10.74 9.55 1.58 25.28 2.87 40.79-1.63 5.34-1.55 9.09-6.37 9.31-11.93 2.87-73.29-2.3-523.18 46.29-700.98 2.47-9.01 7.97-16.87 15.58-22.28l94.31-67.05 7.23-108.37z"/>
				<g>
					<path class="s16" d="m958.69 1660.28c-156.28-2.58-328.71 41.03-328.71 41.03-46.59 271.81-8.15 585.33-8.15 585.33 120.99 31.73 257.47-19.4 257.47-19.4 20.11-113.61 113.93-433.35 113.93-433.35 76.35-9.47 139.26-31.51 191.06-60.63-39.52-45.8-58.14-104.08-66.23-138.53-55.26 17.17-111.17 26.35-159.37 25.55z"/>
					<path class="s17" d="m1420.31 1430.09c-15.36-18.54-34.79-9.77-34.79-9.77-22.99 97.14-143.58 175.91-267.46 214.41 8.09 34.45 26.71 92.73 66.23 138.53 205.59-115.6 236.02-343.17 236.02-343.17z"/>
				</g>
				<g>
					<path class="s18" d="m1416.58 1434.81c1.61 5.1-16.99 12.88-27.95-8.01-0.38-10.01-6.47-52.89-0.49-61.05 31.86-43.43 93.62-97.87 93.62-97.87 10.44 10.3 1.84 20.42 1.84 20.42l-29.96 31.21c6.26 11.33 13.91 20.89 17.49 34.58 2.72 10.38 1.06 21.46-4.18 30.9-5.26 9.48-12.44 21.8-19.22 31.44-12.84 18.24-31.15 18.38-31.15 18.38z"/>
					<path class="s19" d="m1440.53 1339.76l-27.3 23.15-8.57 23.04 24.34 27.01c0 0 8.19-45.72 14.27-55.62 6.08-9.9 2.93-14.68-2.74-17.58z"/>
				</g>
				<path class="s20" d="m689.92 1852.64l-59.94-151.33c0 0-145.97 99.18-169.98 224.94 27.58 2.03 77.77 9.2 126.9 34.01 10.79-59.38 103.02-107.62 103.02-107.62z"/>
				<path class="s21" d="m817.48 1995.03c0 0-163.89 92.62-219.19 13.53-11.48-16.42-14.22-32.74-11.4-48.3-49.12-24.81-99.31-31.98-126.89-34.01-7.24 37.91-3.41 78.23 18.86 118.98 96.87 177.19 360.31-9.79 360.31-9.79z"/>
				<g>
					<path class="s22" d="m797.79 2112.2l89.45-312.36c1.01-3.54 4.04-6.13 7.7-6.56 16.21-1.89 63.16-7.2 117.38-11.78 65.31-5.53 141.15-10 186.47-6.19 6.44 0.54 10.34 7.35 7.47 13.15-25.77 52.14-131.78 264.23-184.86 333.71-1.76 2.3-4.48 3.65-7.38 3.62l-207.53-1.93c-6.04-0.06-10.36-5.85-8.7-11.66z"/>
					<path class="s23" d="m819.4 2036.74c0 0-12.46-51.24-7.43-69.41 5.02-18.18 14.76-41.55 47.22-36.36 32.46 5.19 70.75 18.87 70.75 18.87 0 0-1.94 23.67-26.61 16.04l15.3 11.83c0 0-2.19 18.96-23.02 8.83l14.23 15.7c0 0-8.95 15.57-24.28 5.58-15.33-9.98-22.68 35.09-66.16 28.92z"/>
				</g>
				<path class="s24" d="m800.39 1533.41l-49.72 143.8c-0.82 2.38 0.15 5.02 2.36 6.24 13.55 7.49 62.39 29.15 121.24-8.16 6.13-3.89 10.3-10.22 11.23-17.42l16.11-124.46z"/>
				<g>
					<path class="s25" d="m902.8 1372.7c1.47 2.07 46.12 163.38 46.12 163.38l-92.65 23.54-65.04-146.61c0 0 87.13-74.94 111.58-40.31z"/>
					<path class="s26" d="m826.12 1435.29l28.19 79.85q0.54 1.54 1.47 2.86c3.83 5.44 18.36 23.18 35.6 7.2 15.65-14.5 30.14-27.5 43.52-29.86 6.01-1.06 11.83 2.61 13.46 8.49 4.05 14.66 12.58 47.86 15.58 77.83 0.61 6.08-3.59 11.58-9.59 12.72-18.1 3.44-56.47 9.62-88.5 7.36-4.34-0.31-8.16-2.91-9.97-6.87-8.82-19.28-35.87-77.81-45.93-92.95-9.44-14.21-32.59-13.81-42.29-12.95-3.18 0.28-6.31-0.75-8.72-2.85-8.49-7.45-24.65-26.45-1.92-49.2 4.76-4.76 4.63-12.44-0.27-17.05-9.76-9.18-20.2-25.46-3.94-45.66 16.54-20.52 38.36-17.25 51.73-12.37 5.41 1.97 11.31-0.32 14.25-5.26 1.67-2.82 4.59-4.95 9.65-4.52 6.82 0.59 12.55-5.1 12.43-11.95-0.24-13.14 4.47-29.76 27.28-36.85 40.47-12.6 65.71 26.5 68.21 55.68 2.5 29.17-42.15 40.33-68.41 38.37-19.97-1.5-34.79 18.29-40.75 27.86-1.89 3.03-2.27 6.75-1.08 10.12z"/>
					<path class="s27" d="m820.5 1530.89c0 0-6.53-50.65-27.6-53.13-21.07-2.48-41.58 14.83-20.63 43.26 26.05 35.37 48.23 9.87 48.23 9.87z"/>
				</g>
			</g>
			<g>
				<g>
					<path class="s28" d="m3076.53 2698.55c8.71 12.9 43.35 304.85 48.77 412.67 0.37 7.29-5.47 13.37-12.77 13.37-6.3 0-11.65-4.58-12.62-10.8l-63.35-405.95z"/>
					<path class="s29" d="m2798.08 2698.55c-8.71 12.9-43.35 304.85-48.77 412.67-0.37 7.29 5.47 13.37 12.77 13.37 6.29 0 11.65-4.58 12.62-10.8l63.35-405.95z"/>
					<path class="s30" d="m3128.92 2675.77l0.03 3.18c0.21 22.91-19.52 41.69-44.23 42.11l-292.8 4.98c-24.35 0.42-44.65-17.18-45.83-39.73l-0.15-2.91c-1.24-23.52 18.73-43.33 44.13-43.79l292.93-5.25c25.07-0.44 45.71 18.17 45.92 41.41z"/>
				</g>
				<g>
					<g>
						<path class="s31" d="m2559.3 3100.62c52.05 0 75.08-4.47 85.38-8.54-2.01 8.55-9.62 15.3-19.24 15.3h-184.14c-6.2 0-10.11-5.94-8.63-11.31 20.99 1.69 65.57 4.55 126.63 4.55z"/>
						<path class="s32" d="m2432.67 3096.07c0.3-1.09 0.74-2.15 1.51-3.14 14.03-17.91 42.2-46.03 80.53-45.49 56.15 0.79 75.73 6.88 119.36 0.34l10.29 34.12c1.05 3.48 1.07 6.95 0.32 10.18-10.3 4.07-33.33 8.54-85.38 8.54-61.06 0-105.64-2.87-126.63-4.55z"/>
					</g>
					<path class="s33" d="m2621.43 3011.01l12.64 42.98c0 0-27.99 12.74-52.61 2.51l-4.84-37.23z"/>
					<g>
						<path class="s34" d="m2239.79 3073.55c40.57 32.61 61.31 43.57 71.88 46.86-6.89 5.37-17.03 5.84-24.53-0.18l-143.54-115.34c-4.84-3.88-4.19-10.94 0.32-14.18 15.31 14.46 48.27 44.6 95.87 82.84z"/>
						<path class="s35" d="m2143.91 2990.71c0.91-0.65 1.92-1.21 3.14-1.49 22.09-5.11 61.59-9.28 91.13 15.15 43.28 35.78 54.74 52.77 92.83 75.03l-13.24 32.91c-1.35 3.36-3.5 6.07-6.1 8.1-10.57-3.29-31.31-14.25-71.88-46.86-47.6-38.24-80.56-68.38-95.87-82.84z"/>
					</g>
					<path class="s36" d="m2891.73 2521.41c0 0-311.63 25.44-375.55 55.54-63.93 30.09 52.17 451.87 52.17 451.87 0 0 17.4 8.37 56.12-3.66 0 0-39.71-311.26-10.16-378.75l337.41-55.19z"/>
					<path class="s37" d="m2361.97 3020.15c-2.89 2.64-30.96 59.25-30.96 59.25 0 0-31.25-6.76-37.62-26.54l28.12-51.09z"/>
					<path class="s38" d="m3079.42 2518.8c0 0 10.15 24.44 9.74 56.91-0.58 44.91-36.68 81.35-81.53 83.59l-368.39 16.8c-7.78 0.35-14.37 5.73-16.32 13.27-8.65 33.49-50.97 136.32-257.81 341.5-5.5 5.46-14.07 6.38-20.62 2.25l-29.45-18.6c-3.09-1.96-4.08-6.01-2.23-9.16l214.5-366.29c11.26-18.59 29.37-32.02 50.43-37.41l313.99-80.26z"/>
					<path class="s39" d="m2716.37 1946.64c0 0 39.47 69.77 79.7 103.57l-83.16 46.41c0 0-18.75-73.87-61.56-95.5z"/>
					<path class="s40" d="m3086.11 2521.41c0 0-99.45 24.23-194.38 0 0 0-132.83-178.56-184.22-227.16 0 0-81.97 129.34-264.42 147.67l-10.18-22.73c0 0 145.25-66.96 189.97-169.84 44.72-102.88 62.67-146.76 103.36-173.6 25.33-16.72 40.5-28.14 48.34-34.38 4.29-3.41 10.22-3.8 14.9-0.94 43.17 26.3 246.32 165.44 296.63 480.98z"/>
					<path class="s41" d="m2762.06 2198.22c0 0-17.68 46.09-49.15 87.13z"/>
					<path class="s42" d="m2454.06 2407.31l-20.54-5.47-62.35-14.44c-7.51-1.74-15.4-0.41-21.92 3.69l-53.61 33.73 148.06-0.25z"/>
					<g>
						<path class="s43" d="m2653.71 1842.01c0 0-38.35 63.75-45 98.99-6.66 35.24-17.34 57.26 22.76 69.82 40.11 12.55 77.38-3.34 100.77-36.23 0 0 36.52-50.62 32.88-73.8-3.64-23.18-111.41-58.78-111.41-58.78z"/>
						<path class="s44" d="m2721.56 1947.32l-5.19-0.68c0 0 27.16-41.04 9.39-51.22-17.77-10.18-90.18-35.16-102.76-63.68-12.12-27.49 6.01-58.55 27.88-65.03 1.38-0.41 2.84 0.41 3.34 1.76l1.28 3.46c0.88 2.37 4.2 2.47 5.22 0.15 0.96-2.19 4.1-2.29 5.09-0.1 3.88 8.54 15.49 23.13 50.32 34.42 49.41 16.02 80.19 40.93 76.4 76.04-0.24 2.22 1.97 3.76 4.02 2.85 4.04-1.78 10.16-2.06 17.27 5.71 12.37 13.53 2.68 43.11-31.09 64.04-1.61 1-1.89 3.26-0.46 4.49 5.05 4.33 12.16 13.97-10.69 22.57-23.37 8.8-36.13 5.82-40.84 3.93-1.27-0.51-1.99-1.82-1.73-3.16l6-30.77c0.31-1.59-0.78-3.11-2.39-3.32z"/>
						<path class="s45" d="m2719.43 1953.64c0 0 16.93-41.72 34.7-27.06 17.77 14.67-16.43 47.09-32.22 46.65z"/>
					</g>
				</g>
				<g>
					<g>
						<path class="s46" d="m2511.26 2453.87q-0.36 0.02-0.73 0.01l-316.29-0.31c-7.82-0.01-14.15-6.34-14.15-14.15 0.01-7.8 6.38-14.25 14.18-14.11l316.3 0.31c7.82 0.01 14.15 6.34 14.14 14.14-0.01 7.57-5.97 13.74-13.45 14.11z"/>
					</g>
				</g>
				<g>
					<path class="s47" d="m2370.42 2469.74c1.38 5.73 133.36 500.71 166.82 626.19 3.86 14.46-6.91 28.66-21.71 28.66-10.32 0-19.32-7.11-21.82-17.24l-146.5-594z"/>
					<path class="s48" d="m2298.15 2469.74c-1.38 5.73-133.36 500.71-166.82 626.19-3.85 14.46 6.92 28.66 21.72 28.66 10.32 0 19.31-7.11 21.81-17.24l146.51-594z"/>
					<path class="s49" d="m2292.65 2453.56h82.2v66.01c0 9.48-7.6 17.17-16.97 17.17h-11.28v148.27c0 7.18-5.75 13.01-12.85 13.01-7.1 0-12.85-5.83-12.85-13.01v-148.27h-5.72c-12.44 0-22.53-10.2-22.53-22.79z"/>
					<path class="s50" d="m2576.95 2437.7h-458.96c-6.41 0-12.01 4.4-13.62 10.68l-6.4 25.13c-2.31 9.04 4.47 17.84 13.7 17.79l470.94-2.74c9.13-0.05 15.79-8.75 13.56-17.71l-5.58-22.39c-1.57-6.32-7.19-10.76-13.63-10.76z"/>
				</g>
			</g>
			<path class="s4" d="m2465.65 2135.86v217.83c0 34.06-27.61 61.66-61.67 61.66h-298.33c-34.98 0-63.34-28.35-63.34-63.33v-327.97c0-27.6 34.08-40.62 52.48-20.05l57.65 64.44c22.19 24.8 59.76 28.29 86.14 8l5.52-4.25c20.34-15.65 48.86-14.95 68.41 1.67l31.58 26.85c24.3 20.67 58.27 25.67 87.5 12.88 16.06-7.03 34.06 4.74 34.06 22.27z"/>
		</g>
	</g>
</svg>