<svg width="78" height="91" viewBox="0 0 78 91" fill="none" xmlns="http://www.w3.org/2000/svg">
<path d="M25.1621 31.1298H32.501C41.8226 31.13 48.7507 39.7563 46.7393 48.8583L41.5137 72.5018C39.1559 83.1692 29.6993 90.7635 18.7744 90.7635H0.271484L10.9238 42.5643C12.4003 35.8849 18.3214 31.1298 25.1621 31.1298Z" fill="white" stroke="white" stroke-width="0.435285"/>
<path d="M28.8608 25.4712H36.1997C45.5213 25.4715 52.4494 34.0977 50.4379 43.1997L45.2123 66.8433C42.8546 77.5107 33.398 85.105 22.4731 85.105H3.97016L14.6225 36.9058C16.099 30.2263 22.0201 25.4712 28.8608 25.4712Z" fill="#F9F9F9" fill-opacity="0.48" stroke="white" stroke-width="0.435285"/>
<path d="M63.2546 26.9945H65.2468C71.3259 26.9945 75.7919 32.6998 74.3317 38.601L65.8024 73.0697C63.2305 83.463 53.9028 90.764 43.196 90.764H30.5124C30.6622 90.6593 30.8388 90.5369 31.0358 90.3969C31.7073 89.9197 32.6281 89.2514 33.6237 88.4877C35.6083 86.9652 37.9145 85.0461 39.1306 83.4984C40.3439 81.9541 41.386 79.9217 42.1227 78.2845C42.4919 77.4642 42.7863 76.7388 42.988 76.2191C43.0888 75.9594 43.1667 75.7507 43.2194 75.6068C43.2209 75.6029 43.2219 75.5989 43.2233 75.5951C43.2543 75.6067 43.2879 75.621 43.3249 75.6342C43.5257 75.7058 43.8145 75.7982 44.1677 75.8842C44.8728 76.0557 45.8435 76.2026 46.8952 76.0941C47.949 75.9854 49.0868 75.6202 50.1159 74.7689C51.1449 73.9177 52.0504 72.592 52.6608 70.5863C56.9414 56.5217 62.3638 30.4502 63.0417 27.1644C63.0622 27.0655 63.1491 26.9947 63.2546 26.9945Z" fill="white" stroke="white" stroke-width="0.435285"/>
<path d="M33.5159 7.45175C32.9938 7.61831 32.7327 7.77303 32.3035 8.12659C31.8121 8.24327 31.5367 8.25737 31.0453 8.12659C31.0453 8.12659 30.8512 7.93169 30.8394 7.77201C30.8263 7.59561 30.8965 7.4346 31.0281 7.36025C31.1598 7.28591 31.2913 7.406 31.6115 7.54326C31.0912 7.02284 30.664 6.87991 30.8394 6.77692C30.8394 6.77692 31.4457 6.63395 31.4971 6.77692C31.5485 6.9199 31.9432 7.02284 31.9432 7.02284C32.1207 6.99872 32.1806 6.95786 32.1319 6.77692C32.1319 6.77692 31.5275 6.28732 31.3656 5.84474C31.1975 5.3854 31.1205 5.01561 31.3656 4.5923C31.554 4.26679 32.1319 4.00897 32.1319 4.00897C32.1319 4.00897 32.3391 4.01625 32.4121 4.10619C32.4994 4.21372 32.4121 4.46077 32.4121 4.46077C32.4121 4.46077 32.0033 4.71431 31.9432 4.98119C31.8536 5.37819 32.1269 5.76736 32.5265 5.84474C32.6339 5.86555 32.8067 5.84474 32.8067 5.84474L33.1441 3.87744C32.9358 3.88846 32.8505 3.87269 32.8067 3.76878C32.8298 3.52699 32.8296 3.3911 32.9554 3.15114C33.029 3.08906 33.0705 3.09563 33.1441 3.15114C33.1441 3.15114 33.0997 2.3058 33.1441 1.76716C33.1881 1.23475 33.3672 0.417499 33.3672 0.417499V0.0057373H33.4815L33.5159 7.45175Z" fill="white" stroke="white" stroke-width="0.0114378"/>
<path d="M33.4281 7.42977C33.949 7.59584 34.2096 7.75009 34.638 8.10261C35.1282 8.21895 35.4031 8.23301 35.8935 8.10261C35.8935 8.10261 36.0871 7.90829 36.0989 7.74908C36.112 7.5732 36.042 7.41266 35.9106 7.33854C35.7792 7.26441 35.6479 7.38415 35.3285 7.521C35.8476 7.00212 36.2739 6.85961 36.0989 6.75693C36.0989 6.75693 35.4939 6.61438 35.4426 6.75693C35.3914 6.89948 34.9975 7.00212 34.9975 7.00212C34.8203 6.97808 34.7605 6.93733 34.8092 6.75693C34.8092 6.75693 35.4123 6.26877 35.5739 5.8275C35.7416 5.36952 35.8184 5.00082 35.5739 4.57876C35.3859 4.25421 34.8092 3.99715 34.8092 3.99715C34.8092 3.99715 34.6024 4.00441 34.5295 4.09409C34.4425 4.20129 34.5295 4.44761 34.5295 4.44761C34.5295 4.44761 34.9374 4.70041 34.9975 4.9665C35.0868 5.36233 34.8141 5.75035 34.4154 5.8275C34.3082 5.84825 34.1357 5.8275 34.1357 5.8275L33.799 3.86601C34.0069 3.877 34.0921 3.86127 34.1357 3.75767C34.1127 3.51659 34.113 3.38111 33.9874 3.14185C33.9139 3.07995 33.8725 3.0865 33.799 3.14185C33.799 3.14185 33.8434 2.29901 33.799 1.76196C33.7552 1.23112 33.5765 0.416283 33.5765 0.416283V0.0057373H33.4623L33.4281 7.42977Z" fill="white" stroke="white" stroke-width="0.0114378"/>
<path d="M32.3299 9.01343L32.4214 8.20706C32.4214 8.20706 33.0293 7.69646 33.4965 7.68092C33.9981 7.66423 34.6689 8.20706 34.6689 8.20706L34.7318 8.96195C34.7318 8.96195 34.0009 8.57642 33.4965 8.58451C32.9346 8.59352 32.3299 9.01343 32.3299 9.01343Z" fill="white" stroke="white" stroke-width="0.0114378"/>
<path d="M28.5609 15.7456L29.859 14.9503C29.859 14.9503 29.2191 13.0014 29.6074 11.8507C30.0286 10.6026 31.9522 9.42589 31.9522 9.42589C31.9522 9.42589 32.8492 8.8191 33.502 8.79681C34.2152 8.77245 35.2177 9.42589 35.2177 9.42589C35.2177 9.42589 37.0274 10.6341 37.4366 11.8507C37.8233 13.0007 37.225 14.9503 37.225 14.9503L38.3381 15.7456C38.3381 15.7456 36.2806 15.1494 33.502 15.1494C30.7234 15.1494 28.5609 15.7456 28.5609 15.7456Z" fill="white" stroke="white" stroke-width="0.0114378"/>
<path d="M33.5035 15.3918C36.1244 15.3918 38.4974 15.8907 40.2145 16.6975C41.9319 17.5045 42.9918 18.6187 42.9918 19.8469C42.9918 20.154 42.9252 20.4028 42.7994 20.6028C42.6737 20.8026 42.488 20.9543 42.2487 21.0676C41.7695 21.2946 41.0753 21.3671 40.2164 21.3625C39.3578 21.358 38.3355 21.276 37.1998 21.1956C36.064 21.1151 34.8145 21.0364 33.5035 21.0364C32.1927 21.0364 30.9439 21.1151 29.8082 21.1956C28.6723 21.276 27.6494 21.358 26.7906 21.3625C25.9319 21.3671 25.2375 21.2945 24.7584 21.0676C24.5192 20.9543 24.3333 20.8026 24.2076 20.6028C24.0819 20.4028 24.0163 20.154 24.0162 19.8469C24.0162 18.6186 25.0761 17.5045 26.7936 16.6975C28.5106 15.8908 30.8829 15.3919 33.5035 15.3918Z" fill="white" stroke="white" stroke-width="0.0114378"/>
<path d="M33.7786 17.3474C35.9793 17.3474 37.9717 17.7675 39.4134 18.446C40.8556 19.1249 41.7454 20.0618 41.7454 21.0945C41.7454 21.3525 41.6897 21.5613 41.5843 21.7292C41.4788 21.8973 41.3233 22.0255 41.1224 22.1208C40.7202 22.3116 40.1375 22.3718 39.4163 22.3679C38.6952 22.3641 37.836 22.2959 36.8821 22.2283C35.9285 22.1606 34.8794 22.0935 33.7786 22.0935C32.6779 22.0935 31.6288 22.1606 30.6751 22.2283C29.7214 22.2959 28.8629 22.3641 28.1419 22.3679C27.4207 22.3718 26.838 22.3116 26.4359 22.1208C26.2349 22.0255 26.0794 21.8973 25.9739 21.7292C25.8685 21.5613 25.8129 21.3525 25.8128 21.0945C25.8128 20.0618 26.7026 19.1249 28.1448 18.446C29.5865 17.7675 31.5782 17.3475 33.7786 17.3474Z" fill="white" stroke="white" stroke-width="0.0114378"/>
<path d="M16.9749 28.9523C16.9749 28.9523 20.8123 19.1889 32.8755 19.189C44.9387 19.189 50.4918 31.3463 50.4918 31.3463C50.4918 31.3463 46.3566 22.8583 32.8755 22.8583C21.0954 22.8583 16.9749 28.9523 16.9749 28.9523Z" fill="white" stroke="white" stroke-width="0.0114378"/>
</svg>
