<svg width="61" height="71" viewBox="0 0 61 71" fill="none" xmlns="http://www.w3.org/2000/svg">
<path d="M8.32582 33.0491C9.49049 27.7795 14.1618 24.0279 19.5586 24.0279H25.2629C32.617 24.0279 38.0827 30.8335 36.4957 38.0144L32.4339 56.3922C30.5841 64.7616 23.165 70.7201 14.5936 70.7201H0L8.32582 33.0491Z" fill="#F48400"/>
<path d="M11.2017 28.6508C12.3663 23.3811 17.0377 19.6295 22.4345 19.6295H28.1387C35.4929 19.6295 40.9586 26.4351 39.3715 33.616L35.3097 51.9938C33.46 60.3633 26.0408 66.3217 17.4694 66.3217H2.87585L11.2017 28.6508Z" fill="#F4B000" fill-opacity="0.48"/>
<path d="M48.8371 21.0812C48.8696 20.9237 49.0075 20.8137 49.1682 20.8137H50.7166C55.5519 20.8137 59.1038 25.3517 57.9423 30.0454L51.3122 56.8382C49.2944 64.9925 41.9766 70.7202 33.5763 70.7202H23.1776C23.1776 70.7202 28.422 67.1675 30.2829 64.7991C32.1438 62.4307 33.4972 58.5396 33.4972 58.5396C33.4972 58.5396 38.9042 60.9538 40.7717 54.8178C44.0963 43.8943 48.3097 23.6374 48.8371 21.0812Z" fill="#F48400"/>
<path d="M26.0538 5.79229C25.6481 5.92175 25.4451 6.04201 25.1114 6.31683C24.7295 6.40753 24.5154 6.4185 24.1335 6.31683C24.1335 6.31683 23.9826 6.16535 23.9734 6.04122C23.9633 5.9041 24.0178 5.77895 24.1201 5.72116C24.2225 5.66337 24.3247 5.75672 24.5736 5.86341C24.1692 5.45888 23.8371 5.34778 23.9734 5.26774C23.9734 5.26774 24.4447 5.1566 24.4846 5.26774C24.5246 5.37887 24.8314 5.45888 24.8314 5.45888C24.9694 5.44014 25.016 5.40838 24.9781 5.26774C24.9781 5.26774 24.5082 4.88717 24.3824 4.54315C24.2518 4.1861 24.1919 3.89866 24.3824 3.56962C24.5289 3.3166 24.9781 3.11619 24.9781 3.11619C24.9781 3.11619 25.1392 3.12185 25.1959 3.19176C25.2637 3.27534 25.1959 3.46737 25.1959 3.46737C25.1959 3.46737 24.8782 3.66446 24.8314 3.8719C24.7618 4.18049 24.9742 4.483 25.2848 4.54315C25.3683 4.55932 25.5026 4.54315 25.5026 4.54315L25.7649 3.01395C25.603 3.02252 25.5366 3.01026 25.5026 2.92949C25.5206 2.74154 25.5204 2.63592 25.6182 2.44939C25.6754 2.40114 25.7077 2.40624 25.7649 2.44939C25.7649 2.44939 25.7303 1.79231 25.7649 1.37362C25.7991 0.959772 25.9383 0.32452 25.9383 0.32452V0.00445557H26.0272L26.0538 5.79229Z" fill="#F48400" stroke="#F48400" stroke-width="0.00889067"/>
<path d="M25.9866 5.7752C26.3915 5.90428 26.5941 6.02419 26.927 6.2982C27.3081 6.38863 27.5218 6.39956 27.903 6.2982C27.903 6.2982 28.0535 6.14716 28.0626 6.0234C28.0728 5.88668 28.0184 5.7619 27.9163 5.70428C27.8141 5.64666 27.7121 5.73974 27.4638 5.84611C27.8673 5.44278 28.1987 5.33201 28.0626 5.2522C28.0626 5.2522 27.5923 5.14139 27.5525 5.2522C27.5127 5.363 27.2065 5.44278 27.2065 5.44278C27.0688 5.42409 27.0223 5.39242 27.0601 5.2522C27.0601 5.2522 27.529 4.87275 27.6545 4.52974C27.7849 4.17375 27.8446 3.88716 27.6545 3.55909C27.5084 3.30682 27.0601 3.107 27.0601 3.107C27.0601 3.107 26.8994 3.11264 26.8427 3.18235C26.7751 3.26568 26.8427 3.45715 26.8427 3.45715C26.8427 3.45715 27.1598 3.65365 27.2065 3.86048C27.2759 4.16816 27.0639 4.46977 26.754 4.52974C26.6707 4.54587 26.5367 4.52974 26.5367 4.52974L26.2749 3.00506C26.4365 3.01361 26.5027 3.00138 26.5367 2.92085C26.5188 2.73346 26.5189 2.62815 26.4213 2.44217C26.3642 2.39406 26.3321 2.39915 26.2749 2.44217C26.2749 2.44217 26.3094 1.78703 26.2749 1.36958C26.2408 0.956951 26.1019 0.323575 26.1019 0.323575V0.00445557H26.0132L25.9866 5.7752Z" fill="#F48400" stroke="#F48400" stroke-width="0.00889067"/>
<path d="M25.1325 7.00618L25.2036 6.37939C25.2036 6.37939 25.6762 5.9825 26.0394 5.97042C26.4292 5.95744 26.9507 6.37939 26.9507 6.37939L26.9995 6.96617C26.9995 6.96617 26.4314 6.66649 26.0394 6.67278C25.6026 6.67979 25.1325 7.00618 25.1325 7.00618Z" fill="#F48400" stroke="#F48400" stroke-width="0.00889067"/>
<path d="M22.2025 12.2389L23.2116 11.6208C23.2116 11.6208 22.7142 10.1059 23.016 9.21142C23.3434 8.24125 24.8386 7.3266 24.8386 7.3266C24.8386 7.3266 25.5358 6.85494 26.0433 6.83761C26.5977 6.81868 27.3769 7.3266 27.3769 7.3266C27.3769 7.3266 28.7836 8.26572 29.1017 9.21142C29.4023 10.1053 28.9372 11.6208 28.9372 11.6208L29.8025 12.2389C29.8025 12.2389 28.2031 11.7755 26.0433 11.7755C23.8835 11.7755 22.2025 12.2389 22.2025 12.2389Z" fill="#F48400" stroke="#F48400" stroke-width="0.00889067"/>
<path d="M33.4238 15.4268C33.4238 17.3418 30.12 16.3559 26.0445 16.3559C21.9691 16.3559 18.6653 17.3418 18.6653 15.4268C18.6653 13.5119 21.9691 11.9595 26.0445 11.9595C30.12 11.9595 33.4238 13.5119 33.4238 15.4268Z" fill="#F48400"/>
<path d="M32.4545 16.3963C32.4545 18.0073 29.6801 17.1779 26.2577 17.1779C22.8353 17.1779 20.0609 18.0073 20.0609 16.3963C20.0609 14.7854 22.8353 13.4794 26.2577 13.4794C29.6801 13.4794 32.4545 14.7854 32.4545 16.3963Z" fill="#F48400"/>
<path d="M13.1961 22.5047C13.1961 22.5047 16.179 14.9156 25.5558 14.9157C34.9326 14.9157 39.249 24.3657 39.249 24.3657C39.249 24.3657 36.0347 17.7679 25.5558 17.7679C16.399 17.7679 13.1961 22.5047 13.1961 22.5047Z" fill="#F48400" stroke="#F48400" stroke-width="0.00889067"/>
</svg>
