<svg width="199" height="72" viewBox="0 0 199 72" fill="none" xmlns="http://www.w3.org/2000/svg">
<path d="M75.893 26.4011C78.4338 26.4011 80.3763 27.1059 81.7205 28.5157C83.0811 29.9254 83.7614 31.9253 83.7614 34.5153C83.7614 37.1053 83.0811 39.1052 81.7205 40.5149C80.3763 41.9246 78.4338 42.6295 75.893 42.6295H69.0082V26.4011H75.893ZM75.475 39.433C76.852 39.433 77.8519 39.0232 78.4748 38.2036C79.1141 37.3676 79.4338 36.1381 79.4338 34.5153C79.4338 32.8924 79.1141 31.6712 78.4748 30.8516C77.8519 30.0156 76.852 29.5976 75.475 29.5976H73.2375V39.433H75.475ZM93.0783 34.8349C93.0783 34.2612 92.9144 33.8104 92.5866 33.4826C92.2751 33.1383 91.8489 32.9662 91.308 32.9662C90.767 32.9662 90.2998 33.1055 89.9064 33.3842C89.5294 33.6465 89.2671 34.1219 89.1196 34.8103L85.5788 33.9743C85.8083 32.7941 86.4148 31.8515 87.3984 31.1466C88.3819 30.4418 89.7671 30.0893 91.5538 30.0893C92.7505 30.0893 93.7668 30.2697 94.6028 30.6303C95.4552 30.9745 96.1027 31.4991 96.5453 32.204C97.0043 32.8924 97.2338 33.7448 97.2338 34.7612V39.2609C97.2338 39.9002 97.5207 40.2198 98.0944 40.2198C98.3895 40.2198 98.6272 40.1871 98.8075 40.1215L98.5616 42.5066C98.0698 42.7361 97.4715 42.8508 96.7666 42.8508C96.1273 42.8508 95.5618 42.7525 95.07 42.5558C94.5782 42.3426 94.193 42.0312 93.9143 41.6214C93.6357 41.1952 93.4963 40.6624 93.4963 40.0231V39.8756L93.9635 39.7035C93.9635 40.4083 93.7504 40.9985 93.3242 41.4739C92.9144 41.9492 92.3735 42.3017 91.7014 42.5312C91.0457 42.7607 90.3572 42.8754 89.6359 42.8754C88.7999 42.8754 88.0705 42.7443 87.4475 42.482C86.8246 42.2197 86.3411 41.8427 85.9968 41.3509C85.669 40.8427 85.505 40.2198 85.505 39.4822C85.505 38.597 85.7673 37.8675 86.2919 37.2938C86.8328 36.7037 87.677 36.2939 88.8245 36.0644L93.4717 35.1054L93.4472 37.3184L91.0867 37.8102C90.5949 37.9085 90.2261 38.056 89.9802 38.2527C89.7507 38.4331 89.6359 38.7117 89.6359 39.0888C89.6359 39.4494 89.7671 39.7199 90.0293 39.9002C90.2916 40.0805 90.6031 40.1707 90.9637 40.1707C91.2424 40.1707 91.5047 40.1297 91.7505 40.0477C92.0128 39.9658 92.2423 39.8428 92.439 39.6789C92.6357 39.4986 92.7915 39.2773 92.9062 39.015C93.021 38.7527 93.0783 38.4413 93.0783 38.0806V34.8349ZM105.621 42.8754C104.392 42.8754 103.244 42.6787 102.179 42.2853C101.129 41.8755 100.261 41.2935 99.5722 40.5395L101.539 38.2282C101.949 38.7527 102.49 39.1953 103.162 39.5559C103.851 39.9002 104.613 40.0723 105.449 40.0723C105.957 40.0723 106.375 39.9985 106.703 39.851C107.031 39.7035 107.195 39.474 107.195 39.1625C107.195 38.933 107.113 38.7527 106.949 38.6216C106.785 38.474 106.457 38.3511 105.965 38.2527L104.244 37.9085C102.703 37.5971 101.605 37.1381 100.949 36.5315C100.31 35.9086 99.9902 35.0972 99.9902 34.0973C99.9902 33.4252 100.195 32.7859 100.605 32.1794C101.015 31.5565 101.646 31.0565 102.498 30.6795C103.351 30.286 104.441 30.0893 105.769 30.0893C107.014 30.0893 108.113 30.2697 109.063 30.6303C110.014 30.9909 110.768 31.5155 111.326 32.204L109.334 34.4661C108.94 33.9743 108.432 33.5891 107.809 33.3104C107.186 33.0318 106.564 32.8924 105.941 32.8924C105.547 32.8924 105.211 32.9334 104.933 33.0154C104.67 33.0809 104.474 33.1793 104.342 33.3104C104.211 33.4416 104.146 33.6055 104.146 33.8022C104.146 34.0153 104.244 34.2038 104.441 34.3678C104.654 34.5153 105.039 34.6464 105.596 34.7612L107.834 35.2038C109.096 35.4333 110.006 35.8513 110.563 36.4578C111.121 37.0643 111.399 37.7938 111.399 38.6462C111.399 39.4494 111.186 40.1707 110.76 40.81C110.334 41.4493 109.695 41.9574 108.842 42.3345C107.99 42.6951 106.916 42.8754 105.621 42.8754ZM113.568 42.6295V25.1224H117.748V32.5728C118.109 31.7532 118.625 31.1385 119.297 30.7286C119.969 30.3024 120.748 30.0893 121.633 30.0893C122.486 30.0893 123.223 30.2533 123.846 30.5811C124.485 30.909 124.985 31.3925 125.346 32.0318C125.707 32.6711 125.887 33.4744 125.887 34.4415V42.6295H121.707V35.5972C121.707 34.712 121.543 34.1055 121.215 33.7776C120.904 33.4334 120.486 33.2613 119.961 33.2613C119.568 33.2613 119.199 33.3596 118.855 33.5563C118.51 33.753 118.24 34.0645 118.043 34.4907C117.847 34.9169 117.748 35.4742 117.748 36.1627V42.6295H113.568ZM136.709 42.8754C135.906 42.8754 135.193 42.6951 134.57 42.3345C133.963 41.9738 133.463 41.482 133.07 40.8591C132.676 40.2198 132.422 39.4986 132.307 38.6953L132.701 38.179L132.48 42.6295H128.816V25.1224H132.996V34.1956L132.603 33.6055C132.832 32.5892 133.299 31.7532 134.004 31.0975C134.709 30.4254 135.66 30.0893 136.856 30.0893C137.807 30.0893 138.651 30.3434 139.389 30.8516C140.143 31.3597 140.725 32.0974 141.135 33.0646C141.561 34.0153 141.774 35.171 141.774 36.5315C141.774 37.8593 141.561 38.9986 141.135 39.9494C140.709 40.9001 140.118 41.6296 139.364 42.1377C138.61 42.6295 137.725 42.8754 136.709 42.8754ZM135.258 39.8018C135.979 39.8018 136.545 39.5396 136.955 39.015C137.365 38.474 137.569 37.6298 137.569 36.4824C137.569 35.3349 137.365 34.4989 136.955 33.9743C136.545 33.4334 135.979 33.1629 135.258 33.1629C134.783 33.1629 134.373 33.3022 134.029 33.5809C133.701 33.8432 133.447 34.2202 133.266 34.712C133.086 35.2038 132.996 35.8021 132.996 36.507C132.996 37.2118 133.086 37.8102 133.266 38.3019C133.447 38.7937 133.709 39.1707 134.053 39.433C134.398 39.6789 134.799 39.8018 135.258 39.8018ZM150.084 30.0893C151.379 30.0893 152.51 30.3434 153.477 30.8516C154.461 31.3434 155.223 32.0728 155.764 33.04C156.321 33.9907 156.6 35.1382 156.6 36.4824C156.6 37.8265 156.321 38.9822 155.764 39.9494C155.223 40.9001 154.461 41.6296 153.477 42.1377C152.51 42.6295 151.379 42.8754 150.084 42.8754C148.822 42.8754 147.699 42.6295 146.715 42.1377C145.732 41.6296 144.961 40.9001 144.404 39.9494C143.863 38.9822 143.593 37.8265 143.593 36.4824C143.593 35.1382 143.863 33.9907 144.404 33.04C144.961 32.0728 145.732 31.3434 146.715 30.8516C147.699 30.3434 148.822 30.0893 150.084 30.0893ZM150.084 33.0646C149.609 33.0646 149.199 33.1793 148.854 33.4088C148.51 33.6383 148.248 34.0071 148.068 34.5153C147.887 35.0234 147.797 35.6791 147.797 36.4824C147.797 37.2856 147.887 37.9413 148.068 38.4495C148.248 38.9412 148.51 39.3101 148.854 39.5559C149.199 39.7854 149.609 39.9002 150.084 39.9002C150.576 39.9002 150.994 39.7854 151.338 39.5559C151.682 39.3101 151.944 38.9412 152.125 38.4495C152.305 37.9413 152.395 37.2856 152.395 36.4824C152.395 35.6791 152.305 35.0234 152.125 34.5153C151.944 34.0071 151.682 33.6383 151.338 33.4088C150.994 33.1793 150.576 33.0646 150.084 33.0646ZM165.691 34.8349C165.691 34.2612 165.528 33.8104 165.2 33.4826C164.888 33.1383 164.462 32.9662 163.921 32.9662C163.38 32.9662 162.913 33.1055 162.52 33.3842C162.143 33.6465 161.88 34.1219 161.733 34.8103L158.192 33.9743C158.421 32.7941 159.028 31.8515 160.012 31.1466C160.995 30.4418 162.38 30.0893 164.167 30.0893C165.364 30.0893 166.38 30.2697 167.216 30.6303C168.068 30.9745 168.716 31.4991 169.158 32.204C169.617 32.8924 169.847 33.7448 169.847 34.7612V39.2609C169.847 39.9002 170.134 40.2198 170.708 40.2198C171.003 40.2198 171.24 40.1871 171.421 40.1215L171.175 42.5066C170.683 42.7361 170.085 42.8508 169.38 42.8508C168.74 42.8508 168.175 42.7525 167.683 42.5558C167.191 42.3426 166.806 42.0312 166.528 41.6214C166.249 41.1952 166.109 40.6624 166.109 40.0231V39.8756L166.577 39.7035C166.577 40.4083 166.364 40.9985 165.937 41.4739C165.528 41.9492 164.987 42.3017 164.315 42.5312C163.659 42.7607 162.97 42.8754 162.249 42.8754C161.413 42.8754 160.684 42.7443 160.061 42.482C159.438 42.2197 158.954 41.8427 158.61 41.3509C158.282 40.8427 158.118 40.2198 158.118 39.4822C158.118 38.597 158.38 37.8675 158.905 37.2938C159.446 36.7037 160.29 36.2939 161.438 36.0644L166.085 35.1054L166.06 37.3184L163.7 37.8102C163.208 37.9085 162.839 38.056 162.593 38.2527C162.364 38.4331 162.249 38.7117 162.249 39.0888C162.249 39.4494 162.38 39.7199 162.643 39.9002C162.905 40.0805 163.216 40.1707 163.577 40.1707C163.856 40.1707 164.118 40.1297 164.364 40.0477C164.626 39.9658 164.855 39.8428 165.052 39.6789C165.249 39.4986 165.405 39.2773 165.519 39.015C165.634 38.7527 165.691 38.4413 165.691 38.0806V34.8349ZM173.071 42.6295V30.3352H176.759L176.931 32.9908C177.242 32.0728 177.701 31.3597 178.308 30.8516C178.931 30.3434 179.718 30.0893 180.668 30.0893C180.98 30.0893 181.242 30.1139 181.455 30.1631C181.685 30.2123 181.865 30.2779 181.996 30.3598L181.578 33.8022C181.414 33.7366 181.201 33.6875 180.939 33.6547C180.693 33.6055 180.39 33.5809 180.029 33.5809C179.537 33.5809 179.078 33.6875 178.652 33.9006C178.226 34.1137 177.882 34.4333 177.619 34.8595C177.374 35.2693 177.251 35.7939 177.251 36.4332V42.6295H173.071ZM188.016 42.8754C187 42.8754 186.106 42.6295 185.336 42.1377C184.582 41.6296 183.992 40.9001 183.566 39.9494C183.156 38.9986 182.951 37.8593 182.951 36.5315C182.951 35.1546 183.164 33.9907 183.59 33.04C184.033 32.0892 184.639 31.3597 185.41 30.8516C186.197 30.3434 187.098 30.0893 188.115 30.0893C189.229 30.0893 190.123 30.4336 190.795 31.1221C191.483 31.7941 191.926 32.6547 192.122 33.7039L191.729 34.2202V25.1224H195.909V42.6295H192.172L191.901 38.4495L192.393 38.8183C192.295 39.6379 192.041 40.351 191.631 40.9575C191.237 41.564 190.729 42.0394 190.106 42.3836C189.5 42.7115 188.803 42.8754 188.016 42.8754ZM189.467 39.8018C189.942 39.8018 190.344 39.6789 190.672 39.433C191.016 39.1707 191.278 38.7855 191.459 38.2773C191.639 37.7692 191.729 37.1463 191.729 36.4086C191.729 35.7201 191.639 35.1382 191.459 34.6628C191.295 34.171 191.041 33.8022 190.696 33.5563C190.369 33.2941 189.967 33.1629 189.492 33.1629C188.77 33.1629 188.197 33.4334 187.77 33.9743C187.36 34.4989 187.156 35.3349 187.156 36.4824C187.156 37.6298 187.36 38.474 187.77 39.015C188.18 39.5396 188.746 39.8018 189.467 39.8018Z" fill="#4A4A4A"/>
<path d="M82.0661 49.384V59.5637C82.0661 61.6455 81.517 63.2192 80.4187 64.2847C79.3204 65.3338 77.7468 65.8584 75.6977 65.8584C73.665 65.8584 72.0914 65.3338 70.9767 64.2847C69.8784 63.2192 69.3293 61.6455 69.3293 59.5637V49.384H71.2963V59.0719C71.2963 60.7603 71.6488 62.0062 72.3537 62.8094C73.0749 63.6126 74.1896 64.0142 75.6977 64.0142C77.2058 64.0142 78.3123 63.6126 79.0172 62.8094C79.7384 62.0062 80.0991 60.7603 80.0991 59.0719V49.384H82.0661ZM86.5689 65.6125V53.3182H88.2901L88.4623 56.0721L88.1426 55.8016C88.4049 55.1459 88.7573 54.6214 89.1999 54.228C89.6425 53.8182 90.1507 53.5231 90.7244 53.3428C91.3145 53.1625 91.921 53.0723 92.544 53.0723C93.4291 53.0723 94.2324 53.2444 94.9536 53.5887C95.6749 53.9165 96.2486 54.4247 96.6748 55.1132C97.1174 55.8016 97.3387 56.6786 97.3387 57.7441V65.6125H95.3716V58.4326C95.3716 57.0721 95.0766 56.1295 94.4865 55.6049C93.9127 55.064 93.1997 54.7935 92.3472 54.7935C91.7571 54.7935 91.167 54.9328 90.5769 55.2115C89.9867 55.4902 89.495 55.941 89.1016 56.5639C88.7245 57.1868 88.536 58.0228 88.536 59.0719V65.6125H86.5689ZM104.526 49.8266V62.2193C104.526 62.8258 104.698 63.2766 105.042 63.5716C105.387 63.8667 105.829 64.0142 106.37 64.0142C106.846 64.0142 107.255 63.9323 107.6 63.7683C107.944 63.6044 108.255 63.3831 108.534 63.1045L109.223 64.7519C108.845 65.0961 108.395 65.3666 107.87 65.5633C107.362 65.76 106.772 65.8584 106.1 65.8584C105.477 65.8584 104.895 65.7518 104.354 65.5387C103.813 65.3092 103.379 64.9568 103.051 64.4814C102.739 63.9896 102.575 63.3503 102.559 62.5635V50.3676L104.526 49.8266ZM109.001 53.3182V55.0148H100.1V53.3182H109.001ZM112.909 50.9577C112.467 50.9577 112.106 50.8266 111.828 50.5643C111.565 50.2856 111.434 49.925 111.434 49.4824C111.434 49.0398 111.565 48.6873 111.828 48.4251C112.106 48.1464 112.467 48.0071 112.909 48.0071C113.352 48.0071 113.704 48.1464 113.967 48.4251C114.245 48.6873 114.385 49.0398 114.385 49.4824C114.385 49.925 114.245 50.2856 113.967 50.5643C113.704 50.8266 113.352 50.9577 112.909 50.9577ZM113.893 53.3182V65.6125H111.926V53.3182H113.893ZM118.457 65.6125V53.3182H120.056L120.326 55.3345C120.67 54.5804 121.17 54.0149 121.826 53.6378C122.498 53.2608 123.309 53.0723 124.26 53.0723C124.473 53.0723 124.703 53.0887 124.949 53.1215C125.211 53.1543 125.432 53.2198 125.613 53.3182L125.268 55.1132C125.088 55.0476 124.891 54.9984 124.678 54.9656C124.465 54.9328 124.162 54.9165 123.768 54.9165C123.26 54.9165 122.744 55.064 122.219 55.359C121.711 55.6541 121.285 56.1049 120.941 56.7114C120.596 57.3015 120.424 58.0556 120.424 58.9736V65.6125H118.457ZM130.651 49.8266V62.2193C130.651 62.8258 130.824 63.2766 131.168 63.5716C131.512 63.8667 131.955 64.0142 132.496 64.0142C132.971 64.0142 133.381 63.9323 133.725 63.7683C134.069 63.6044 134.381 63.3831 134.659 63.1045L135.348 64.7519C134.971 65.0961 134.52 65.3666 133.996 65.5633C133.487 65.76 132.897 65.8584 132.225 65.8584C131.602 65.8584 131.02 65.7518 130.479 65.5387C129.938 65.3092 129.504 64.9568 129.176 64.4814C128.865 63.9896 128.701 63.3503 128.684 62.5635V50.3676L130.651 49.8266ZM135.127 53.3182V55.0148H126.226V53.3182H135.127ZM145.231 57.6704C145.231 56.7524 144.985 56.0475 144.493 55.5558C144.002 55.0476 143.305 54.7935 142.403 54.7935C141.551 54.7935 140.83 54.982 140.24 55.359C139.65 55.7197 139.215 56.3098 138.936 57.1294L137.338 56.1459C137.666 55.2279 138.273 54.4903 139.158 53.9329C140.043 53.3592 141.141 53.0723 142.453 53.0723C143.338 53.0723 144.141 53.228 144.862 53.5395C145.584 53.8346 146.149 54.2935 146.559 54.9165C146.985 55.523 147.198 56.3098 147.198 57.277V63.2274C147.198 63.8175 147.51 64.1126 148.133 64.1126C148.444 64.1126 148.747 64.0716 149.042 63.9896L148.944 65.5387C148.616 65.7026 148.19 65.7846 147.665 65.7846C147.19 65.7846 146.764 65.6944 146.387 65.5141C146.01 65.3338 145.715 65.0633 145.502 64.7027C145.289 64.3257 145.182 63.8585 145.182 63.3012V63.0553L145.674 63.129C145.477 63.7683 145.141 64.2929 144.666 64.7027C144.19 65.0961 143.657 65.3912 143.067 65.5879C142.477 65.7682 141.895 65.8584 141.322 65.8584C140.6 65.8584 139.928 65.7354 139.305 65.4895C138.682 65.2437 138.182 64.8748 137.805 64.3831C137.445 63.8749 137.264 63.252 137.264 62.5143C137.264 61.5964 137.568 60.8423 138.174 60.2522C138.797 59.6457 139.658 59.2358 140.756 59.0227L145.625 58.0638V59.6866L141.666 60.4981C140.863 60.662 140.264 60.8915 139.871 61.1865C139.477 61.4816 139.281 61.8914 139.281 62.416C139.281 62.9241 139.477 63.3421 139.871 63.67C140.281 63.9814 140.854 64.1372 141.592 64.1372C142.067 64.1372 142.518 64.0798 142.944 63.9651C143.387 63.8339 143.78 63.6454 144.125 63.3995C144.469 63.1372 144.739 62.8176 144.936 62.4406C145.133 62.0471 145.231 61.5882 145.231 61.0636V57.6704Z" fill="#F4B000"/>
<path d="M8.32582 33.0491C9.49049 27.7795 14.1618 24.0279 19.5586 24.0279H25.2629C32.617 24.0279 38.0827 30.8335 36.4957 38.0144L32.4339 56.3922C30.5841 64.7616 23.165 70.7201 14.5936 70.7201H0L8.32582 33.0491Z" fill="#F48400"/>
<path d="M11.2017 28.6508C12.3663 23.3811 17.0377 19.6295 22.4345 19.6295H28.1387C35.4929 19.6295 40.9586 26.4351 39.3715 33.616L35.3097 51.9938C33.46 60.3633 26.0408 66.3217 17.4694 66.3217H2.87585L11.2017 28.6508Z" fill="#F4B000" fill-opacity="0.48"/>
<path d="M48.8371 21.0812C48.8696 20.9237 49.0075 20.8137 49.1682 20.8137H50.7166C55.5519 20.8137 59.1038 25.3517 57.9423 30.0454L51.3122 56.8382C49.2944 64.9925 41.9766 70.7202 33.5763 70.7202H23.1776C23.1776 70.7202 28.422 67.1675 30.2829 64.7991C32.1438 62.4307 33.4972 58.5396 33.4972 58.5396C33.4972 58.5396 38.9042 60.9538 40.7717 54.8178C44.0963 43.8943 48.3097 23.6374 48.8371 21.0812Z" fill="#F48400"/>
<path d="M26.0538 5.79229C25.6481 5.92175 25.4451 6.04201 25.1114 6.31683C24.7295 6.40753 24.5154 6.4185 24.1335 6.31683C24.1335 6.31683 23.9826 6.16535 23.9734 6.04122C23.9633 5.9041 24.0178 5.77895 24.1201 5.72116C24.2225 5.66337 24.3247 5.75672 24.5736 5.86341C24.1692 5.45888 23.8371 5.34778 23.9734 5.26774C23.9734 5.26774 24.4447 5.1566 24.4846 5.26774C24.5246 5.37887 24.8314 5.45888 24.8314 5.45888C24.9694 5.44014 25.016 5.40838 24.9781 5.26774C24.9781 5.26774 24.5082 4.88717 24.3824 4.54315C24.2518 4.1861 24.1919 3.89866 24.3824 3.56962C24.5289 3.3166 24.9781 3.11619 24.9781 3.11619C24.9781 3.11619 25.1392 3.12185 25.1959 3.19176C25.2637 3.27534 25.1959 3.46737 25.1959 3.46737C25.1959 3.46737 24.8782 3.66446 24.8314 3.8719C24.7618 4.18049 24.9742 4.483 25.2848 4.54315C25.3683 4.55932 25.5026 4.54315 25.5026 4.54315L25.7649 3.01395C25.603 3.02252 25.5366 3.01026 25.5026 2.92949C25.5206 2.74154 25.5204 2.63592 25.6182 2.44939C25.6754 2.40114 25.7077 2.40624 25.7649 2.44939C25.7649 2.44939 25.7303 1.79231 25.7649 1.37362C25.7991 0.959772 25.9383 0.32452 25.9383 0.32452V0.00445557H26.0272L26.0538 5.79229Z" fill="#F48400" stroke="#F48400" stroke-width="0.00889067"/>
<path d="M25.9866 5.7752C26.3915 5.90428 26.5941 6.02419 26.927 6.2982C27.3081 6.38863 27.5218 6.39956 27.903 6.2982C27.903 6.2982 28.0535 6.14716 28.0626 6.0234C28.0728 5.88668 28.0184 5.7619 27.9163 5.70428C27.8141 5.64666 27.7121 5.73974 27.4638 5.84611C27.8673 5.44278 28.1987 5.33201 28.0626 5.2522C28.0626 5.2522 27.5923 5.14139 27.5525 5.2522C27.5127 5.363 27.2065 5.44278 27.2065 5.44278C27.0688 5.42409 27.0223 5.39242 27.0601 5.2522C27.0601 5.2522 27.529 4.87275 27.6545 4.52974C27.7849 4.17375 27.8446 3.88716 27.6545 3.55909C27.5084 3.30682 27.0601 3.107 27.0601 3.107C27.0601 3.107 26.8994 3.11264 26.8427 3.18235C26.7751 3.26568 26.8427 3.45715 26.8427 3.45715C26.8427 3.45715 27.1598 3.65365 27.2065 3.86048C27.2759 4.16816 27.0639 4.46977 26.754 4.52974C26.6707 4.54587 26.5367 4.52974 26.5367 4.52974L26.2749 3.00506C26.4365 3.01361 26.5027 3.00138 26.5367 2.92085C26.5188 2.73346 26.5189 2.62815 26.4213 2.44217C26.3642 2.39406 26.3321 2.39915 26.2749 2.44217C26.2749 2.44217 26.3094 1.78703 26.2749 1.36958C26.2408 0.956951 26.1019 0.323575 26.1019 0.323575V0.00445557H26.0132L25.9866 5.7752Z" fill="#F48400" stroke="#F48400" stroke-width="0.00889067"/>
<path d="M25.1325 7.00618L25.2036 6.37939C25.2036 6.37939 25.6762 5.9825 26.0394 5.97042C26.4292 5.95744 26.9507 6.37939 26.9507 6.37939L26.9995 6.96617C26.9995 6.96617 26.4314 6.66649 26.0394 6.67278C25.6026 6.67979 25.1325 7.00618 25.1325 7.00618Z" fill="#F48400" stroke="#F48400" stroke-width="0.00889067"/>
<path d="M22.2025 12.2389L23.2116 11.6208C23.2116 11.6208 22.7142 10.1059 23.016 9.21142C23.3434 8.24125 24.8386 7.3266 24.8386 7.3266C24.8386 7.3266 25.5358 6.85494 26.0433 6.83761C26.5977 6.81868 27.3769 7.3266 27.3769 7.3266C27.3769 7.3266 28.7836 8.26572 29.1017 9.21142C29.4023 10.1053 28.9372 11.6208 28.9372 11.6208L29.8025 12.2389C29.8025 12.2389 28.2031 11.7755 26.0433 11.7755C23.8835 11.7755 22.2025 12.2389 22.2025 12.2389Z" fill="#F48400" stroke="#F48400" stroke-width="0.00889067"/>
<path d="M33.4238 15.4268C33.4238 17.3418 30.12 16.3559 26.0445 16.3559C21.9691 16.3559 18.6653 17.3418 18.6653 15.4268C18.6653 13.5119 21.9691 11.9595 26.0445 11.9595C30.12 11.9595 33.4238 13.5119 33.4238 15.4268Z" fill="#F48400"/>
<path d="M32.4545 16.3963C32.4545 18.0073 29.6801 17.1779 26.2577 17.1779C22.8353 17.1779 20.0609 18.0073 20.0609 16.3963C20.0609 14.7854 22.8353 13.4794 26.2577 13.4794C29.6801 13.4794 32.4545 14.7854 32.4545 16.3963Z" fill="#F48400"/>
<path d="M13.1961 22.5047C13.1961 22.5047 16.179 14.9156 25.5558 14.9157C34.9326 14.9157 39.249 24.3657 39.249 24.3657C39.249 24.3657 36.0347 17.7679 25.5558 17.7679C16.399 17.7679 13.1961 22.5047 13.1961 22.5047Z" fill="#F48400" stroke="#F48400" stroke-width="0.00889067"/>
<circle cx="156.05" cy="63.9444" r="3.31479" fill="#F48400"/>
</svg>
