<svg width="46" height="16" viewBox="0 0 46 16" fill="none" xmlns="http://www.w3.org/2000/svg">
<path d="M0 1.62349C0 1.23458 0.315273 0.919312 0.704182 0.919312H2.06225C2.45116 0.919312 2.76643 1.2316 2.76643 1.62051C2.76643 3.35629 2.76643 7.78572 2.76643 8.79107C2.76643 10.7779 4.50174 10.7779 4.50174 10.7779C4.50174 10.7779 6.28734 10.9288 6.28734 8.79107C6.28734 7.34963 6.28734 4.41507 6.28734 4.41507V2.35283C6.45834 1.28678 6.84033 0.96428 8.07295 0.919312H10.8897H12.9519C13.7594 0.995598 14.044 1.23687 14.1842 2.10133C14.2734 1.25486 14.502 0.95135 15.4417 0.919312H18.2584H21.3015C22.1786 0.986071 22.429 1.23766 22.4081 2.10133V3.71089L19.9183 4.89291V4.08813C19.9648 3.56081 19.8507 3.41613 19.3902 3.43425H15.995C15.5342 3.47085 15.4222 3.62198 15.4417 4.08813C15.4417 4.08813 15.4417 4.56597 15.4417 6.26355C15.4417 7.96113 12.9268 9.67129 12.9268 9.67129H8.9488L9.00347 7.433H11.443C11.443 7.433 12.9268 7.03061 12.9268 6.26355C12.9268 5.4965 12.9268 4.08813 12.9268 4.08813C12.94 3.62668 12.8255 3.48709 12.3986 3.43425H9.65736C9.17964 3.51963 9.05751 3.67878 9.00347 4.08813V8.79107C8.96602 10.0923 8.85258 10.7779 7.8969 11.9096C7.8969 11.9096 6.58913 13.4227 4.50174 13.3934C2.41434 13.3641 1.23232 11.9096 1.23232 11.9096C0.347982 10.7798 0.112351 10.0896 0 8.79107V1.62349Z" fill="#4F4F4F"/>
<path d="M12.9268 10.9036L15.4417 9.69647V11.9096L12.9268 13.4186V10.9036Z" fill="#4F4F4F"/>
<path d="M19.9183 7.5085L22.4332 6.30133V11.9599L19.9183 13.4186V7.5085Z" fill="#4F4F4F"/>
<path d="M15.668 6.9803L19.5661 5.245V7.25694L15.668 8.99225V6.9803Z" fill="#4F4F4F"/>
<path d="M45.9993 15.2653C45.9993 15.2653 43.1214 15.8064 42.1431 14.8374C41.5631 14.2629 37.7212 6.37946 37.7212 6.37946L40.7161 4.86409L45.9993 15.2653Z" fill="url(#paint0_linear_1_276)"/>
<path d="M42.9872 0.923494C43.3749 0.921643 43.6178 1.34259 43.4268 1.67995C40.5949 6.67941 39.458 9.52562 41.2015 13.2652C41.2015 13.2652 38.0508 7.64106 37.7608 6.38479C37.5115 5.30504 39.4697 2.05697 40.0249 1.16547C40.1149 1.02101 40.2716 0.936459 40.4418 0.935647L42.9872 0.923494Z" fill="#2F4EF2"/>
<path d="M35.0987 7.91238C35.0987 7.91238 36.0072 8.0832 36.316 7.77733C36.4991 7.59597 37.7118 5.10749 37.7118 5.10749L36.7664 4.62914L35.0987 7.91238Z" fill="url(#paint1_linear_1_276)"/>
<path d="M35.7738 3.38399C36.7668 5.11373 37.1909 6.04207 36.6132 7.28109C36.6132 7.28109 37.6077 5.50577 37.6993 5.10921C37.7908 4.71266 36.9391 3.38955 36.9391 3.38955L35.7738 3.38399Z" fill="#EAEAEA"/>
<path d="M31.1501 2.25227L34.4238 1.07025L34.4238 12.1299L31.1501 12.1299L31.1501 2.25227Z" fill="#2F4EF2"/>
<path d="M29.3394 2.67975C29.3394 2.67975 26.7833 3.41514 26.4267 4.47509C26.2153 5.10357 26.3023 12.2254 26.3023 12.2254L29.3394 12.2254L29.3394 2.67975Z" fill="#2F4EF2"/>
<path d="M26.3466 0.542053H34.4196L29.0376 2.35281C28.0065 2.7049 27.3812 2.91029 26.3466 3.81147V3.30848H24.9234C24.1538 3.30848 23.5299 2.68461 23.5299 1.91502C23.5299 1.15675 24.1446 0.542053 24.9029 0.542053H26.3466Z" fill="#2F4EF2"/>
<defs>
<linearGradient id="paint0_linear_1_276" x1="39.9775" y1="5.92411" x2="45.3092" y2="18.876" gradientUnits="userSpaceOnUse">
<stop stop-color="#172880"/>
<stop offset="1" stop-color="#116DA8"/>
</linearGradient>
<linearGradient id="paint1_linear_1_276" x1="36.9996" y1="4.96375" x2="35.3166" y2="9.05216" gradientUnits="userSpaceOnUse">
<stop stop-color="#A3A3A3"/>
<stop offset="1" stop-color="#F5F5F5"/>
</linearGradient>
</defs>
</svg>
